<?xml version="1.0" encoding="utf-8"?>
<!-- Generator: Adobe Illustrator 18.0.0, SVG Export Plug-In . SVG Version: 6.00 Build 0)  -->
<!DOCTYPE svg PUBLIC "-//W3C//DTD SVG 1.1//EN" "http://www.w3.org/Graphics/SVG/1.1/DTD/svg11.dtd">
<svg version="1.1" id="Layer_1" xmlns="http://www.w3.org/2000/svg" xmlns:xlink="http://www.w3.org/1999/xlink" x="0px" y="0px"
	 viewBox="0 0 604.9 581.8" enable-background="new 0 0 604.9 581.8" xml:space="preserve">
<g>
	<g>
		
			<rect x="111.4" y="217.8" transform="matrix(0.6154 0.7882 -0.7882 0.6154 261.9875 -96.2856)" fill="#E6FBF5" width="236.6" height="5"/>
	</g>
</g>
<g>
	<g>
		
			<rect x="188.8" y="235.7" transform="matrix(0.3418 0.9398 -0.9398 0.3418 458.5825 53.2403)" fill="#E6FBF5" width="5" height="236.6"/>
	</g>
</g>
<g>
	<g>
		
			<rect x="188.3" y="429.3" transform="matrix(3.456829e-002 0.9994 -0.9994 3.456829e-002 727.4902 110.5003)" fill="#E6FBF5" width="236.6" height="5"/>
	</g>
</g>
<g>
	<g>
		
			<rect x="297.9" y="343.7" transform="matrix(0.9612 0.276 -0.276 0.9612 111.6978 -101.3995)" fill="#E6FBF5" width="236.6" height="5"/>
	</g>
</g>
<g>
	<g>
		
			<rect x="366.1" y="97.2" transform="matrix(0.8289 0.5594 -0.5594 0.8289 183.6254 -169.3402)" fill="#E6FBF5" width="5" height="236.6"/>
	</g>
</g>
<circle fill="#06D79C" cx="302.5" cy="314.6" r="92.2"/>
<g>
	<path fill="#E6FBF5" d="M297.6,550.9c-3.3-0.1-6.6-0.2-9.9-0.4l0.3-5c3.2,0.2,6.5,0.3,9.7,0.4L297.6,550.9z M307.5,550.9l-0.1-5
		c3.2-0.1,6.5-0.2,9.7-0.4l0.3,5C314.2,550.7,310.9,550.9,307.5,550.9z M277.8,549.7c-3.3-0.3-6.6-0.8-9.9-1.2l0.7-4.9
		c3.2,0.5,6.4,0.9,9.7,1.2L277.8,549.7z M327.4,549.7l-0.5-5c3.2-0.3,6.5-0.7,9.7-1.2l0.7,4.9C334,548.9,330.7,549.4,327.4,549.7z
		 M258.1,546.9c-3.3-0.6-6.5-1.3-9.7-2.1l1.1-4.9c3.1,0.7,6.3,1.4,9.5,2L258.1,546.9z M347.1,546.8l-0.9-4.9c3.2-0.6,6.4-1.3,9.5-2
		l1.1,4.9C353.6,545.5,350.3,546.2,347.1,546.8z M238.7,542.3c-3.2-0.9-6.4-1.8-9.5-2.9l1.5-4.8c3.1,1,6.2,1.9,9.3,2.8L238.7,542.3z
		 M366.4,542.3l-1.3-4.8c3.1-0.9,6.2-1.8,9.3-2.8l1.5,4.8C372.8,540.4,369.6,541.4,366.4,542.3z M219.8,536.2
		c-3.1-1.1-6.2-2.4-9.3-3.7l1.9-4.6c3,1.3,6,2.5,9.1,3.6L219.8,536.2z M385.3,536.1l-1.7-4.7c3-1.1,6-2.3,9-3.6l1.9,4.6
		C391.5,533.8,388.4,535,385.3,536.1z M201.4,528.5c-3-1.4-6-2.9-8.9-4.4l2.3-4.4c2.9,1.5,5.8,3,8.7,4.3L201.4,528.5z M403.6,528.4
		l-2.1-4.5c2.9-1.4,5.8-2.8,8.7-4.3l2.3,4.4C409.6,525.5,406.6,527,403.6,528.4z M183.8,519.2c-2.9-1.7-5.7-3.4-8.5-5.2l2.7-4.2
		c2.7,1.7,5.5,3.4,8.3,5.1L183.8,519.2z M421.2,519.2l-2.5-4.3c2.8-1.6,5.6-3.3,8.3-5l2.7,4.2C426.9,515.8,424,517.6,421.2,519.2z
		 M437.9,508.6l-2.9-4.1c2.7-1.8,5.3-3.8,7.9-5.7l3,4C443.3,504.7,440.6,506.7,437.9,508.6z M167,508.6c-2.7-1.9-5.4-3.9-8-5.9l3-4
		c2.6,2,5.2,3.9,7.9,5.7L167,508.6z M453.7,496.6l-3.2-3.9c2.5-2.1,5-4.2,7.4-6.4l3.3,3.7C458.8,492.3,456.3,494.5,453.7,496.6z
		 M151.2,496.5c-2.5-2.1-5.1-4.3-7.5-6.5l3.3-3.7c2.4,2.2,4.9,4.3,7.4,6.4L151.2,496.5z M468.5,483.3l-3.5-3.6
		c2.3-2.3,4.6-4.6,6.8-7l3.6,3.4C473.2,478.6,470.9,481,468.5,483.3z M136.4,483.2c-2.3-2.3-4.7-4.7-7-7.1l3.6-3.4
		c2.2,2.4,4.5,4.7,6.8,7L136.4,483.2z M482.1,468.8l-3.8-3.3c2.1-2.4,4.2-5,6.2-7.5l3.9,3.1C486.4,463.7,484.3,466.3,482.1,468.8z
		 M122.8,468.7c-2.2-2.5-4.3-5.1-6.3-7.7l3.9-3.1c2,2.5,4.1,5,6.2,7.5L122.8,468.7z M494.5,453.2l-4-2.9c1.9-2.6,3.8-5.3,5.6-8
		l4.2,2.8C498.4,447.8,496.4,450.5,494.5,453.2z M110.4,453.2c-1.9-2.7-3.8-5.4-5.7-8.1l4.2-2.8c1.8,2.7,3.7,5.4,5.6,8L110.4,453.2z
		 M99.4,436.7c-1.7-2.8-3.4-5.7-5-8.6l4.4-2.4c1.6,2.8,3.2,5.7,4.9,8.4L99.4,436.7z M505.5,436.6l-4.3-2.6c1.7-2.8,3.3-5.6,4.9-8.4
		l4.4,2.4C508.9,430.9,507.3,433.8,505.5,436.6z M89.8,419.3c-1.5-2.9-2.9-6-4.2-9l4.6-2c1.3,2.9,2.7,5.9,4.1,8.8L89.8,419.3z
		 M515.1,419.2l-4.5-2.2c1.4-2.9,2.8-5.9,4.2-8.8l4.6,2C518,413.2,516.6,416.2,515.1,419.2z M81.7,401.2c-1.2-3.1-2.4-6.2-3.5-9.3
		l4.7-1.6c1.1,3,2.2,6.1,3.4,9.1L81.7,401.2z M523.3,401l-4.6-1.8c1.2-3,2.3-6.1,3.4-9.1l4.7,1.6C525.6,394.8,524.5,397.9,523.3,401
		z M75.2,382.4c-1-3.2-1.9-6.4-2.7-9.6l4.8-1.2c0.8,3.1,1.7,6.3,2.6,9.4L75.2,382.4z M529.8,382.2l-4.8-1.4c0.9-3.1,1.8-6.2,2.6-9.4
		l4.8,1.2C531.7,375.8,530.8,379,529.8,382.2z M70.2,363.1c-0.7-3.2-1.3-6.5-1.9-9.8l4.9-0.8c0.5,3.2,1.2,6.4,1.8,9.6L70.2,363.1z
		 M534.7,362.9l-4.9-1c0.7-3.2,1.3-6.4,1.8-9.6l4.9,0.8C536,356.4,535.4,359.7,534.7,362.9z M66.9,343.5c-0.4-3.3-0.8-6.6-1-9.9
		l5-0.4c0.3,3.2,0.6,6.5,1,9.7L66.9,343.5z M538,343.3l-5-0.6c0.4-3.2,0.7-6.4,1-9.7l5,0.4C538.8,336.7,538.4,340.1,538,343.3z
		 M65.3,323.7c-0.1-3.3-0.2-6.6-0.2-9.9l5,0c0,3.2,0.1,6.5,0.2,9.7L65.3,323.7z M539.7,323.5l-5-0.2c0.1-3.2,0.2-6.5,0.2-9.7v-0.5h5
		v0.5C539.9,316.9,539.8,320.2,539.7,323.5z M70.2,304.1l-5-0.2c0.1-3.3,0.3-6.6,0.6-9.9l5,0.4C70.6,297.6,70.4,300.8,70.2,304.1z
		 M534.7,303.4c-0.1-3.2-0.3-6.5-0.6-9.7l5-0.4c0.3,3.3,0.5,6.6,0.6,9.9L534.7,303.4z M71.8,284.7l-5-0.6c0.4-3.3,0.9-6.6,1.4-9.8
		l4.9,0.8C72.7,278.2,72.2,281.5,71.8,284.7z M533,284c-0.4-3.2-0.9-6.5-1.4-9.6l4.9-0.8c0.5,3.2,1,6.5,1.5,9.8L533,284z M75,265.5
		l-4.9-1c0.7-3.2,1.4-6.5,2.3-9.7l4.8,1.2C76.4,259.1,75.7,262.3,75,265.5z M529.8,264.8c-0.7-3.1-1.4-6.3-2.2-9.5l4.8-1.2
		c0.8,3.2,1.6,6.5,2.3,9.7L529.8,264.8z M79.8,246.6l-4.8-1.4c1-3.2,2-6.4,3.1-9.5l4.7,1.6C81.8,240.4,80.8,243.5,79.8,246.6z
		 M524.9,246c-0.9-3.1-2-6.2-3-9.3l4.7-1.7c1.1,3.1,2.1,6.3,3.1,9.5L524.9,246z M86.2,228.2l-4.7-1.8c1.2-3.1,2.5-6.2,3.9-9.2l4.6,2
		C88.7,222.1,87.4,225.2,86.2,228.2z M518.5,227.6c-1.2-3-2.5-6-3.8-8.9l4.6-2c1.3,3,2.6,6.1,3.9,9.1L518.5,227.6z M94.2,210.4
		l-4.5-2.2c1.5-3,3-5.9,4.6-8.8l4.4,2.4C97.1,204.6,95.6,207.5,94.2,210.4z M510.5,209.9c-1.4-2.9-3-5.8-4.5-8.6l4.4-2.4
		c1.6,2.9,3.1,5.8,4.6,8.8L510.5,209.9z M103.5,193.3l-4.3-2.6c1.7-2.8,3.5-5.6,5.3-8.4l4.2,2.8C107,187.8,105.2,190.5,103.5,193.3z
		 M501.1,192.9c-1.7-2.8-3.4-5.5-5.2-8.2l4.2-2.8c1.8,2.7,3.6,5.6,5.3,8.4L501.1,192.9z M114.3,177.1l-4-2.9c1.9-2.7,4-5.3,6-7.9
		l3.9,3.1C118.2,171.8,116.2,174.4,114.3,177.1z M490.3,176.7c-1.9-2.6-3.9-5.2-5.9-7.7l3.9-3.1c2,2.6,4.1,5.2,6,7.9L490.3,176.7z
		 M126.4,161.8l-3.8-3.3c2.2-2.5,4.4-5,6.7-7.4l3.6,3.4C130.7,156.9,128.5,159.4,126.4,161.8z M478.2,161.5
		c-2.1-2.4-4.3-4.9-6.5-7.2l3.6-3.4c2.3,2.4,4.5,4.9,6.7,7.4L478.2,161.5z M139.7,147.6l-3.5-3.6c2.4-2.3,4.8-4.6,7.2-6.8l3.3,3.7
		C144.4,143.1,142.1,145.3,139.7,147.6z M464.9,147.3c-2.3-2.3-4.7-4.5-7.1-6.7l3.3-3.7c2.5,2.2,4.9,4.5,7.3,6.8L464.9,147.3z
		 M154.2,134.6l-3.2-3.8c2.5-2.1,5.2-4.2,7.8-6.2l3,4C159.2,130.5,156.7,132.5,154.2,134.6z M450.4,134.3c-2.5-2-5-4.1-7.6-6l3-4
		c2.6,2,5.3,4.1,7.8,6.2L450.4,134.3z M169.7,122.8l-2.9-4.1c2.7-1.9,5.5-3.7,8.3-5.5l2.7,4.2C175,119.1,172.3,120.9,169.7,122.8z
		 M434.9,122.5c-2.7-1.8-5.4-3.7-8.1-5.4l2.7-4.2c2.8,1.8,5.6,3.6,8.3,5.5L434.9,122.5z M186.1,112.4l-2.5-4.3
		c2.9-1.7,5.8-3.3,8.7-4.8l2.3,4.4C191.7,109.2,188.8,110.7,186.1,112.4z M418.4,112.1c-2.8-1.6-5.7-3.2-8.5-4.7l2.3-4.4
		c2.9,1.5,5.9,3.1,8.7,4.8L418.4,112.1z M203.3,103.3l-2.1-4.5c3-1.4,6-2.8,9.1-4l1.9,4.6C209.2,100.6,206.2,101.9,203.3,103.3z
		 M401.2,103.1c-2.9-1.4-5.9-2.7-8.9-4l1.9-4.6c3.1,1.3,6.1,2.6,9.1,4L401.2,103.1z M221.1,95.8l-1.8-4.7c3.1-1.2,6.2-2.3,9.4-3.3
		l1.6,4.8C227.3,93.6,224.2,94.6,221.1,95.8z M383.2,95.5c-3-1.1-6.1-2.2-9.2-3.2l1.5-4.8c3.2,1,6.3,2.1,9.4,3.3L383.2,95.5z
		 M239.6,89.7l-1.3-4.8c3.2-0.9,6.4-1.7,9.6-2.5l1.1,4.9C245.9,88.1,242.7,88.9,239.6,89.7z M364.6,89.6c-3.1-0.9-6.3-1.7-9.4-2.4
		l1.1-4.9c3.2,0.7,6.5,1.6,9.6,2.5L364.6,89.6z M258.6,85.3l-0.9-4.9c3.2-0.6,6.5-1.2,9.8-1.7l0.7,4.9
		C265,84.1,261.7,84.7,258.6,85.3z M345.7,85.2c-3.2-0.6-6.4-1.1-9.6-1.6l0.7-4.9c3.3,0.5,6.6,1,9.8,1.6L345.7,85.2z M277.8,82.4
		l-0.5-5c3.3-0.3,6.6-0.6,9.9-0.8l0.3,5C284.3,81.8,281,82.1,277.8,82.4z M326.4,82.4c-3.2-0.3-6.5-0.6-9.7-0.8l0.3-5
		c3.3,0.2,6.6,0.5,9.9,0.8L326.4,82.4z M297.3,81.2l-0.1-5c1.8,0,3.5,0,5.3-0.1c1.5,0,3.1,0,4.6,0l-0.1,5c-1.5,0-3.1,0-4.6,0
		C300.6,81.1,298.9,81.2,297.3,81.2z"/>
</g>
<circle opacity="8.000000e-002" fill="#FFFFFF" cx="302.5" cy="314.6" r="78"/>
<circle fill="#E6FBF5" cx="302.5" cy="66.9" r="66.9"/>
<circle fill="#E6FBF5" cx="66.9" cy="238" r="66.9"/>
<circle fill="#E6FBF5" cx="156.9" cy="515" r="66.9"/>
<circle fill="#E6FBF5" cx="448.1" cy="515" r="66.9"/>
<circle fill="#E6FBF5" cx="538.1" cy="238" r="66.9"/>
<circle opacity="8.000000e-002" fill="#FFFFFF" cx="302.5" cy="314.6" r="68.2"/>
<circle opacity="8.000000e-002" fill="#FFFFFF" cx="302.5" cy="314.6" r="55.5"/>
<g>
	<g>
		<path fill="#FFFFFF" d="M317.5,323.9c-1.9-1.9-4.2-1.9-6.1,0c-1.4,1.4-2.9,2.8-4.3,4.3c-0.4,0.4-0.7,0.5-1.2,0.2
			c-0.9-0.5-1.9-0.9-2.8-1.5c-4.1-2.6-7.6-6-10.7-9.7c-1.5-1.9-2.9-3.9-3.8-6.1c-0.2-0.5-0.2-0.8,0.2-1.1c1.4-1.4,2.8-2.8,4.2-4.2
			c2-2,2-4.3,0-6.3c-1.1-1.1-2.2-2.2-3.3-3.4c-1.2-1.2-2.3-2.3-3.5-3.5c-1.9-1.8-4.2-1.8-6.1,0c-1.4,1.4-2.8,2.9-4.3,4.3
			c-1.4,1.3-2,2.9-2.2,4.7c-0.2,3,0.5,5.8,1.5,8.6c2.1,5.7,5.3,10.7,9.2,15.4c5.3,6.3,11.6,11.2,18.9,14.8c3.3,1.6,6.7,2.8,10.5,3
			c2.6,0.1,4.8-0.5,6.6-2.5c1.2-1.4,2.6-2.6,3.9-3.9c1.9-1.9,1.9-4.3,0-6.2C322.1,328.4,319.8,326.2,317.5,323.9L317.5,323.9z
			 M317.5,323.9"/>
	</g>
	<path fill="#FFFFFF" d="M315.2,314.3l4.4-0.8c-0.7-4.1-2.6-7.8-5.5-10.7c-3.1-3.1-7-5-11.3-5.6l-0.6,4.5c3.3,0.5,6.4,2,8.7,4.4
		C313.2,308.3,314.6,311.2,315.2,314.3L315.2,314.3z M315.2,314.3"/>
	<path fill="#FFFFFF" d="M322.1,295.1c-5.1-5.1-11.6-8.3-18.7-9.3l-0.6,4.5c6.2,0.9,11.8,3.7,16.2,8.1c4.2,4.2,6.9,9.5,7.9,15.3
		l4.4-0.8C330.1,306,327,299.9,322.1,295.1L322.1,295.1z M322.1,295.1"/>
</g>
<g id="XMLID_52_">
	<g id="XMLID_191_">
		<circle fill="#5FB0E5" cx="329" cy="75.9" r="1"/>
	</g>
	<g id="XMLID_190_">
		<circle fill="#5FB0E5" cx="317.2" cy="70.3" r="1"/>
	</g>
	<g id="XMLID_189_">
		<circle fill="#5FB0E5" cx="282.6" cy="69.4" r="1"/>
	</g>
	<g id="XMLID_188_">
		<circle fill="#5FB0E5" cx="327.4" cy="55.3" r="1.6"/>
	</g>
	<g id="XMLID_187_">
		<circle fill="#5FB0E5" cx="277.6" cy="51.2" r="1.9"/>
	</g>
	<g id="XMLID_50_">
		<circle fill="#5FB0E5" cx="274" cy="76.9" r="1.6"/>
	</g>
	<g id="XMLID_868_">
		<path fill="#FFFFFF" d="M317.5,58.8c0,1-0.8,1.8-1.8,1.8l0,0c-1,0-1.8-0.8-1.8-1.8v-1.7c0-1,0.8-1.8,1.8-1.8l0,0
			c1,0,1.8,0.8,1.8,1.8V58.8z"/>
	</g>
	<g id="XMLID_867_">
		<path id="XMLID_1526_" fill="#0686D8" d="M315.8,61.6c-1.5,0-2.8-1.3-2.8-2.8v-1.7c0-1.5,1.3-2.8,2.8-2.8c1.6,0,2.8,1.3,2.8,2.8
			v1.7C318.6,60.3,317.3,61.6,315.8,61.6z M315.8,56.3c-0.4,0-0.8,0.3-0.8,0.8v1.7c0,0.4,0.3,0.8,0.8,0.8c0.4,0,0.8-0.3,0.8-0.8
			v-1.7C316.5,56.7,316.2,56.3,315.8,56.3z"/>
	</g>
	<g id="XMLID_866_">
		<path fill="#FFFFFF" d="M287.4,58.8c0,1-0.8,1.8-1.8,1.8l0,0c-1,0-1.8-0.8-1.8-1.8v-1.7c0-1,0.8-1.8,1.8-1.8l0,0
			c1,0,1.8,0.8,1.8,1.8V58.8z"/>
	</g>
	<g id="XMLID_865_">
		<path id="XMLID_1523_" fill="#0686D8" d="M285.6,61.6c-1.5,0-2.8-1.3-2.8-2.8v-1.7c0-1.5,1.3-2.8,2.8-2.8c1.6,0,2.8,1.3,2.8,2.8
			v1.7C288.4,60.3,287.1,61.6,285.6,61.6z M285.6,56.3c-0.4,0-0.8,0.3-0.8,0.8v1.7c0,0.4,0.3,0.8,0.8,0.8c0.4,0,0.8-0.3,0.8-0.8
			v-1.7C286.3,56.7,286,56.3,285.6,56.3z"/>
	</g>
	<g id="XMLID_864_">
		<path fill="#9ECFEF" d="M319.9,95.3v-5.4c0-9-8.6-16.3-19-16.3l0,0c-10.5,0-19,7.3-19,16.3v5.4H319.9z"/>
	</g>
	<g id="XMLID_218_">
		<path id="XMLID_1522_" fill="#0686D8" d="M282.9,95.3h-2.1v-5.4c0-1.4,0.2-2.8,0.6-4.1l2,0.6c-0.3,1.2-0.5,2.4-0.5,3.6V95.3z"/>
	</g>
	<g id="XMLID_217_">
		<path id="XMLID_1521_" fill="#0686D8" d="M284.7,83.3l-1.8-1c1-1.7,2.2-3.2,3.7-4.6l1.4,1.5C286.6,80.4,285.5,81.8,284.7,83.3z"/>
	</g>
	<g id="XMLID_213_">
		<path id="XMLID_1520_" fill="#0686D8" d="M321,95.3h-2.1v-5.4c0-8.4-8.1-15.3-18-15.3c-3.7,0-7.2,0.9-10.2,2.7l-1.1-1.8
			c3.3-2,7.3-3,11.3-3c11.1,0,20.1,7.8,20.1,17.4V95.3z"/>
	</g>
	<g id="XMLID_126_">
		<path fill="#FFFFFF" d="M303.8,79.4V68.6c0-1.7-1.4-3.1-3.1-3.1h-1c-1.7,0-3.1,1.4-3.1,3.1v10.9l3.6,2.8L303.8,79.4z"/>
	</g>
	<g id="XMLID_127_">
		<path id="XMLID_1517_" fill="#0686D8" d="M300.2,83.6l-4.6-3.7V68.6c0-2.3,1.8-4.1,4.1-4.1h1c2.3,0,4.1,1.8,4.1,4.1v11.4
			L300.2,83.6z M297.7,78.9l2.5,2l2.5-2V68.6c0-1.1-0.9-2-2-2h-1c-1.1,0-2,0.9-2,2V78.9z"/>
	</g>
	<g id="XMLID_827_">
		<path fill="#FFFFFF" d="M300.5,73.1L300.5,73.1c-7.4,0-13.5-6.1-13.5-13.5v-9.2c0-7.4,6.1-7.3,13.5-7.3l0,0
			c7.4,0,13.5-0.2,13.5,7.3v9.2C314.1,67,308,73.1,300.5,73.1z"/>
	</g>
	<g id="XMLID_855_">
		<path id="XMLID_1514_" fill="#0686D8" d="M300.5,74.1c-8,0-14.6-6.5-14.6-14.6v-9.2c0-3.8,1.5-6.2,4.5-7.3c2.5-1,6-1,9.6-1h1
			c3.6,0,7.1,0,9.6,1c3,1.2,4.5,3.6,4.5,7.3v9.2C315.1,67.6,308.5,74.1,300.5,74.1z M299.6,44.2c-3.3,0-6.3,0-8.4,0.8
			c-1.5,0.6-3.2,1.7-3.2,5.4v9.2c0,6.9,5.6,12.5,12.5,12.5S313,66.5,313,59.6v-9.2c0-3.7-1.7-4.8-3.2-5.4c-2.2-0.8-5.4-0.8-8.9-0.8
			h-1C299.9,44.2,299.7,44.2,299.6,44.2z"/>
	</g>
	<g id="XMLID_179_">
		<path fill="#5FB0E5" d="M287.1,56.2L287.1,56.2c-1.8,0-3.2-1.5-3.2-3.2v-7.8c0-2.7,2.2-4.9,4.9-4.9l0,0l0,0c0-2.2,1.8-4,4-4h19.7
			c2.7,0,4.8,2.2,4.8,4.8v11.7c0,1.7-1.5,3.1-3.2,3l0,0v-7.7c0,0-2.2,3.6-9.2,3.6c-8.5,0-14-4.2-14-4.2s-0.5,1.1-1.7,2.2
			c-1,0.9-2.1,0.6-2.1,0.6V56.2z"/>
	</g>
	<g id="XMLID_151_">
		<path id="XMLID_1513_" fill="#0686D8" d="M288.1,57.2h-1c-2.4,0-4.3-1.9-4.3-4.3v-7.8c0-2.9,2.1-5.4,4.9-5.8
			c0.4-2.3,2.5-4.1,4.9-4.1h19.7c3.2,0,5.9,2.6,5.9,5.9v11.7c0,1.1-0.5,2.2-1.3,2.9c-0.8,0.8-1.9,1.2-3,1.1l-1-0.1v-8.7h2.1v6.5
			c0.2-0.1,0.4-0.2,0.5-0.3c0.4-0.4,0.6-0.9,0.6-1.4V41.1c0-2.1-1.7-3.8-3.8-3.8h-19.7c-1.6,0-3,1.3-3,3v1h-1
			c-2.1,0-3.8,1.7-3.8,3.8v7.8c0,0.8,0.5,1.6,1.2,2v-6l1.3,0.4c0,0,0.5,0.1,1.1-0.4c0.9-0.8,1.4-1.8,1.4-1.8l1.9,0.9
			c0,0.1-0.6,1.4-1.9,2.5c-0.6,0.5-1.2,0.8-1.7,0.9V57.2z"/>
	</g>
	<g id="XMLID_133_">
		<path id="XMLID_1512_" fill="#0686D8" d="M304.8,52.7C304.8,52.7,304.8,52.7,304.8,52.7c-8.7,0-16.2-5.4-16.5-5.7l1.2-1.7
			c0.1,0.1,7.2,5.3,15.2,5.3c0,0,0,0,0,0c6.3,0,9.2-4.2,9.3-4.3l1.7,1.1C315.6,47.7,312.2,52.7,304.8,52.7z"/>
	</g>
	<g id="XMLID_4_">
		<polygon id="XMLID_1511_" fill="#0686D8" points="301.6,62.9 297.6,62.9 297.6,54.5 299.6,54.5 299.6,60.9 301.6,60.9 		"/>
	</g>
	<g id="XMLID_47_">
		<rect id="XMLID_1510_" x="292.5" y="55.1" fill="#0686D8" width="3.2" height="2.1"/>
	</g>
	<g id="XMLID_46_">
		<rect id="XMLID_1509_" x="305.2" y="55.1" fill="#0686D8" width="3.2" height="2.1"/>
	</g>
	<g id="XMLID_51_">
		<rect id="XMLID_1508_" x="297.1" y="66" fill="#0686D8" width="6.8" height="2.1"/>
	</g>
</g>
<g id="XMLID_61_">
	<g id="XMLID_71_">
		<circle fill="#5FB0E5" cx="83" cy="252.3" r="0.9"/>
	</g>
	<g id="XMLID_196_">
		<circle fill="#5FB0E5" cx="48.3" cy="248.6" r="0.9"/>
	</g>
	<g id="XMLID_194_">
		<circle fill="#5FB0E5" cx="91.7" cy="232.7" r="1.3"/>
	</g>
	<g id="XMLID_198_">
		<circle fill="#5FB0E5" cx="41.6" cy="261" r="1.3"/>
	</g>
	<g id="XMLID_195_">
		<circle fill="#5FB0E5" cx="91.7" cy="259.7" r="1.8"/>
	</g>
	<g id="XMLID_197_">
		<circle fill="#5FB0E5" cx="41.6" cy="228.6" r="1.8"/>
	</g>
	<g id="XMLID_193_">
		<g id="XMLID_211_">
			<path fill="#9ECFEF" d="M90.1,245.4h-5.6H72.9v-25.7c0-3.8,3.1-6.9,6.9-6.9l0,0c3.8,0,6.9,3.1,6.9,6.9v22.4
				C86.7,243.6,87.7,245.4,90.1,245.4z"/>
		</g>
		<g id="XMLID_210_">
			<path id="XMLID_1505_" fill="#0686D8" d="M90.1,246.4H71.9v-26.7c0-4.4,3.5-7.9,7.9-7.9s7.9,3.5,7.9,7.9v22.4
				c0,0.6,0.2,1.3,0.7,1.7c0.4,0.4,1,0.7,1.8,0.7V246.4z M73.9,244.4h12.5c-0.4-0.7-0.7-1.5-0.6-2.3v-22.4c0-3.3-2.7-5.9-5.9-5.9
				c-3.3,0-5.9,2.7-5.9,5.9V244.4z"/>
		</g>
		<g id="XMLID_239_">
			<g id="XMLID_209_">
				<path fill="#9ECFEF" d="M80,230.9v-8.7c0-7.4-6.1-13.5-13.5-13.5h-2.4c-7.4,0-13.5,6.1-13.5,13.5v8.7H80z"/>
			</g>
			<g id="XMLID_208_">
				<path id="XMLID_5_" fill="#9ECFEF" d="M80,230.9v-8.7c0-7.4-6.1-13.5-13.5-13.5h-2.4c-7.4,0-13.5,6.1-13.5,13.5v8.7H80z"/>
				<path id="XMLID_1501_" fill="#0686D8" d="M81,231.9H49.6v-9.7c0-8,6.5-14.5,14.5-14.5h2.4c8,0,14.5,6.5,14.5,14.5V231.9z
					 M51.6,229.9H79v-7.7c0-6.9-5.6-12.5-12.5-12.5h-2.4c-6.9,0-12.5,5.6-12.5,12.5V229.9z"/>
			</g>
		</g>
		<g id="XMLID_184_">
			<path fill="#FFFFFF" d="M82.1,233c0,1-0.8,1.8-1.8,1.8l0,0c-1,0-1.8-0.8-1.8-1.8v-1.7c0-1,0.8-1.8,1.8-1.8l0,0
				c1,0,1.8,0.8,1.8,1.8V233z"/>
		</g>
		<g id="XMLID_183_">
			<path id="XMLID_1498_" fill="#0686D8" d="M80.3,235.7c-1.5,0-2.7-1.2-2.7-2.7v-1.7c0-1.5,1.2-2.7,2.7-2.7c1.5,0,2.7,1.2,2.7,2.7
				v1.7C83.1,234.5,81.8,235.7,80.3,235.7z M80.3,230.5c-0.4,0-0.8,0.3-0.8,0.8v1.7c0,0.4,0.3,0.8,0.8,0.8c0.4,0,0.8-0.3,0.8-0.8
				v-1.7C81.1,230.9,80.7,230.5,80.3,230.5z"/>
		</g>
		<g id="XMLID_180_">
			<path fill="#FFFFFF" d="M51.8,233c0,1-0.8,1.8-1.8,1.8l0,0c-1,0-1.8-0.8-1.8-1.8v-1.7c0-1,0.8-1.8,1.8-1.8l0,0
				c1,0,1.8,0.8,1.8,1.8V233z"/>
		</g>
		<g id="XMLID_70_">
			<path id="XMLID_1495_" fill="#0686D8" d="M50.1,235.7c-1.5,0-2.7-1.2-2.7-2.7v-1.7c0-1.5,1.2-2.7,2.7-2.7c1.5,0,2.7,1.2,2.7,2.7
				v1.7C52.8,234.5,51.6,235.7,50.1,235.7z M50.1,230.5c-0.4,0-0.8,0.3-0.8,0.8v1.7c0,0.4,0.3,0.8,0.8,0.8c0.4,0,0.8-0.3,0.8-0.8
				v-1.7C50.8,230.9,50.5,230.5,50.1,230.5z"/>
		</g>
		<g id="XMLID_68_">
			<path fill="#D2E9F7" d="M81.6,267.3v-2.6c0-8.8-7.2-16.1-16.1-16.1l0,0c-8.8,0-16.1,7.2-16.1,16.1v2.6H81.6z"/>
		</g>
		<g id="XMLID_214_">
			<path id="XMLID_1494_" fill="#0686D8" d="M82.6,267.3h-2v-2.6c0-8.3-6.8-15.1-15.1-15.1c-3.6,0-7.1,1.3-9.8,3.7l-1.3-1.5
				c3.1-2.7,7-4.1,11.1-4.1c9.4,0,17.1,7.7,17.1,17.1V267.3z"/>
		</g>
		<g id="XMLID_215_">
			<path id="XMLID_1493_" fill="#0686D8" d="M52.3,257.6l-1.8-0.9c0.5-0.9,1.1-1.8,1.8-2.7l1.6,1.2C53.3,256,52.7,256.8,52.3,257.6z
				"/>
		</g>
		<g id="XMLID_97_">
			<path id="XMLID_1492_" fill="#0686D8" d="M50.5,267.3h-2v-2.6c0-1.3,0.2-2.6,0.5-3.9l1.9,0.5c-0.3,1.1-0.4,2.3-0.4,3.4V267.3z"/>
		</g>
		<g id="XMLID_206_">
			<path fill="#FFFFFF" d="M65.3,255.1L65.3,255.1c-1.9,0-3.5-1.6-3.5-3.5v-7.4c0-1.9,1.6-3.5,3.5-3.5l0,0c1.9,0,3.5,1.6,3.5,3.5
				v7.4C68.8,253.5,67.2,255.1,65.3,255.1z"/>
		</g>
		<g id="XMLID_205_">
			<path id="XMLID_1489_" fill="#0686D8" d="M65.3,256.1c-2.5,0-4.5-2-4.5-4.5v-7.4c0-2.5,2-4.5,4.5-4.5c2.5,0,4.5,2,4.5,4.5v7.4
				C69.8,254.1,67.8,256.1,65.3,256.1z M65.3,241.7c-1.4,0-2.5,1.1-2.5,2.5v7.4c0,1.4,1.1,2.5,2.5,2.5s2.5-1.1,2.5-2.5v-7.4
				C67.8,242.8,66.7,241.7,65.3,241.7z"/>
		</g>
		<g id="XMLID_204_">
			<path fill="#FFFFFF" d="M78.8,225.4v8.9c0,7.4-6.1,13.5-13.5,13.5h0c-7.4,0-13.5-6.1-13.5-13.5v-8.9c6.7,0,11.9-5.7,13.4-7.4
				c0.2-0.3,0.6-0.3,0.8,0C67.5,219.8,72.7,225.4,78.8,225.4z"/>
		</g>
		<g id="XMLID_202_">
			<path id="XMLID_1486_" fill="#0686D8" d="M65.3,248.8c-8,0-14.5-6.5-14.5-14.5v-9.9h1c6.2,0,11.2-5.4,12.6-7.1
				c0.3-0.3,0.7-0.6,1.2-0.6h0c0.5,0,0.9,0.2,1.2,0.5c1.4,1.7,6.4,7.1,12,7.1h1v9.9C79.8,242.3,73.3,248.8,65.3,248.8z M52.8,226.4
				v7.9c0,6.9,5.6,12.5,12.5,12.5c6.9,0,12.5-5.6,12.5-12.5v-7.9c-5.6-0.5-10.4-5.3-12.2-7.3C63.8,221.1,58.9,225.9,52.8,226.4z"/>
		</g>
		<g id="XMLID_192_">
			<path fill="#5FB0E5" d="M77.9,215l-3.8-4.3c-0.5-0.6-0.5-1.5,0.1-2.1l0,0c0.6-0.5,1.5-0.5,2.1,0.1l3.8,4.3
				c0.5,0.6,0.5,1.5-0.1,2.1l0,0C79.4,215.7,78.4,215.6,77.9,215z"/>
		</g>
		<g id="XMLID_185_">
			<path id="XMLID_1483_" fill="#0686D8" d="M79,216.5c-0.1,0-0.1,0-0.2,0c-0.7,0-1.3-0.3-1.7-0.8h0l-3.8-4.3
				c-0.4-0.5-0.6-1.1-0.6-1.8c0-0.7,0.3-1.3,0.8-1.7c1-0.9,2.6-0.8,3.5,0.2l3.8,4.3c0.4,0.5,0.6,1.1,0.6,1.8c0,0.7-0.3,1.3-0.8,1.7
				C80.2,216.3,79.6,216.5,79,216.5z M78.7,214.3c0.1,0.1,0.2,0.2,0.3,0.2c0.1,0,0.2,0,0.3-0.1c0.1-0.1,0.2-0.2,0.2-0.3
				c0-0.1,0-0.2-0.1-0.3l-3.8-4.3c-0.2-0.2-0.5-0.2-0.7,0c-0.1,0.1-0.2,0.2-0.2,0.3c0,0.1,0,0.2,0.1,0.3L78.7,214.3z"/>
		</g>
		<g id="XMLID_54_">
			<polygon id="XMLID_1482_" fill="#0686D8" points="66.6,236 62.7,236 62.7,227.9 64.7,227.9 64.7,234 65.6,234 66,233.4 
				67.6,234.5 			"/>
		</g>
		<g id="XMLID_55_">
			<path id="XMLID_1481_" fill="#0686D8" d="M59.3,230.3c-0.9,0-1.8-0.4-2.4-1l1.4-1.4c0.5,0.5,1.4,0.5,2,0l1.4,1.4
				C61.1,230,60.2,230.3,59.3,230.3z"/>
		</g>
		<g id="XMLID_53_">
			<path id="XMLID_1480_" fill="#0686D8" d="M71.2,230.3c-0.9,0-1.8-0.4-2.4-1l1.4-1.4c0.5,0.5,1.4,0.5,2,0l1.4,1.4
				C72.9,230,72.1,230.3,71.2,230.3z"/>
		</g>
		<g id="XMLID_57_">
			<path id="XMLID_1479_" fill="#0686D8" d="M65.6,242.3c-1.8,0-3.6-0.5-4.9-1.4l1.1-1.7c2,1.3,5.6,1.3,7.6,0l1.1,1.7
				C69.2,241.8,67.4,242.3,65.6,242.3z"/>
		</g>
	</g>
</g>
<g id="XMLID_74_">
	<g id="XMLID_79_">
		<path fill="#5FB0E5" d="M173.3,545V540c0-8.2-7.8-14.9-17.4-14.9l0,0c-9.6,0-17.4,6.7-17.4,14.9v4.9H173.3z"/>
	</g>
	<g id="XMLID_75_">
		<g id="XMLID_82_">
			<rect x="138.8" y="539.8" fill="#D2E9F7" width="34.5" height="3.1"/>
		</g>
	</g>
	<g id="XMLID_90_">
		<circle fill="#5FB0E5" cx="181.6" cy="527.3" r="0.9"/>
	</g>
	<g id="XMLID_89_">
		<circle fill="#5FB0E5" cx="170.8" cy="522.2" r="0.9"/>
	</g>
	<g id="XMLID_88_">
		<circle fill="#5FB0E5" cx="139.3" cy="521.3" r="0.9"/>
	</g>
	<g id="XMLID_87_">
		<circle fill="#5FB0E5" cx="180.2" cy="508.4" r="1.4"/>
	</g>
	<g id="XMLID_86_">
		<circle fill="#5FB0E5" cx="134.7" cy="504.7" r="1.8"/>
	</g>
	<g id="XMLID_85_">
		<circle fill="#5FB0E5" cx="131.3" cy="528.2" r="1.4"/>
	</g>
	<g id="XMLID_78_">
		<path id="XMLID_1478_" fill="#0686D8" d="M139.5,545h-1.9V540c0-1.3,0.2-2.6,0.5-3.8l1.8,0.5c-0.3,1.1-0.5,2.2-0.5,3.3V545z"/>
	</g>
	<g id="XMLID_77_">
		<path id="XMLID_1477_" fill="#0686D8" d="M141.1,534l-1.6-0.9c0.9-1.5,2-2.9,3.4-4.2l1.2,1.4C142.9,531.4,141.9,532.7,141.1,534z"
			/>
	</g>
	<g id="XMLID_76_">
		<path id="XMLID_1476_" fill="#0686D8" d="M174.3,545h-1.9V540c0-7.7-7.4-14-16.5-14c-3.4,0-6.6,0.9-9.4,2.5l-1-1.6
			c3.1-1.8,6.6-2.8,10.3-2.8c10.1,0,18.3,7.1,18.3,15.9V545z"/>
	</g>
	<g id="XMLID_123_">
		<path fill="#5FB0E5" d="M143.7,515.4h-0.4c-0.9,0-1.6-0.7-1.6-1.6l-0.6-17c0-1.8,0.8-2.3,2.3-3.4l2-1.6c-5.2-3.2-3.8-5.9-3.8-5.9
			c2.4,3.6,15.4,0.9,22.9,2.1c1.8,0.3,3.2,1.7,3.4,3.5l0.2,1.4l0,0c1.5,0,2.7-0.1,2.7,1.4l-0.6,19.5c0,0.9-0.7,1.6-1.6,1.6H143.7z"
			/>
	</g>
	<g id="XMLID_121_">
		<path id="XMLID_1473_" fill="#0686D8" d="M168.7,516.3h-25.4c-1.4,0-2.5-1.1-2.5-2.5l-0.6-17c0-2.2,1.3-4.2,3.3-5.2
			c-2.5-1.9-3.4-3.8-2.9-5.9l0.2-0.7l0.7-0.1h0.5l0.3,0.4c1.2,1.8,6.9,1.6,11.9,1.4c3.6-0.1,7.4-0.2,10.4,0.2
			c2.1,0.3,3.8,2.1,4.1,4.3l0.1,0.6c0.8,0,1.6,0.1,2.2,0.7c0.4,0.4,0.6,0.9,0.6,1.6l-0.6,19.6C171.1,515.2,170,516.3,168.7,516.3z
			 M142.6,487.8c0.4,1,1.5,2.1,3.3,3.2l1.4,0.9l-3,1.4c-1.4,0.7-2.3,2-2.3,3.4l0.6,17c0,0.4,0.3,0.6,0.6,0.6h25.4
			c0.3,0,0.6-0.3,0.6-0.6l0.6-19.6c0-0.2,0-0.3,0-0.3c-0.1-0.1-0.9-0.1-1.4-0.1l-1.1,0l-0.3-2.2c-0.2-1.4-1.2-2.5-2.6-2.7
			c-2.8-0.4-6.5-0.3-10-0.2C149.5,488.8,145.2,489,142.6,487.8z"/>
	</g>
	<g id="XMLID_118_">
		<path fill="#FFFFFF" d="M155.7,532h-0.2c-1.8,0-3.3-1.5-3.3-3.3v-7.5c0-1.8,1.5-3.3,3.3-3.3h0.2c1.8,0,3.3,1.5,3.3,3.3v7.5
			C159,530.5,157.5,532,155.7,532z"/>
	</g>
	<g id="XMLID_117_">
		<path id="XMLID_1470_" fill="#0686D8" d="M155.7,532.9h-0.2c-2.3,0-4.2-1.9-4.2-4.2v-7.5c0-2.3,1.9-4.2,4.2-4.2h0.2
			c2.3,0,4.2,1.9,4.2,4.2v7.5C160,531,158.1,532.9,155.7,532.9z M155.5,518.9c-1.3,0-2.3,1.1-2.3,2.3v7.5c0,1.3,1.1,2.3,2.3,2.3h0.2
			c1.3,0,2.4-1.1,2.4-2.3v-7.5c0-1.3-1.1-2.3-2.4-2.3H155.5z"/>
	</g>
	<g id="XMLID_116_">
		<path fill="#FFFFFF" d="M155.9,525.3L155.9,525.3c-7.1,0-13-5.8-13-13v-8.8c0-7.1,5.8-11.7,13-11.7l0,0c7.1,0,13,4.5,13,11.7v8.8
			C168.9,519.4,163,525.3,155.9,525.3z"/>
	</g>
	<g id="XMLID_113_">
		<path id="XMLID_1467_" fill="#0686D8" d="M155.9,526.2c-7.7,0-13.9-6.2-13.9-13.9v-8.8c0-7.3,5.9-12.6,13.9-12.6
			c8.1,0,13.9,5.3,13.9,12.6v8.8C169.8,520,163.6,526.2,155.9,526.2z M155.9,492.7c-7,0-12,4.5-12,10.7v8.8c0,6.6,5.4,12,12,12
			c6.6,0,12-5.4,12-12v-8.8C167.9,497.3,162.9,492.7,155.9,492.7z"/>
	</g>
	<g id="XMLID_110_">
		<path fill="#5FB0E5" d="M169.6,494.8l-3.4-1.4c0.3-0.3-0.2-0.8,0-1.3c1.1-3.2-5.1-1.9-5.1-1.9s-7.2-3-15.4,3.2l-4.1,6.1
			c0,0,11.9,3.4,21.4-5c0.1,2.6,0.7,6.3,6.6,7.5v-4.7V494.8z"/>
	</g>
	<g id="XMLID_108_">
		<path id="XMLID_1466_" fill="#0686D8" d="M169.9,503.1c-5.4-1.1-7.1-4.3-7.7-6.9c-9.6,7.2-20.8,4-21.3,3.8l0.5-1.8
			c0.1,0,11.7,3.3,20.7-4.4l0.4-0.4l0.7,0.2c0.4,0.2,0.6,0.5,0.6,0.9c0.1,2.4,1.3,5.6,6.4,6.6L169.9,503.1z"/>
	</g>
	<g id="XMLID_107_">
		<path id="XMLID_1463_" fill="#0686D8" d="M151.9,511.8h-6.4c-1.9,0-3.5-1.5-3.5-3.5v-2.9c0-1.9,1.5-3.5,3.5-3.5h6.4
			c1.9,0,3.5,1.5,3.5,3.5v2.9C155.4,510.3,153.8,511.8,151.9,511.8z M145.5,503.9c-0.9,0-1.6,0.7-1.6,1.6v2.9c0,0.9,0.7,1.6,1.6,1.6
			h6.4c0.9,0,1.6-0.7,1.6-1.6v-2.9c0-0.9-0.7-1.6-1.6-1.6H145.5z"/>
	</g>
	<g id="XMLID_106_">
		<path id="XMLID_1460_" fill="#0686D8" d="M166.2,511.8h-6.4c-1.9,0-3.5-1.5-3.5-3.5v-2.9c0-1.9,1.5-3.5,3.5-3.5h6.4
			c1.9,0,3.5,1.5,3.5,3.5v2.9C169.7,510.3,168.1,511.8,166.2,511.8z M159.8,503.9c-0.9,0-1.6,0.7-1.6,1.6v2.9c0,0.9,0.7,1.6,1.6,1.6
			h6.4c0.9,0,1.6-0.7,1.6-1.6v-2.9c0-0.9-0.7-1.6-1.6-1.6H159.8z"/>
	</g>
	<g id="XMLID_103_">
		<rect id="XMLID_1459_" x="154.4" y="506" fill="#0686D8" width="2.5" height="1.9"/>
	</g>
	<g id="XMLID_58_">
		<rect id="XMLID_1458_" x="147.4" y="506" fill="#0686D8" width="2.6" height="1.9"/>
	</g>
	<g id="XMLID_56_">
		<rect id="XMLID_1457_" x="161.7" y="506" fill="#0686D8" width="2.6" height="1.9"/>
	</g>
	<g id="XMLID_60_">
		<polygon id="XMLID_1456_" fill="#0686D8" points="159,516.9 155.1,516.9 155.1,507.9 156.9,507.9 156.9,515 159,515 		"/>
	</g>
	<g id="XMLID_62_">
		<polygon id="XMLID_1455_" fill="#0686D8" points="159.9,521 152.2,521 152.2,519.1 159.2,519.1 161.1,517.6 162.3,519 		"/>
	</g>
</g>
<g id="XMLID_248_">
	<g id="XMLID_225_">
		<path fill="#D2E9F7" d="M464.5,510.3v-7.2c0-9.6-7.8-17.4-17.4-17.4l0,0c-9.6,0-17.4,7.8-17.4,17.4v13.6H458
			C461.6,516.7,464.5,513.8,464.5,510.3z"/>
	</g>
	<g id="XMLID_262_">
		<circle fill="#5FB0E5" cx="465.3" cy="529.5" r="1"/>
	</g>
	<g id="XMLID_261_">
		<circle fill="#5FB0E5" cx="430" cy="525.7" r="1"/>
	</g>
	<g id="XMLID_260_">
		<circle fill="#5FB0E5" cx="474.1" cy="509.5" r="1.3"/>
	</g>
	<g id="XMLID_259_">
		<circle fill="#5FB0E5" cx="423.1" cy="538.3" r="1.3"/>
	</g>
	<g id="XMLID_258_">
		<circle fill="#5FB0E5" cx="474.1" cy="537" r="1.8"/>
	</g>
	<g id="XMLID_257_">
		<circle fill="#5FB0E5" cx="423.1" cy="505.3" r="1.8"/>
	</g>
	<g id="XMLID_247_">
		<path fill="#5FB0E5" d="M463.9,544.7V542c0-9-7.4-16.4-16.4-16.4l0,0c-9,0-16.4,7.4-16.4,16.4v2.7H463.9z"/>
	</g>
	<g id="XMLID_246_">
		<path id="XMLID_1366_" fill="#0686D8" d="M464.9,544.7h-2V542c0-8.5-6.9-15.3-15.3-15.3c-3.7,0-7.2,1.3-10,3.7l-1.3-1.5
			c3.2-2.7,7.2-4.2,11.3-4.2c9.6,0,17.4,7.8,17.4,17.4V544.7z"/>
	</g>
	<g id="XMLID_245_">
		<path id="XMLID_1365_" fill="#0686D8" d="M434,534.8l-1.8-1c0.5-1,1.1-1.9,1.8-2.7l1.6,1.3C435,533.2,434.4,534,434,534.8z"/>
	</g>
	<g id="XMLID_244_">
		<path id="XMLID_1364_" fill="#0686D8" d="M432.2,544.7h-2V542c0-1.3,0.2-2.7,0.5-4l2,0.5c-0.3,1.1-0.4,2.3-0.4,3.5V544.7z"/>
	</g>
	<g id="XMLID_240_">
		<path fill="#FFFFFF" d="M447.2,532.3L447.2,532.3c-2,0-3.6-1.6-3.6-3.6v-7.5c0-2,1.6-3.6,3.6-3.6l0,0c2,0,3.6,1.6,3.6,3.6v7.5
			C450.8,530.7,449.2,532.3,447.2,532.3z"/>
	</g>
	<g id="XMLID_238_">
		<path id="XMLID_1361_" fill="#0686D8" d="M447.2,533.3c-2.5,0-4.6-2.1-4.6-4.6v-7.5c0-2.5,2.1-4.6,4.6-4.6c2.5,0,4.6,2.1,4.6,4.6
			v7.5C451.8,531.2,449.8,533.3,447.2,533.3z M447.2,518.6c-1.4,0-2.6,1.1-2.6,2.6v7.5c0,1.4,1.1,2.6,2.6,2.6s2.6-1.1,2.6-2.6v-7.5
			C449.8,519.8,448.6,518.6,447.2,518.6z"/>
	</g>
	<g id="XMLID_222_">
		<path fill="#FFFFFF" d="M461,495.5v15.1c0,7.6-6.2,13.8-13.8,13.8h0c-7.6,0-13.8-6.2-13.8-13.8v-15.1H461z"/>
	</g>
	<g id="XMLID_223_">
		<path id="XMLID_1360_" fill="#0686D8" d="M447.2,525.3c-8.1,0-14.8-6.6-14.8-14.8v-8.3h2v8.3c0,7,5.7,12.7,12.7,12.7
			c7,0,12.7-5.7,12.7-12.7v-11h2v11C462,518.7,455.4,525.3,447.2,525.3z"/>
	</g>
	<g id="XMLID_236_">
		<path fill="#D2E9F7" d="M462.7,503.4h-5c-4.6,0.1-10.5-5-10.5-8v2.5v6.5c0,9.7-7.8,17.5-17.5,17.6l0,0l0.7-18.8l2.6-8.6l28.6-0.7
			l0.9,4.1V503.4z"/>
	</g>
	<g id="XMLID_235_">
		<path id="XMLID_1359_" fill="#0686D8" d="M429.7,522.8l0-2c9.1,0,16.5-7.5,16.5-16.6v-11.4h2c0,5.2,4.3,9.5,9.5,9.5h5v2h-5
			c-3.9,0-7.4-2-9.5-5v4.9C448.2,514.5,439.9,522.8,429.7,522.8z"/>
	</g>
	<g id="XMLID_237_">
		<path id="XMLID_1358_" fill="#0686D8" d="M430.7,522.7h-2v-19.6c0-10.2,8.3-18.4,18.4-18.4c10.2,0,18.4,8.3,18.4,18.4v7.2
			c0,3.4-2.3,6.4-5.7,7.3l-0.5-2c2.4-0.6,4.1-2.8,4.1-5.3v-7.2c0-9-7.3-16.4-16.4-16.4c-9,0-16.4,7.3-16.4,16.4V522.7z"/>
	</g>
	<g id="XMLID_249_">
		<rect id="XMLID_1357_" x="449.9" y="506.3" fill="#0686D8" width="5.6" height="2"/>
	</g>
	<g id="XMLID_224_">
		<polygon id="XMLID_1356_" fill="#0686D8" points="450.3,514.7 447.2,514.7 447.2,512.7 448.2,512.7 448.2,509.8 450.3,509.8 		"/>
	</g>
	<g id="XMLID_250_">
		<path id="XMLID_1355_" fill="#0686D8" d="M447.9,520.4h-0.8c-1.1,0-2.2-0.4-3.1-1.2l-0.2-0.2l1.3-1.5l0.2,0.2
			c0.5,0.4,1.1,0.7,1.8,0.7h0.8c0.7,0,1.4-0.3,1.9-0.8l1.4,1.4C450.4,519.9,449.2,520.4,447.9,520.4z"/>
	</g>
	<g id="XMLID_233_">
		<path id="XMLID_1354_" fill="#0686D8" d="M430.2,518.6l-0.8-1.9c6.1-2.6,10-8.6,10-15.2h2C441.5,509,437,515.7,430.2,518.6z"/>
	</g>
	<g id="XMLID_251_">
		<path id="XMLID_1353_" fill="#0686D8" d="M429.8,513.8l-1.2-1.6c4.2-3.1,6.7-8.1,6.7-13.3h2C437.4,504.7,434.6,510.3,429.8,513.8z
			"/>
	</g>
</g>
<g id="XMLID_503_">
	<g id="XMLID_558_">
		<path fill="#5FB0E5" d="M522.7,234l-0.6,2.3c-1.4,4.9-0.8,10.2,1.7,14.7l2.3,4.2l9.4-1.9c0,0,2.2-14.3,1.4-14S522.7,234,522.7,234
			z"/>
	</g>
	<g id="XMLID_557_">
		<path id="XMLID_1159_" fill="#0686D8" d="M525.4,256.3l-2.6-4.9c-2.6-4.8-3.2-10.2-1.7-15.4l0.9-3.4l1.1,0.4
			c5.8,2.4,12.3,4.9,13.6,5.2l0.3-0.1l0.5,0.4c0.5,0.4,1,0.8-1.1,14.9l-0.1,0.7L525.4,256.3z M523.4,235.4l-0.3,1.1
			c-1.3,4.7-0.7,9.6,1.6,13.9l1.9,3.5l8-1.6c0.8-5,1.4-10.4,1.5-12.2C534.5,239.8,531.2,238.6,523.4,235.4z"/>
	</g>
	<g id="XMLID_561_">
		<path fill="#5FB0E5" d="M550.8,234l0.6,2.3c1.4,4.9,0.8,10.2-1.7,14.7l-2.3,4.2l-9.4-1.9c0,0-2.2-14.3-1.4-14S550.8,234,550.8,234
			z"/>
	</g>
	<g id="XMLID_560_">
		<path id="XMLID_1156_" fill="#0686D8" d="M548.1,256.3l-10.9-2.2l-0.1-0.7c-2.2-14.1-1.6-14.5-1.1-14.9l0.5-0.4l0.4,0.1
			c1.3-0.2,7.8-2.8,13.6-5.2l1.1-0.4l0.9,3.4c1.4,5.2,0.8,10.7-1.7,15.4L548.1,256.3z M539,252.4l8,1.6l1.9-3.5
			c2.3-4.3,2.9-9.2,1.6-13.9l-0.3-1.1c-7.9,3.3-11.2,4.4-12.6,4.8C537.6,241.9,538.2,247.3,539,252.4z"/>
	</g>
	<g id="XMLID_508_">
		<path fill="#D2E9F7" d="M553.5,267.8v-2.7c0-9.2-7.5-16.7-16.7-16.7l0,0c-9.2,0-16.7,7.5-16.7,16.7v2.7H553.5z"/>
	</g>
	<g id="XMLID_527_">
		<path fill="#9ECFEF" d="M521.2,259.3v8.5h1.8v-12C522.3,256.8,521.7,258,521.2,259.3z"/>
	</g>
	<g id="XMLID_529_">
		<path fill="#9ECFEF" d="M524.8,253.6v14.2h1.8V252C525.9,252.5,525.3,253,524.8,253.6z"/>
	</g>
	<g id="XMLID_519_">
		<rect x="528.3" y="250.3" fill="#9ECFEF" width="1.8" height="17.5"/>
	</g>
	<g id="XMLID_520_">
		<rect x="531.8" y="251.6" fill="#9ECFEF" width="1.8" height="16.2"/>
	</g>
	<g id="XMLID_521_">
		<rect x="535.4" y="251.6" fill="#9ECFEF" width="1.8" height="16.2"/>
	</g>
	<g id="XMLID_522_">
		<rect x="538.9" y="251.6" fill="#9ECFEF" width="1.8" height="16.2"/>
	</g>
	<g id="XMLID_524_">
		<rect x="542.4" y="249.7" fill="#9ECFEF" width="1.8" height="18.1"/>
	</g>
	<g id="XMLID_525_">
		<rect x="546" y="251.6" fill="#9ECFEF" width="1.8" height="16.2"/>
	</g>
	<g id="XMLID_526_">
		<rect x="549.5" y="255.1" fill="#9ECFEF" width="1.8" height="12.7"/>
	</g>
	<g id="XMLID_551_">
		<path fill="#FFFFFF" d="M553.8,232.5c0,1-0.8,1.8-1.8,1.8l0,0c-1,0-1.8-0.8-1.8-1.8v-1.8c0-1,0.8-1.8,1.8-1.8l0,0
			c1,0,1.8,0.8,1.8,1.8V232.5z"/>
	</g>
	<g id="XMLID_550_">
		<path id="XMLID_1153_" fill="#0686D8" d="M552,235.3c-1.6,0-2.9-1.3-2.9-2.9v-1.8c0-1.6,1.3-2.9,2.9-2.9s2.9,1.3,2.9,2.9v1.8
			C554.8,234.1,553.5,235.3,552,235.3z M552,229.9c-0.4,0-0.8,0.4-0.8,0.8v1.8c0,0.4,0.4,0.8,0.8,0.8c0.4,0,0.8-0.4,0.8-0.8v-1.8
			C552.7,230.3,552.4,229.9,552,229.9z"/>
	</g>
	<g id="XMLID_556_">
		<path fill="#FFFFFF" d="M523.4,232.5c0,1-0.8,1.8-1.8,1.8l0,0c-1,0-1.8-0.8-1.8-1.8v-1.8c0-1,0.8-1.8,1.8-1.8l0,0
			c1,0,1.8,0.8,1.8,1.8V232.5z"/>
	</g>
	<g id="XMLID_498_">
		<path id="XMLID_1150_" fill="#0686D8" d="M521.6,235.3c-1.6,0-2.9-1.3-2.9-2.9v-1.8c0-1.6,1.3-2.9,2.9-2.9s2.9,1.3,2.9,2.9v1.8
			C524.5,234.1,523.2,235.3,521.6,235.3z M521.6,229.9c-0.4,0-0.8,0.4-0.8,0.8v1.8c0,0.4,0.4,0.8,0.8,0.8c0.4,0,0.8-0.4,0.8-0.8
			v-1.8C522.4,230.3,522.1,229.9,521.6,229.9z"/>
	</g>
	<g id="XMLID_478_">
		<path fill="#5FB0E5" d="M550.6,231.8v-9.3c0-7.5-6.2-13.7-13.7-13.7h-0.7c-7.5,0-13.7,6.2-13.7,13.7v9.3H550.6z"/>
	</g>
	<g id="XMLID_517_">
		<circle fill="#5FB0E5" cx="555" cy="250.3" r="1"/>
	</g>
	<g id="XMLID_513_">
		<circle fill="#5FB0E5" cx="518.9" cy="248.4" r="1"/>
	</g>
	<g id="XMLID_512_">
		<circle fill="#5FB0E5" cx="562.7" cy="234.3" r="1.3"/>
	</g>
	<g id="XMLID_511_">
		<circle fill="#5FB0E5" cx="512" cy="261.2" r="1.3"/>
	</g>
	<g id="XMLID_510_">
		<circle fill="#5FB0E5" cx="564" cy="259.9" r="1.9"/>
	</g>
	<g id="XMLID_509_">
		<circle fill="#5FB0E5" cx="512" cy="227.6" r="1.9"/>
	</g>
	<g id="XMLID_507_">
		<path id="XMLID_1149_" fill="#0686D8" d="M554.6,267.8h-2.1v-2.7c0-8.6-7-15.7-15.7-15.7c-3.7,0-7.4,1.4-10.2,3.8l-1.4-1.6
			c3.2-2.8,7.3-4.3,11.5-4.3c9.8,0,17.7,8,17.7,17.7V267.8z"/>
	</g>
	<g id="XMLID_506_">
		<path id="XMLID_1148_" fill="#0686D8" d="M523,257.7l-1.8-1c0.5-1,1.1-1.9,1.8-2.8l1.6,1.3C524,256,523.5,256.9,523,257.7z"/>
	</g>
	<g id="XMLID_505_">
		<path id="XMLID_1147_" fill="#0686D8" d="M521.2,267.8h-2.1v-2.7c0-1.4,0.2-2.7,0.5-4.1l2,0.5c-0.3,1.2-0.4,2.4-0.4,3.6V267.8z"/>
	</g>
	<g id="XMLID_500_">
		<path fill="#FFFFFF" d="M540.2,251.5v-7.7c0-2-1.6-3.6-3.6-3.6l0,0c-2,0-3.6,1.6-3.6,3.6v7.7l3.6,5.3L540.2,251.5z"/>
	</g>
	<g id="XMLID_493_">
		<path id="XMLID_1144_" fill="#0686D8" d="M536.6,258.6l-4.7-6.8v-8c0-2.6,2.1-4.7,4.7-4.7s4.7,2.1,4.7,4.7v8L536.6,258.6z
			 M533.9,251.2l2.6,3.8l2.6-3.8v-7.4c0-1.4-1.2-2.6-2.6-2.6c-1.4,0-2.6,1.2-2.6,2.6V251.2z"/>
	</g>
	<g id="XMLID_502_">
		<path fill="#FFFFFF" d="M550.6,227.2v5.7c0,7.7-6.3,14-14,14l0,0c-7.7,0-14-6.3-14-14v-5.7l9.4-3.5c0.2,0,1.8-1.5,2-1.7l2.6-5.8
			l1.3,1.5c1.9,4,3.9,6.5,6.2,6.7L550.6,227.2z"/>
	</g>
	<g id="XMLID_501_">
		<path id="XMLID_1143_" fill="#0686D8" d="M536.6,248c-8.3,0-15.1-6.8-15.1-15.1v-8.5h2.1v8.5c0,7.2,5.8,13,13,13
			c7.2,0,13-5.8,13-13v-11.2h2.1V233C551.6,241.3,544.9,248,536.6,248z"/>
	</g>
	<g id="XMLID_494_">
		<polygon id="XMLID_1142_" fill="#0686D8" points="539,237 535.8,237 535.8,234.9 536.9,234.9 536.9,227.8 539,227.8 		"/>
	</g>
	<g id="XMLID_491_">
		<path id="XMLID_1141_" fill="#0686D8" d="M551.6,231.8h-2.1v-9.3c0-7-5.7-12.6-12.6-12.6h-0.7c-7,0-12.6,5.7-12.6,12.6v9.3h-2.1
			v-9.3c0-8.1,6.6-14.7,14.7-14.7h0.7c8.1,0,14.7,6.6,14.7,14.7V231.8z"/>
	</g>
	<g id="XMLID_492_">
		<path id="XMLID_1140_" fill="#0686D8" d="M523.4,228.2l-0.8-1.9l6.6-2.7c3.7-1.5,6.1-5.1,6.1-9.1h2.1c0,4.8-2.9,9.2-7.4,11
			L523.4,228.2z"/>
	</g>
	<g id="XMLID_499_">
		<path id="XMLID_1139_" fill="#0686D8" d="M549.7,228.2l-6.6-2.7c-4.5-1.9-7.4-6.2-7.4-11h2.1c0,4,2.4,7.6,6.1,9.1l6.6,2.7
			L549.7,228.2z"/>
	</g>
	<g id="XMLID_559_">
		<path id="XMLID_1138_" fill="#0686D8" d="M542.2,230.4c-1.1,0-2.1-0.4-2.9-1.2l1.5-1.5c0.7,0.7,2,0.7,2.8,0l1.5,1.5
			C544.3,230,543.3,230.4,542.2,230.4z"/>
	</g>
	<g id="XMLID_495_">
		<path id="XMLID_1137_" fill="#0686D8" d="M531.2,230.4c-1.1,0-2.1-0.4-2.9-1.2l1.5-1.5c0.7,0.7,2,0.7,2.8,0l1.5,1.5
			C533.3,230,532.3,230.4,531.2,230.4z"/>
	</g>
	<g id="XMLID_562_">
		<polygon id="XMLID_1136_" fill="#0686D8" points="541.1,242.2 532,242.2 530.2,239.8 531.8,238.6 533,240.2 540.2,240.2 
			541.8,238.5 543.3,239.9 		"/>
	</g>
</g>
</svg>
