<?xml version="1.0" encoding="utf-8"?>
<!-- Generator: Adobe Illustrator 18.0.0, SVG Export Plug-In . SVG Version: 6.00 Build 0)  -->
<!DOCTYPE svg PUBLIC "-//W3C//DTD SVG 1.1//EN" "http://www.w3.org/Graphics/SVG/1.1/DTD/svg11.dtd">
<svg version="1.1" id="objects" xmlns="http://www.w3.org/2000/svg" xmlns:xlink="http://www.w3.org/1999/xlink" x="0px" y="0px"
	 viewBox="0 0 688.9 448" enable-background="new 0 0 688.9 448" xml:space="preserve">
<g>
	<path fill-rule="evenodd" clip-rule="evenodd" fill="#FFDECC" d="M404.9,129.8c-42.9,18.8-55.8,28.8-60.9,33.4
		c-7.8,6.9-12.2,32.8-16.8,54.8h97.1h97.1c-4.6-22-9-47.8-16.8-54.8c-5.1-4.5-17.5-14.3-60.4-33.1L404.9,129.8z"/>
	<path fill-rule="evenodd" clip-rule="evenodd" fill="#0686D8" d="M404.9,129.8c-42.9,18.8-55.8,28.8-60.9,33.4
		c-7.8,6.9-12.2,32.8-16.8,54.8h97.1h97.1c-4.6-22-9-47.8-16.8-54.8c-5.1-4.5-17.5-14.3-60.4-33.1L404.9,129.8z"/>
	<path fill-rule="evenodd" clip-rule="evenodd" fill="#D2E9F7" d="M403.5,92.3v31.9v15.7c11.5,13.6,30.2,14,41.7,0v-15.7V92.3
		C445.2,66.6,403.5,66.6,403.5,92.3z"/>
	<path fill-rule="evenodd" clip-rule="evenodd" fill="#D2E9F7" d="M380.9,62.4c3.7-1.2,8.3,3,10.4,9.3c2.1,6.3,0.8,12.5-2.9,13.7
		c-3.7,1.2-8.3-3-10.4-9.3C375.9,69.7,377.2,63.6,380.9,62.4z"/>
	<path fill-rule="evenodd" clip-rule="evenodd" fill="#D2E9F7" d="M467.6,62.4c-3.7-1.2-8.3,3-10.4,9.3c-2.1,6.3-0.8,12.5,2.9,13.7
		c3.7,1.2,8.3-3,10.4-9.3C472.6,69.7,471.3,63.6,467.6,62.4z"/>
	<path fill-rule="evenodd" clip-rule="evenodd" fill="#FFFFFF" d="M403.5,124.2l-1.8,7.1l5.1,36.9l17.7-17.9L403.5,124.2z"/>
	<path opacity="0.2" d="M403.5,115.3v1.5c0,0,10.6,12.6,20.8,13.1c10.2,0.5,20.9-12.2,20.9-12.2v-2.3"/>
	<g>
		<path fill-rule="evenodd" clip-rule="evenodd" fill="#D2E9F7" d="M424.4,6.9c-64.1,0-39.5,87.8-35.4,94.6
			c4.6,7.4,25,23.8,35.4,23.8c10.4,0,30.7-16.4,35.4-23.8C463.9,94.7,488.5,6.9,424.4,6.9z"/>
		<path fill="#5FB0E5" d="M469.9,67c3.3-16.3,1.2-54.4-11.5-53.1c-11.8-12-53-14.2-64.3-1.3c-25.8,5-13.8,54.6-13.8,54.6
			c0.8,4.8,1.9,9.2,3.1,13c1.7-0.1,3.5-0.2,5.2-0.3c-1.9-3.4-3.4-6.9-4-9.5c-0.3-1.5-1.1-6.8-1-8c0.4-8.9,6.8-34.9,17.9-37
			c4.3-0.8,15.2,9,22.3,8.9c7.5-0.2,16.8-10,21.7-9.4c11.6,1.6,21.4,25.4,21.3,37c0,1.5-1.9,10.3-4.7,16.6c1.9-0.1,3.7-0.2,5.6-0.3
			C468.4,74.9,469.3,71.1,469.9,67L469.9,67z"/>
	</g>
	<path fill-rule="evenodd" clip-rule="evenodd" fill="#FFFFFF" d="M445.2,124.2l1.4,7l-4.8,37.4l-17.4-18.3L445.2,124.2z"/>
	<polyline opacity="5.000000e-002" points="403.5,124.2 424.4,150.2 445.2,124.2 445.2,123.5 424.4,149.5 403.5,123.5 403.5,124.2 	
		"/>
	<polygon opacity="0.1" fill-rule="evenodd" clip-rule="evenodd" points="420.4,167.7 428.2,167.7 428.3,168 420.4,168 	"/>
	<g>
		<path fill-rule="evenodd" clip-rule="evenodd" fill="#5FB0E5" d="M425.9,91c-0.9,0-1.6,1.3-1.6,1.3s-0.7-1.3-1.6-1.3
			c-3.7,0-18.7,1.5-23.1,7.1c0,0,21.3-0.4,22.5-0.7c1.2-0.3,2.2-2.7,2.2-2.7s1,2.3,2.2,2.7c1.2,0.3,22.5,0.7,22.5,0.7
			C444.7,92.5,429.6,91,425.9,91z"/>
	</g>
</g>
<g>
	<path fill-rule="evenodd" clip-rule="evenodd" fill="#FFDECC" d="M234.9,129.8c-42.9,18.8-55.8,28.8-60.9,33.4
		c-7.8,6.9-12.2,32.8-16.8,54.8h97.1h97.1c-4.6-22-9-47.8-16.8-54.8c-5.1-4.5-17.5-14.3-60.4-33.1L234.9,129.8z"/>
	<path fill-rule="evenodd" clip-rule="evenodd" fill="#5FB0E5" d="M234.9,129.8c-42.9,18.8-55.8,28.8-60.9,33.4
		c-7.8,6.9-12.2,32.8-16.8,54.8h97.1h97.1c-4.6-22-9-47.8-16.8-54.8c-5.1-4.5-17.5-14.3-60.4-33.1L234.9,129.8z"/>
	<path fill-rule="evenodd" clip-rule="evenodd" fill="#D2E9F7" d="M233.5,92.3v31.9v15.7c11.5,13.6,30.2,14,41.7,0v-15.7V92.3
		C275.2,66.6,233.5,66.6,233.5,92.3z"/>
	<path fill-rule="evenodd" clip-rule="evenodd" fill="#D2E9F7" d="M210.9,62.4c3.7-1.2,8.3,3,10.4,9.3c2.1,6.3,0.8,12.5-2.9,13.7
		c-3.7,1.2-8.3-3-10.4-9.3C205.9,69.7,207.2,63.6,210.9,62.4z"/>
	<path fill-rule="evenodd" clip-rule="evenodd" fill="#D2E9F7" d="M297.6,62.4c-3.7-1.2-8.3,3-10.4,9.3c-2.1,6.3-0.8,12.5,2.9,13.7
		c3.7,1.2,8.3-3,10.4-9.3C302.6,69.7,301.3,63.6,297.6,62.4z"/>
	<path opacity="0.2" d="M233.5,115.3v1.5c0,0,10.6,12.6,20.8,13.1c10.2,0.5,20.9-12.2,20.9-12.2v-2.3"/>
	<g>
		<path fill-rule="evenodd" clip-rule="evenodd" fill="#D2E9F7" d="M254.4,6.9c-64.1,0-39.5,87.8-35.4,94.6
			c4.6,7.4,25,23.8,35.4,23.8c10.4,0,30.7-16.4,35.4-23.8C293.9,94.7,318.5,6.9,254.4,6.9z"/>
		<path fill="#0686D8" d="M283.1,8.9c-21.7-17-55.1-6.9-65.2,7.3c-12.6,17.8-8.2,44.8-5.2,65c0,0,0-0.1,0-0.1c0,0.2,0.1,0.4,0.1,0.6
			c0,0.2,0.4,0.6,0.5,0.8c0.1,0.2,0.9,0,1.2-0.1c0.1,0,0.1-0.2,0.1-0.3c0.1-1.8,0-5.3,0-5.4c-0.2-2.8-0.8-5.5-1.3-8.2
			c2-12.8,8-15.5,11.2-30.9c0.7-1,1.4-2,2.1-3c0.9-1.1,1.7-2.2,2.8-3.2c0.5-0.3,1.1-0.7,1.6-1.1c11.7-4.3,23.7,0.9,34.7,5.3
			c4.2,1.7,4.8-5.8,9.5-6.1c2-0.2,6.1,6.6,7.7,6.4c16.5-1.9,9.6,23.1,12.2,34.7c-0.4,2-0.7,4-0.9,6.1c0,0-0.1,3.6,0,5.4
			c0,0.1,0,0.2,0.1,0.3c0.3,0.1,1,0.3,1.2,0.1c0.1-0.1,0.4-0.6,0.5-0.8c0.2-0.8,0.2-1.4,0.3-2.2c0.1-1,0.3-2.1,0.4-3.2
			C300,63.9,306.2,14.3,283.1,8.9z M250.3,25.7c-0.4-0.1-0.7-0.2-1.1-0.3c0.5,0.1,1.1,0.3,1.6,0.4C250.6,25.7,250.5,25.7,250.3,25.7
			z"/>
	</g>
	<polygon opacity="0.1" fill-rule="evenodd" clip-rule="evenodd" points="250.4,167.7 258.2,167.7 258.3,168 250.4,168 	"/>
	<path fill="#0686D8" d="M266.7,14.8c0,0-18.7-13-35.3-6s-31.3,9.7-35,5c0,0-10.3,21.7,9,33s41.3,2.3,47.7-4.7
		c6.3-7,16.7-18.3,22.3-16C281.1,28.5,266.7,14.8,266.7,14.8z"/>
</g>
<g>
	<path fill-rule="evenodd" clip-rule="evenodd" fill="#FFDECC" d="M139.9,215.8C97,234.6,84.1,244.7,79,249.2
		c-7.8,6.9-12.2,32.8-16.8,54.8h97.1h97.1c-4.6-22-9-47.8-16.8-54.8c-5.1-4.5-17.5-14.3-60.4-33.1L139.9,215.8z"/>
	<path fill-rule="evenodd" clip-rule="evenodd" fill="#EDEDED" d="M139.9,215.8C97,234.6,84.1,244.7,79,249.2
		c-7.8,6.9-12.2,32.8-16.8,54.8h97.1h97.1c-4.6-22-9-47.8-16.8-54.8c-5.1-4.5-17.5-14.3-60.4-33.1L139.9,215.8z"/>
	<path fill-rule="evenodd" clip-rule="evenodd" fill="#D2E9F7" d="M138.5,178.3v31.9v15.7c11.5,13.6,30.2,14,41.7,0v-15.7v-31.9
		C180.2,152.6,138.5,152.6,138.5,178.3z"/>
	<path fill-rule="evenodd" clip-rule="evenodd" fill="#D2E9F7" d="M115.9,148.4c3.7-1.2,8.3,3,10.4,9.3c2.1,6.3,0.8,12.5-2.9,13.7
		c-3.7,1.2-8.3-3-10.4-9.3C110.9,155.7,112.2,149.6,115.9,148.4z"/>
	<path fill-rule="evenodd" clip-rule="evenodd" fill="#D2E9F7" d="M202.6,148.4c-3.7-1.2-8.3,3-10.4,9.3c-2.1,6.3-0.8,12.5,2.9,13.7
		c3.7,1.2,8.3-3,10.4-9.3C207.6,155.7,206.3,149.6,202.6,148.4z"/>
	<path fill-rule="evenodd" clip-rule="evenodd" fill="#0686D8" d="M159.4,236.2c0,0-29.1,6.9-29.1,8.7c0,1.8,11.1,59,11.1,59h39.5
		l4.5-58.8L159.4,236.2z"/>
	<polygon fill-rule="evenodd" clip-rule="evenodd" fill="#5FB0E5" points="138.5,216.4 138.5,225.9 147.5,304 132,304 114.8,269.2 
		131.2,258.3 111.2,248.9 129.6,220.4 	"/>
	<polygon fill-rule="evenodd" clip-rule="evenodd" fill="#0686D8" points="180.2,216.5 180.2,225.9 171,304 186.6,304 203.7,269.2 
		187.4,258.3 207.3,248.9 191,221.3 	"/>
	<path fill-rule="evenodd" clip-rule="evenodd" fill="#5FB0E5" d="M150.4,245.9l5,7.8c2.6,0,5.2,0,7.8,0l5.1-7.8l-8.9-9.7
		L150.4,245.9z"/>
	<polygon fill-rule="evenodd" clip-rule="evenodd" fill="#5FB0E5" points="155.4,253.7 148.2,304 170.4,304 163.2,253.7 	"/>
	<path fill-rule="evenodd" clip-rule="evenodd" fill="#0686D8" d="M138.5,210.2l-1.8,7.1l5.1,36.9l17.7-17.9L138.5,210.2z"/>
	<path opacity="0.2" d="M138.5,201.3v1.5c0,0,10.6,12.6,20.8,13.1c10.2,0.5,20.9-12.2,20.9-12.2v-2.3"/>
	<g>
		<path fill-rule="evenodd" clip-rule="evenodd" fill="#D2E9F7" d="M159.4,92.9c-64.1,0-39.5,87.8-35.4,94.6
			c4.6,7.4,25,23.8,35.4,23.8c10.4,0,30.7-16.4,35.4-23.8C198.9,180.7,223.5,92.9,159.4,92.9z"/>
	</g>
	<path fill-rule="evenodd" clip-rule="evenodd" fill="#0686D8" d="M180.2,210.2l1.4,7l-4.8,37.4l-17.4-18.3L180.2,210.2z"/>
	<polyline opacity="5.000000e-002" points="138.5,210.2 159.4,236.2 180.2,210.2 180.2,209.5 159.4,235.5 138.5,209.5 138.5,210.2 	
		"/>
	<polygon opacity="0.1" fill-rule="evenodd" clip-rule="evenodd" points="155.4,253.7 163.2,253.7 163.3,254 155.4,254 	"/>
	<g>
		<path fill="#0686D8" d="M201.1,157.9c-0.3,1.2-0.7,2.3-0.7,2.3s-5.8,19.6-10.7,25.6c-9.5,11.7-21.9,19-30.4,19.1
			c-8.3,0-20.6-6.6-30.2-18c-3.8-4.5-10.8-25-10.9-26.7c-0.1-1-0.3-2.1-0.5-3.1c-1.3,0-1.3,8.7-1.3,8.7c1.9,10.2,3.3,16.8,7.3,22.4
			c6.4,8.9,24.3,23,35.3,23c10.9,0,28.9-14.1,35.3-23c4-5.6,5.1-13.1,7.3-23.6C201.5,164.5,202.1,158,201.1,157.9z"/>
		<g>
			<path fill-rule="evenodd" clip-rule="evenodd" fill="#0686D8" d="M179,184.1c-1.5-3.1-13.4-7.3-15.6-8.1c-2.2-0.8-3.7,2-3.7,2
				s-1.5-2.8-3.7-2c-2.2,0.8-14.1,5-15.6,8.1c-1.5,3.1-2.2,5.3-2.2,7.4c0,2.1,0,9.7,0,9.7s2.1,0.1,3.3-0.8c1.2-0.9,2.6-3.5,2.6-6.8
				c0-3.3,2.4-5.9,5.3-6.5c3.1-0.6,10.2-1.8,10.2-3.7c0,1.9,7.6,3.3,10.2,3.7c2.9,0.5,5.3,3.2,5.3,6.5c0,3.3,1.4,5.9,2.6,6.8
				c1.2,0.9,3.3,0.8,3.3,0.8s0-7.6,0-9.7C181.2,189.4,180.5,187.2,179,184.1z"/>
		</g>
	</g>
	<path fill-rule="evenodd" clip-rule="evenodd" fill="#5FB0E5" d="M179.7,171.1c0.4,0,0.7,0,1.1-0.1c10.4-0.9,13-5.6,14.2-11.5
		c1.3-6.5,1.4-8.8,3.1-9.4c1.2-0.4,1.5-1.9,1.5-3.6c0-1.7-0.1-1.9-2.1-2.6c-1.6-0.6-10.5-1.4-17.2-0.9l0,1.8
		c5.3-0.3,10.3,0.3,11.8,1.3c3.3,2.2,2.4,12.6-0.5,17.8c-2,3.6-7.1,5.4-11.8,5.5L179.7,171.1z M160.2,146.5
		c-2.3,0.1-11.7-2.7-18.4-3.2c-0.5,0-1-0.1-1.5-0.1l0,1.8c5.4,0.2,11.1,1.5,13,4.4c3.2,4.8-2.5,16.4-7.7,19
		c-1.6,0.8-3.6,1.2-5.8,1.2l0,1.7c9,0,12.4-6.5,13.5-8.7c2.1-4.1,1.7-9.7,6.8-9.7c5.2,0,4.5,5.5,6.3,9.6c1,2.2,3.9,9,13.3,8.7l0-1.6
		c-2.3,0-4.5-0.4-6.1-1.2c-5-2.6-10-14.2-6.5-19c2.1-2.9,7.7-4.2,13.1-4.4l0-1.8c-0.4,0-0.8,0.1-1.2,0.1
		C173,143.7,165.7,146.4,160.2,146.5z M140.3,143.2c-6.6-0.4-15.4,0.5-17,1c-2.1,0.7-2.1,0.9-2.3,2.6c-0.1,1.7,0.1,3.1,1.3,3.6
		c1.6,0.6,1.6,2.9,2.5,9.4c0.8,5.9,3.1,10.6,13.5,11.4c0.5,0,1,0.1,1.5,0.1l0-1.7c-4.8,0-10.1-1.8-11.9-5.5
		c-2.5-5.2-2.9-15.6,0.6-17.8c1.5-0.9,6.5-1.6,11.7-1.4L140.3,143.2z"/>
</g>
<g>
	<path fill-rule="evenodd" clip-rule="evenodd" fill="#0686D8" d="M78.5,198.9c3.9-7.3,35.4-13.7,48.2,12.2
		c12.8,25.8,6.4,34.9,13.4,44c7.1,9.1-9.6,79.7-49.1,79.5c-42.2-0.2-51.5-67.7-43.1-81.4C56.4,239.4,49.1,198.9,78.5,198.9z"/>
	<path fill-rule="evenodd" clip-rule="evenodd" fill="#5FB0E5" d="M109.5,319c-0.4,0.6-35.6,1.1-35.9,1.7
		c-11.1,15.8-34.9,18.7-53.9,22.9C0.8,347.8,0,371.8,0,387.8h184.2c0-16-0.4-39.9-19.7-44.2C145.3,339.3,120,335.5,109.5,319z"/>
	<path fill-rule="evenodd" clip-rule="evenodd" fill="#FFFFFF" d="M110.6,320.6v8.7l-9,58.6H82.4l-8.9-57.9v-9.1c0,0,0-0.1,0-0.1
		c0.4-0.6,35.6-1.1,35.9-1.7C109.9,319.5,110.2,320.1,110.6,320.6z"/>
	<path fill-rule="evenodd" clip-rule="evenodd" fill="#D2E9F7" d="M73.7,281.3v30.3v14.9c9.2,18.9,25.9,19.4,36.9,0v-14.9v-30.3
		C110.6,256.9,73.7,256.9,73.7,281.3z"/>
	<path fill-rule="evenodd" clip-rule="evenodd" fill="#D2E9F7" d="M140.8,260.2c-3.7-1.7-8.9,2.4-11.6,9.1c-2.7,6.7-2,13.5,1.7,15.1
		c3.7,1.7,8.9-2.4,11.6-9.1C145.3,268.6,144.5,261.9,140.8,260.2z"/>
	<path fill-rule="evenodd" clip-rule="evenodd" fill="#D2E9F7" d="M43.5,260.2c3.7-1.7,8.9,2.4,11.6,9.1c2.7,6.7,2,13.5-1.7,15.1
		c-3.7,1.7-8.9-2.4-11.6-9.1C39,268.6,39.8,261.9,43.5,260.2z"/>
	<path opacity="0.2" fill-rule="evenodd" clip-rule="evenodd" d="M73.7,303.8v1.3c0,0,11.6,11.6,18.3,11.6
		c6.7,0,18.6-11.7,18.6-11.7v-1.1H73.7z"/>
	<path fill-rule="evenodd" clip-rule="evenodd" fill="#D2E9F7" d="M92.2,312.6c-11.5,0-35.7-18.9-43.2-46
		c-7.6-27.3,6.7-66.5,43.2-66.5c36.5,0,50.7,39.2,43.2,66.5C127.8,293.7,103.6,312.6,92.2,312.6z"/>
	<path fill-rule="evenodd" clip-rule="evenodd" fill="#0686D8" d="M99.6,234c9,18.8,12.6,24.3,24.5,19.4c11.9-5,9.6,8.9,7.5,18.8
		c10.5-13.4,9.3-26.1,6-39c-3.6-14.2-21.7-35.7-38.7-35.3c-9.2-1-23.2,0.2-38.1,10.9c-26,18.7-17.3,60.8-10.3,65.7
		c-6.8-38.9,9.8-31,21.3-51.4C75.5,214.2,89.8,213.6,99.6,234z"/>
	<polygon fill-rule="evenodd" clip-rule="evenodd" fill="#0686D8" points="82.6,387.8 67,387.8 66,387.8 49.9,373.2 66.2,362.3 
		46.3,352.9 59.5,332.4 64.6,324.4 73.5,320.4 73.5,329.9 82.4,387.8 	"/>
	<polygon fill-rule="evenodd" clip-rule="evenodd" fill="#0686D8" points="117.8,361.6 134.1,372.5 118.1,387.8 117,387.8 
		101.5,387.8 101.6,387.8 110.6,329.2 110.6,319.9 121.5,324.7 126.2,332.8 137.8,352.3 	"/>
</g>
<g>
	<path fill-rule="evenodd" clip-rule="evenodd" fill="#5FB0E5" d="M468.5,111c2.2-7.3,19.5-13.7,26.5,12.2c7.1,25.8,3.5,34.9,7.4,44
		c3.9,9.1-5.3,79.7-27,79.5c-23.2-0.2-28.3-67.7-23.7-81.4C456.3,151.6,452.3,111,468.5,111z"/>
	<path fill-rule="evenodd" clip-rule="evenodd" fill="#5FB0E5" d="M544.9,111c-2.2-7.3-19.5-13.7-26.5,12.2
		c-7.1,25.8-3.5,34.9-7.4,44c-3.9,9.1,5.3,79.7,27,79.5c23.2-0.2,28.3-67.7,23.7-81.4C557.1,151.6,561.1,111,544.9,111z"/>
	<path fill-rule="evenodd" clip-rule="evenodd" fill="#5FB0E5" d="M525.5,217c-0.4,0.6-35.6,1.1-35.9,1.7
		c-11.1,15.8-34.9,18.7-53.9,22.9c-18.9,4.2-19.6,28.2-19.7,44.2h184.2c0-16-0.4-39.9-19.7-44.2C561.3,237.3,536,233.5,525.5,217z"
		/>
	<path fill-rule="evenodd" clip-rule="evenodd" fill="#5FB0E5" d="M526.6,218.6v8.7l-9,58.6h-19.2l-8.9-57.9v-9.1c0,0,0-0.1,0-0.1
		c0.4-0.6,35.6-1.1,35.9-1.7C525.9,217.5,526.2,218.1,526.6,218.6z"/>
	<path fill-rule="evenodd" clip-rule="evenodd" fill="#D2E9F7" d="M489.7,179.3v30.3v14.9c9.2,18.9,25.9,19.4,36.9,0v-14.9v-30.3
		C526.6,154.9,489.7,154.9,489.7,179.3z"/>
	<path fill-rule="evenodd" clip-rule="evenodd" fill="#D2E9F7" d="M556.8,158.2c-3.7-1.7-8.9,2.4-11.6,9.1c-2.7,6.7-2,13.5,1.7,15.1
		c3.7,1.7,8.9-2.4,11.6-9.1C561.3,166.6,560.5,159.9,556.8,158.2z"/>
	<path fill-rule="evenodd" clip-rule="evenodd" fill="#D2E9F7" d="M459.5,158.2c3.7-1.7,8.9,2.4,11.6,9.1c2.7,6.7,2,13.5-1.7,15.1
		c-3.7,1.7-8.9-2.4-11.6-9.1C455,166.6,455.8,159.9,459.5,158.2z"/>
	<path opacity="0.2" fill-rule="evenodd" clip-rule="evenodd" d="M489.7,201.8v1.3c0,0,11.6,11.6,18.3,11.6
		c6.7,0,18.6-11.7,18.6-11.7v-1.1H489.7z"/>
	<path fill-rule="evenodd" clip-rule="evenodd" fill="#D2E9F7" d="M508.2,210.6c-11.5,0-35.7-18.9-43.2-46
		c-7.6-27.3,6.7-66.5,43.2-66.5c36.5,0,50.7,39.2,43.2,66.5C543.8,191.7,519.6,210.6,508.2,210.6z"/>
	<path fill-rule="evenodd" clip-rule="evenodd" fill="#5FB0E5" d="M553.6,131.2c-3.6-14.2-21.7-35.7-38.7-35.3
		c-2.4-0.3-5.2-0.4-8.3-0.2c-3-0.2-5.8-0.1-8.3,0.2c-17-0.4-35.1,21.1-38.7,35.3c-2.9,11.4-4.2,22.6,2.8,34.3c1.2,3.5,2.7,6,4.1,7
		c-1.6-9-1.9-15.4-1.3-20.3c1.3-1.9,3.7-2.5,7.9-0.8c11.9,5,15.5-0.6,24.5-19.4c2.7-5.8,4.9-12.6,9-12.5c4.1,0,6.3,6.8,9,12.5
		c9,18.8,12.6,24.3,24.5,19.4c4.2-1.7,6.6-1.1,7.9,0.8c0.6,4.9,0.2,11.4-1.3,20.3c1.4-1,2.9-3.5,4.1-7
		C557.8,153.8,556.5,142.6,553.6,131.2z"/>
	<polygon fill-rule="evenodd" clip-rule="evenodd" fill="#EDEDED" points="498.6,285.8 483,285.8 482,285.8 465.9,271.2 
		482.2,260.3 462.3,250.9 475.5,230.4 480.6,222.4 489.5,218.4 489.5,227.9 498.4,285.8 	"/>
	<polygon fill-rule="evenodd" clip-rule="evenodd" fill="#EDEDED" points="533.8,259.6 550.1,270.5 534.1,285.8 533,285.8 
		517.5,285.8 517.6,285.8 526.6,227.2 526.6,217.9 537.5,222.7 542.2,230.8 553.8,250.3 	"/>
</g>
<g>
	<path fill-rule="evenodd" clip-rule="evenodd" fill="#FFDECC" d="M572.4,299.8c-42.9,18.8-55.8,28.8-60.9,33.4
		c-7.8,6.9-12.2,32.8-16.8,54.8h97.1h97.1c-4.6-22-9-47.8-16.8-54.8c-5.1-4.5-17.5-14.3-60.4-33.1L572.4,299.8z"/>
	<path fill-rule="evenodd" clip-rule="evenodd" fill="#76D7DD" d="M572.4,299.8c-42.9,18.8-55.8,28.8-60.9,33.4
		c-7.8,6.9-12.2,32.8-16.8,54.8h97.1h97.1c-4.6-22-9-47.8-16.8-54.8c-5.1-4.5-17.5-14.3-60.4-33.1L572.4,299.8z"/>
	<path fill-rule="evenodd" clip-rule="evenodd" fill="#D2E9F7" d="M570.9,262.3v31.9v15.7c11.5,13.6,30.2,14,41.7,0v-15.7v-31.9
		C612.6,236.6,570.9,236.6,570.9,262.3z"/>
	<path fill-rule="evenodd" clip-rule="evenodd" fill="#D2E9F7" d="M548.3,232.4c3.7-1.2,8.3,3,10.4,9.3c2.1,6.3,0.8,12.5-2.9,13.7
		c-3.7,1.2-8.3-3-10.4-9.3C543.4,239.7,544.6,233.6,548.3,232.4z"/>
	<path fill-rule="evenodd" clip-rule="evenodd" fill="#D2E9F7" d="M635.1,232.4c-3.7-1.2-8.3,3-10.4,9.3c-2.1,6.3-0.8,12.5,2.9,13.7
		c3.7,1.2,8.3-3,10.4-9.3C640,239.7,638.7,233.6,635.1,232.4z"/>
	<path fill-rule="evenodd" clip-rule="evenodd" fill="#0686D8" d="M582.8,329.9l5,7.8c2.6,0,5.2,0,7.8,0l5.1-7.8l-8.9-9.7
		L582.8,329.9z"/>
	<polygon fill-rule="evenodd" clip-rule="evenodd" fill="#0686D8" points="587.9,337.7 580.7,388 602.9,388 595.7,337.7 	"/>
	<path fill-rule="evenodd" clip-rule="evenodd" fill="#EDEDED" d="M570.9,294.2l-1.8,7.1l5.1,36.9l17.7-17.9L570.9,294.2z"/>
	<path opacity="0.2" d="M570.9,285.3v1.5c0,0,10.6,12.6,20.8,13.1c10.2,0.5,20.9-12.2,20.9-12.2v-2.3"/>
	<g>
		<path fill-rule="evenodd" clip-rule="evenodd" fill="#D2E9F7" d="M591.8,176.9c-64.1,0-39.5,87.8-35.4,94.6
			c4.6,7.4,25,23.8,35.4,23.8c10.4,0,30.7-16.4,35.4-23.8C631.4,264.7,655.9,176.9,591.8,176.9z"/>
		<path fill="#0686D8" d="M563.8,178.9c21.7-17,64.4-14.6,74.5-0.4c-4.1,14.3-1.1,52.5-4.1,72.8c0,0,0-0.1,0-0.1
			c0,0.2-0.1,0.4-0.1,0.6c0,0.2-0.4,0.6-0.5,0.8c-0.1,0.2-0.9,0-1.2-0.1c-0.1,0-0.1-0.2-0.1-0.3c-0.1-1.8,0-5.3,0-5.4
			c0.2-2.8,0.8-5.5,1.3-8.2c-2-12.8-8-15.5-11.2-30.9c-0.7-1-1.4-2-2.1-3c-0.9-1.1-1.7-2.2-2.8-3.2c-0.5-0.3-1.1-0.7-1.6-1.1
			c-11.7-4.3-11.3-1.1-22.3,3.4c-4.2,1.7-16,5-20.7,4.7c-2-0.2-8.8-0.8-9-2.5c-8.7,13.5-9.6,23.1-12.2,34.7c0.4,2,0.7,4,0.9,6.1
			c0,0,0.1,3.6,0,5.4c0,0.1,0,0.2-0.1,0.3c-0.3,0.1-1,0.3-1.2,0.1c-0.1-0.1-0.4-0.6-0.5-0.8c-0.2-0.8-0.2-1.4-0.3-2.2
			c-0.1-1-0.3-2.1-0.4-3.2C546.9,233.9,540.8,184.3,563.8,178.9z M596.7,195.7c0.4-0.1,0.7-0.2,1.1-0.3c-0.5,0.1-1.1,0.3-1.6,0.4
			C596.3,195.7,596.5,195.7,596.7,195.7z"/>
	</g>
	<path fill-rule="evenodd" clip-rule="evenodd" fill="#EDEDED" d="M612.6,294.2l1.4,7l-4.8,37.4l-17.4-18.3L612.6,294.2z"/>
	<polyline opacity="5.000000e-002" points="570.9,294.2 591.9,320.2 612.6,294.2 612.6,293.5 591.9,319.5 570.9,293.5 570.9,294.2 	
		"/>
	<polygon opacity="0.1" fill-rule="evenodd" clip-rule="evenodd" points="587.9,337.7 595.7,337.7 595.7,338 587.8,338 	"/>
</g>
<g>
	<path fill-rule="evenodd" clip-rule="evenodd" fill="#FFDECC" d="M318.4,219.8c-42.9,18.8-55.8,28.8-60.9,33.4
		c-7.8,6.9-12.2,32.8-16.8,54.8h97.1h97.1c-4.6-22-9-47.8-16.8-54.8c-5.1-4.5-17.5-14.3-60.4-33.1L318.4,219.8z"/>
	<path fill-rule="evenodd" clip-rule="evenodd" fill="#5FB0E5" d="M318.4,219.8c-42.9,18.8-55.8,28.8-60.9,33.4
		c-7.8,6.9-12.2,32.8-16.8,54.8h97.1h97.1c-4.6-22-9-47.8-16.8-54.8c-5.1-4.5-17.5-14.3-60.4-33.1L318.4,219.8z"/>
	<path fill-rule="evenodd" clip-rule="evenodd" fill="#D2E9F7" d="M316.9,182.3v31.9v15.7c11.5,13.6,30.2,14,41.7,0v-15.7v-31.9
		C358.6,156.6,316.9,156.6,316.9,182.3z"/>
	<path fill-rule="evenodd" clip-rule="evenodd" fill="#D2E9F7" d="M294.3,152.4c3.7-1.2,8.3,3,10.4,9.3c2.1,6.3,0.8,12.5-2.9,13.7
		c-3.7,1.2-8.3-3-10.4-9.3C289.4,159.7,290.6,153.6,294.3,152.4z"/>
	<path fill-rule="evenodd" clip-rule="evenodd" fill="#D2E9F7" d="M381.1,152.4c-3.7-1.2-8.3,3-10.4,9.3c-2.1,6.3-0.8,12.5,2.9,13.7
		c3.7,1.2,8.3-3,10.4-9.3C386,159.7,384.7,153.6,381.1,152.4z"/>
	<path fill-rule="evenodd" clip-rule="evenodd" fill="#0686D8" d="M328.8,249.9l5,7.8c2.6,0,5.2,0,7.8,0l5.1-7.8l-8.9-9.7
		L328.8,249.9z"/>
	<polygon fill-rule="evenodd" clip-rule="evenodd" fill="#0686D8" points="333.9,257.7 326.7,308 348.9,308 341.7,257.7 	"/>
	<path fill-rule="evenodd" clip-rule="evenodd" fill="#EDEDED" d="M316.9,214.2l-1.8,7.1l5.1,36.9l17.7-17.9L316.9,214.2z"/>
	<path opacity="0.2" d="M316.9,205.3v1.5c0,0,10.6,12.6,20.8,13.1c10.2,0.5,20.9-12.2,20.9-12.2v-2.3"/>
	<g>
		<path fill-rule="evenodd" clip-rule="evenodd" fill="#D2E9F7" d="M337.8,96.9c-64.1,0-39.5,87.8-35.4,94.6
			c4.6,7.4,25,23.8,35.4,23.8c10.4,0,30.7-16.4,35.4-23.8C377.4,184.7,401.9,96.9,337.8,96.9z"/>
		<path fill="#0686D8" d="M367.4,98.9c-22.1-19.5-65.4,5.4-75.5,19.6c4.1,14.3,2.1,32.5,5.1,52.8c0,0,0-0.1,0-0.1
			c0,0.2,0.1,0.4,0.1,0.6c0,0.2,0.4,0.6,0.5,0.8c0.1,0.2,0.9,0,1.2-0.1c0.1,0,0.1-0.2,0.1-0.3c0.1-1.8,0-5.3,0-5.4
			c-0.2-2.8,0.2-5.6-0.2-8.4c2-12.8,0.4-13.3,7.4-26.1c0.6-1.1,4.3-5.4,4.8-5.8c11.7-4.3,15.7,2.8,26.7,7.3
			c4.2,1.7,10.5,1.8,15.2,1.8c7.3,0,14.3-8,14.4-9.6c8.7,13.5,9.6,23.1,12.2,34.7c-0.3,2-0.7,4-0.9,6.1c0,0-0.1,3.6,0,5.4
			c0,0.1,0,0.2,0.1,0.3c0.3,0.1,1,0.3,1.2,0.1c0.1-0.1,0.4-0.6,0.5-0.8c0.2-0.8,0.2-1.4,0.3-2.2c0.1-1,0.3-2.1,0.4-3.2
			C384.3,153.9,390.5,104.3,367.4,98.9z M334.6,115.7c-0.4-0.1-0.7-0.2-1.1-0.3c0.5,0.1,1.1,0.3,1.6,0.4
			C334.9,115.7,334.7,115.7,334.6,115.7z"/>
		<path fill="#0686D8" d="M129.3,89.4c22.6-19.5,67,5.4,77.3,19.6c-4.2,14.3-2.1,32.5-5.2,52.8c0,0,0-0.1,0-0.1
			c0,0.2-0.1,0.4-0.1,0.6c0,0.2-0.4,0.6-0.5,0.8c-0.1,0.2-0.9,0-1.2-0.1c-0.1,0-0.1-0.2-0.1-0.3c-0.1-1.8,0-5.3,0-5.4
			c0.2-2.8-0.2-5.6,0.3-8.4c-2.1-12.8-0.4-13.3-7.6-26.1c-0.6-1.1-4.4-5.4-5-5.8c-11.9-4.3-16.1,2.8-27.4,7.3
			c-4.3,1.7-10.8,1.8-15.6,1.8c-7.4,0-14.6-8-14.8-9.6c-8.9,13.5-9.8,23.1-12.5,34.7c0.4,2,0.7,4,0.9,6.1c0,0,0.1,3.6,0,5.4
			c0,0.1,0,0.2-0.1,0.3c-0.3,0.1-1.1,0.3-1.2,0.1c-0.1-0.1-0.4-0.6-0.5-0.8c-0.2-0.8-0.2-1.4-0.3-2.2c-0.1-1-0.3-2.1-0.5-3.2
			C112,144.4,105.7,94.7,129.3,89.4z M163,106.1c0.4-0.1,0.7-0.2,1.1-0.3c-0.5,0.1-1.1,0.3-1.6,0.4
			C162.6,106.2,162.8,106.1,163,106.1z"/>
	</g>
	<path fill-rule="evenodd" clip-rule="evenodd" fill="#EDEDED" d="M358.6,214.2l1.4,7l-4.8,37.4l-17.4-18.3L358.6,214.2z"/>
	<polyline opacity="5.000000e-002" points="316.9,214.2 337.9,240.2 358.6,214.2 358.6,213.5 337.9,239.5 316.9,213.5 316.9,214.2 	
		"/>
	<polygon opacity="0.1" fill-rule="evenodd" clip-rule="evenodd" points="333.9,257.7 341.7,257.7 341.7,258 333.8,258 	"/>
</g>
<g>
	<path fill-rule="evenodd" clip-rule="evenodd" fill="#0686D8" d="M451.2,229.4c4.5-7.9,40.8-14.9,55.5,13.2
		c14.8,28.1,7.3,37.9,15.5,47.8c8.2,9.9,0.5,32.6-5.2,34.6c-5.7,2-3.4,9.9-0.6,13.2c11.8,14.4-5.3,38.7-50.8,38.5
		c-48.7-0.3-58.2-28.5-45.7-37.4c4.1-2.9,5.6-8.4,1.2-13.3c-4.5-4.9-14.7-23-5-37.9C425.7,273.5,417.2,229.4,451.2,229.4z"/>
	<path fill-rule="evenodd" clip-rule="evenodd" fill="#5FB0E5" d="M485.5,345c-0.4,0.6-35.6,1.1-35.9,1.7
		c-11.1,15.8-34.9,22.7-53.9,26.9c-18.9,4.2-19.6,28.2-19.7,44.2h184.2c0-16-0.4-39.9-19.7-44.2C521.3,369.3,496,361.5,485.5,345z"
		/>
	<path fill-rule="evenodd" clip-rule="evenodd" fill="#D2E9F7" d="M449.7,311.3v30.3v14.9c9.2,18.9,25.9,19.4,36.9,0v-14.9v-30.3
		C486.6,286.9,449.7,286.9,449.7,311.3z"/>
	<path fill-rule="evenodd" clip-rule="evenodd" fill="#D2E9F7" d="M516.8,290.2c-3.7-1.7-8.9,2.4-11.6,9.1c-2.7,6.7-2,13.5,1.7,15.1
		c3.7,1.7,8.9-2.4,11.6-9.1C521.3,298.6,520.5,291.9,516.8,290.2z"/>
	<path fill-rule="evenodd" clip-rule="evenodd" fill="#D2E9F7" d="M419.5,290.2c3.7-1.7,8.9,2.4,11.6,9.1c2.7,6.7,2,13.5-1.7,15.1
		c-3.7,1.7-8.9-2.4-11.6-9.1C415,298.6,415.8,291.9,419.5,290.2z"/>
	<path opacity="0.2" fill-rule="evenodd" clip-rule="evenodd" d="M449.7,333.8v1.3c0,0,11.6,11.6,18.3,11.6
		c6.7,0,18.6-11.7,18.6-11.7v-1.1H449.7z"/>
	<path fill-rule="evenodd" clip-rule="evenodd" fill="#D2E9F7" d="M468.2,342.6c-11.5,0-35.7-18.9-43.2-46
		c-7.6-27.3,6.7-66.5,43.2-66.5c36.5,0,50.7,39.2,43.2,66.5C503.8,323.7,479.6,342.6,468.2,342.6z"/>
	<path fill-rule="evenodd" clip-rule="evenodd" fill="#0686D8" d="M459.6,264c-9,18.8-12.6,24.3-24.5,19.4c-11.9-5-9.6,8.9-7.5,18.8
		c-10.5-13.4-9.3-26.1-6-39c3.6-14.2,21.7-35.7,38.7-35.3c9.2-1,23.2,0.2,38.1,10.9c26,18.7,17.3,60.8,10.3,65.7
		c6.8-38.9-9.8-31-21.3-51.4C483.7,244.2,469.3,243.6,459.6,264z"/>
	<rect x="465.7" y="371.1" fill-rule="evenodd" clip-rule="evenodd" fill="#FFFFFF" width="3.8" height="46.7"/>
	<g>
		<polygon fill-rule="evenodd" clip-rule="evenodd" fill="#FFFFFF" points="449.7,346.6 436.5,358.7 453.2,384.7 467.7,371 		"/>
		<polygon fill-rule="evenodd" clip-rule="evenodd" fill="#FFFFFF" points="486.6,346.5 499.8,359.1 482.2,384.7 467.7,371 		"/>
	</g>
	<path fill-rule="evenodd" clip-rule="evenodd" fill="#5FB0E5" d="M488.2,310.7c0.4,0,0.7,0,1.1-0.1c10.5-0.9,13.1-5.6,14.2-11.5
		c1.3-6.5,1.4-8.8,3.1-9.4c1.2-0.4,1.5-1.9,1.5-3.6c0-1.7-0.1-1.9-2.1-2.6c-1.6-0.6-10.6-1.4-17.3-1l0,1.8
		c5.3-0.3,10.4,0.3,11.9,1.3c3.4,2.2,2.4,12.7-0.5,17.9c-2,3.6-7.2,5.5-11.9,5.5L488.2,310.7z M468.6,286
		c-2.3,0.1-11.8-2.7-18.5-3.3c-0.5,0-1-0.1-1.5-0.1l0,1.8c5.5,0.2,11.1,1.5,13.1,4.4c3.2,4.8-2.5,16.5-7.7,19.1
		c-1.6,0.8-3.6,1.2-5.8,1.2l0,1.7c9.1,0,12.4-6.5,13.5-8.7c2.1-4.1,1.7-9.8,6.9-9.8c5.2,0,4.5,5.5,6.4,9.6c1,2.2,3.9,9,13.3,8.7
		l0-1.7c-2.3,0-4.5-0.4-6.1-1.2c-5-2.6-10-14.3-6.5-19.1c2.1-2.9,7.7-4.2,13.1-4.5l0-1.8c-0.4,0-0.8,0.1-1.2,0.1
		C481.4,283.2,474,285.9,468.6,286z M448.6,282.7c-6.6-0.4-15.4,0.5-17.1,1c-2.1,0.7-2.2,0.9-2.3,2.6c-0.1,1.7,0.1,3.2,1.3,3.6
		c1.7,0.6,1.6,2.9,2.5,9.4c0.8,5.9,3.1,10.6,13.5,11.5c0.5,0,1,0.1,1.6,0.1l0-1.7c-4.8,0-10.1-1.8-11.9-5.5
		c-2.5-5.2-2.9-15.7,0.6-17.9c1.5-0.9,6.5-1.6,11.7-1.4L448.6,282.7z"/>
	<polygon opacity="5.000000e-002" fill-rule="evenodd" clip-rule="evenodd" points="449.7,346.6 467.7,371 486.6,346.5 486.6,346 
		467.7,370.3 449.7,346 	"/>
</g>
<g>
	<path fill-rule="evenodd" clip-rule="evenodd" fill="#FFDECC" d="M208.5,334.3c-42.9,18.8-55.8,28.9-60.9,33.4
		c-7.8,6.9-12.2,32.8-16.8,54.8h97.1H325c-4.6-22-9-47.8-16.8-54.8c-5.1-4.5-17.5-14.3-60.4-33.1L208.5,334.3z"/>
	<path fill-rule="evenodd" clip-rule="evenodd" fill="#0686D8" d="M208.5,334.3c-42.9,18.8-55.8,28.9-60.9,33.4
		c-7.8,6.9-12.2,32.8-16.8,54.8h97.1H325c-4.6-22-9-47.8-16.8-54.8c-5.1-4.5-17.5-14.3-60.4-33.1L208.5,334.3z"/>
	<path fill-rule="evenodd" clip-rule="evenodd" fill="#D2E9F7" d="M207,296.8v31.9v15.7c11.5,13.6,30.2,14,41.7,0v-15.7v-31.9
		C248.7,271.1,207,271.1,207,296.8z"/>
	
		<ellipse transform="matrix(-0.3127 -0.9498 0.9498 -0.3127 -17.3449 544.1804)" fill-rule="evenodd" clip-rule="evenodd" fill="#D2E9F7" cx="188.2" cy="278.4" rx="12.1" ry="7"/>
	
		<ellipse transform="matrix(0.3129 -0.9498 0.9498 0.3129 -80.6647 445.2321)" fill-rule="evenodd" clip-rule="evenodd" fill="#D2E9F7" cx="267.4" cy="278.4" rx="12.1" ry="7"/>
	<path fill-rule="evenodd" clip-rule="evenodd" fill="#FFFFFF" d="M228,354.7c0,0-29.1,6.9-29.1,8.7c0,1.8,11.1,59,11.1,59h39.5
		l4.5-58.8L228,354.7z"/>
	<polygon fill-rule="evenodd" clip-rule="evenodd" fill="#5FB0E5" points="207,334.9 207,344.4 216.1,422.4 200.5,422.4 
		183.4,387.7 199.7,376.8 179.8,367.4 198.1,338.9 	"/>
	<polygon fill-rule="evenodd" clip-rule="evenodd" fill="#5FB0E5" points="248.7,335 248.7,344.4 239.6,422.4 255.2,422.4 
		272.3,387.7 255.9,376.8 275.9,367.4 259.6,339.8 	"/>
	<path fill-rule="evenodd" clip-rule="evenodd" fill="#0686D8" d="M218.9,364.4l5,7.8c2.6,0,5.2,0,7.8,0l5.1-7.8l-8.9-9.7
		L218.9,364.4z"/>
	<polygon fill-rule="evenodd" clip-rule="evenodd" fill="#0686D8" points="224,372.2 216.8,422.4 239,422.4 231.8,372.2 	"/>
	<path fill-rule="evenodd" clip-rule="evenodd" fill="#EDEDED" d="M207,328.6l-1.8,7.1l5.1,36.9l17.7-17.9L207,328.6z"/>
	<path opacity="0.2" d="M207,319.8v1.5c0,0,10.6,12.6,20.8,13.1c10.2,0.5,20.9-12.2,20.9-12.2v-2.3"/>
	<g>
		<path fill-rule="evenodd" clip-rule="evenodd" fill="#0686D8" d="M260.9,215c9.5,1.5,14.8,8.1,17.1,16.9
			c5.9,23.1-6.4,73.2-49,73.8c-22,0.3-37.8-5.3-43.6-23.1c-5.8-17.8-8.1-46.4,4.4-62.5C205.5,199.9,238.6,199.7,260.9,215z"/>
		<path fill-rule="evenodd" clip-rule="evenodd" fill="#D2E9F7" d="M227.9,211.4c-64.1,0-39.5,87.8-35.4,94.6
			c4.6,7.4,25,23.8,35.4,23.8c10.4,0,30.7-16.4,35.4-23.8C267.5,299.2,292,211.4,227.9,211.4z"/>
		<path fill-rule="evenodd" clip-rule="evenodd" fill="#0686D8" d="M196.9,238.9c11.4,6.9,20.3-3.4,30.6,1
			c10.3,4.4,38.2-16.9,44.3,30c9.8-34-5-58.4-42.2-60c-39.7-1.7-55.8,34.5-44.8,68.3C183.9,260,188.4,248,196.9,238.9z"/>
		<g>
			<path fill="#0686D8" d="M195.9,235.9c0.3,5.9,10.3,6.8,14.5,7.1c4,0.3,7.9-0.4,11.7-1.5c4.7-1.3,10.6-3,14.4-6.2
				c0.4-0.3,0.2-1-0.3-1.1c-7.2-1.2-14.7,4.7-21.9,5.4c-5.7,0.5-13.2-0.3-17.7-4.1C196.3,235.4,195.8,235.5,195.9,235.9L195.9,235.9
				z"/>
		</g>
	</g>
	<path fill-rule="evenodd" clip-rule="evenodd" fill="#5FB0E5" d="M247.7,293.1c0.4,0,0.7,0,1.1-0.1c10.4-0.9,13-5.6,14.2-11.5
		c1.3-6.5,1.4-8.8,3.1-9.4c1.2-0.4,1.5-1.9,1.5-3.6c0-1.7-0.1-1.9-2.1-2.6c-1.6-0.6-10.5-1.4-17.2-0.9l0,1.8
		c5.3-0.3,10.3,0.3,11.8,1.3c3.3,2.2,2.4,12.6-0.5,17.8c-2,3.6-7.1,5.4-11.8,5.5L247.7,293.1z M228.2,268.5
		c-2.3,0.1-11.7-2.7-18.4-3.2c-0.5,0-1-0.1-1.5-0.1l0,1.8c5.4,0.2,11.1,1.5,13,4.4c3.2,4.8-2.5,16.4-7.7,19
		c-1.6,0.8-3.6,1.2-5.8,1.2l0,1.7c9,0,12.4-6.5,13.5-8.7c2.1-4.1,1.7-9.7,6.8-9.7c5.2,0,4.5,5.5,6.3,9.6c1,2.2,3.9,9,13.3,8.7l0-1.6
		c-2.3,0-4.5-0.4-6.1-1.2c-5-2.6-10-14.2-6.5-19c2.1-2.9,7.7-4.2,13.1-4.4l0-1.8c-0.4,0-0.8,0.1-1.2,0.1
		C241,265.7,233.7,268.4,228.2,268.5z M208.3,265.2c-6.6-0.4-15.4,0.5-17,1c-2.1,0.7-2.1,0.9-2.3,2.6c-0.1,1.7,0.1,3.1,1.3,3.6
		c1.6,0.6,1.6,2.9,2.5,9.4c0.8,5.9,3.1,10.6,13.5,11.4c0.5,0,1,0.1,1.5,0.1l0-1.7c-4.8,0-10.1-1.8-11.9-5.5
		c-2.5-5.2-2.9-15.6,0.6-17.8c1.5-0.9,6.5-1.6,11.7-1.4L208.3,265.2z"/>
	<path fill-rule="evenodd" clip-rule="evenodd" fill="#EDEDED" d="M248.7,328.6l1.4,7l-4.8,37.4L228,354.7L248.7,328.6z"/>
	<polyline opacity="5.000000e-002" points="207,328.6 228,354.7 248.7,328.6 248.7,328 228,354 207,328 207,328.6 	"/>
	<polygon opacity="0.1" fill-rule="evenodd" clip-rule="evenodd" points="224,372.2 231.8,372.2 231.8,372.4 223.9,372.4 	"/>
</g>
<g>
	<path fill-rule="evenodd" clip-rule="evenodd" fill="#FFDECC" d="M315.3,359.8c-42.9,18.8-55.8,28.8-60.9,33.4
		c-7.8,6.9-12.2,32.8-16.8,54.8h97.1h97.1c-4.6-22-9-47.8-16.8-54.8c-5.1-4.5-17.5-14.3-60.4-33.1L315.3,359.8z"/>
	<path fill-rule="evenodd" clip-rule="evenodd" fill="#0686D8" d="M315.3,359.8c-42.9,18.8-55.8,28.8-60.9,33.4
		c-7.8,6.9-12.2,32.8-16.8,54.8h97.1h97.1c-4.6-22-9-47.8-16.8-54.8c-5.1-4.5-17.5-14.3-60.4-33.1L315.3,359.8z"/>
	<path fill-rule="evenodd" clip-rule="evenodd" fill="#D2E9F7" d="M313.9,322.3v31.9v15.7c11.5,13.6,30.2,14,41.7,0v-15.7v-31.9
		C355.6,296.6,313.9,296.6,313.9,322.3z"/>
	
		<ellipse transform="matrix(-0.3127 -0.9498 0.9498 -0.3127 98.6578 679.2033)" fill-rule="evenodd" clip-rule="evenodd" fill="#D2E9F7" cx="295.1" cy="303.9" rx="12.1" ry="7"/>
	
		<ellipse transform="matrix(0.3129 -0.9498 0.9498 0.3129 -31.504 564.2695)" fill-rule="evenodd" clip-rule="evenodd" fill="#D2E9F7" cx="374.2" cy="303.9" rx="12.1" ry="7"/>
	<path fill-rule="evenodd" clip-rule="evenodd" fill="#D2E9F7" d="M334.8,380.3c0,0-29.1,6.9-29.1,8.7c0,1.8,11.1,59,11.1,59h39.5
		l4.5-58.8L334.8,380.3z"/>
	<polygon fill-rule="evenodd" clip-rule="evenodd" fill="#5FB0E5" points="313.9,360.5 313.9,369.9 323,448 307.4,448 290.3,413.2 
		306.6,402.3 286.6,393 305,364.5 	"/>
	<polygon fill-rule="evenodd" clip-rule="evenodd" fill="#5FB0E5" points="355.6,360.5 355.6,369.9 346.4,448 362,448 379.1,413.2 
		362.8,402.3 382.8,393 366.4,365.3 	"/>
	<path fill-rule="evenodd" clip-rule="evenodd" fill="#0686D8" d="M325.8,389.9l5,7.8c2.6,0,5.2,0,7.8,0l5-7.8l-8.9-9.7L325.8,389.9
		z"/>
	<polygon fill-rule="evenodd" clip-rule="evenodd" fill="#0686D8" points="330.8,397.7 323.6,448 345.8,448 338.7,397.7 	"/>
	<path fill-rule="evenodd" clip-rule="evenodd" fill="#FFFFFF" d="M313.9,354.2l-1.8,7.1l5.1,36.9l17.7-17.9L313.9,354.2z"/>
	<path opacity="0.2" d="M313.9,345.4v1.5c0,0,10.6,12.6,20.8,13.1c10.2,0.5,20.9-12.2,20.9-12.2v-2.3"/>
	<g>
		<path fill-rule="evenodd" clip-rule="evenodd" fill="#D2E9F7" d="M334.8,236.9c-64.1,0-39.5,87.8-35.4,94.6
			c4.6,7.4,25,23.8,35.4,23.8c10.4,0,30.7-16.4,35.4-23.8C374.3,324.7,398.9,236.9,334.8,236.9z"/>
		<path fill="#0686D8" d="M363.5,238.9c-21.7-17-55.1-6.9-65.2,7.3c-12.6,17.8-8.2,44.8-5.2,65c0,0,0-0.1,0-0.1
			c0,0.2,0.1,0.4,0.1,0.6c0,0.2,0.4,0.6,0.5,0.8c0.1,0.2,0.9,0,1.2-0.1c0.1,0,0.1-0.2,0.1-0.3c0.1-1.8,0-5.3,0-5.4
			c-0.2-2.8-0.8-5.5-1.3-8.2c2-12.8,8-15.5,11.2-30.9c0.7-1,1.4-2,2.1-3c0.9-1.1,1.7-2.2,2.8-3.2c0.5-0.3,1.1-0.7,1.6-1.1
			c11.7-4.3,23.7,0.9,34.7,5.3c4.2,1.7,8.9,3.7,13.6,3.4c2-0.2,3.5-1.5,3.7-3.1c5.3,15.8,9.6,23.1,12.2,34.7c-0.4,2-0.7,4-0.9,6.1
			c0,0-0.1,3.6,0,5.4c0,0.1,0,0.2,0.1,0.3c0.3,0.1,1,0.3,1.2,0.1c0.1-0.1,0.4-0.6,0.5-0.8c0.2-0.8,0.2-1.4,0.3-2.2
			c0.1-1,0.3-2.1,0.4-3.2C380.5,293.9,386.6,244.3,363.5,238.9z M330.7,255.7c-0.4-0.1-0.7-0.2-1.1-0.3c0.5,0.1,1.1,0.3,1.6,0.4
			C331.1,255.8,330.9,255.7,330.7,255.7z"/>
	</g>
	<path fill-rule="evenodd" clip-rule="evenodd" fill="#FFFFFF" d="M355.6,354.2l1.4,7l-4.8,37.4l-17.4-18.3L355.6,354.2z"/>
	<polyline opacity="5.000000e-002" points="313.9,354.2 334.8,380.3 355.6,354.2 355.6,353.6 334.8,379.5 313.9,353.6 313.9,354.2 	
		"/>
	<polygon opacity="0.1" fill-rule="evenodd" clip-rule="evenodd" points="330.8,397.7 338.7,397.7 338.7,398 330.8,398 	"/>
</g>
</svg>
