<?xml version="1.0" encoding="utf-8"?>
<!-- Generator: Adobe Illustrator 18.0.0, SVG Export Plug-In . SVG Version: 6.00 Build 0)  -->
<!DOCTYPE svg PUBLIC "-//W3C//DTD SVG 1.1//EN" "http://www.w3.org/Graphics/SVG/1.1/DTD/svg11.dtd">
<svg version="1.1" id="Layer_1" xmlns="http://www.w3.org/2000/svg" xmlns:xlink="http://www.w3.org/1999/xlink" x="0px" y="0px"
	 viewBox="0 0 293.1 273.6" enable-background="new 0 0 293.1 273.6" xml:space="preserve">
<g>
	<g>
		<g>
			<g>
				<path fill="#FFFFFF" d="M97.7,166.5c0,2.6-2.1,4.7-4.7,4.7H50.6c-2.6,0-4.7-2.1-4.7-4.7V88.9c0-2.6,2.1-4.7,4.7-4.7h42.3
					c2.6,0,4.7,2.1,4.7,4.7V166.5z"/>
				<path fill="#42566B" d="M92.9,172.2H50.6c-3.1,0-5.7-2.6-5.7-5.7V88.9c0-3.1,2.6-5.7,5.7-5.7h42.3c3.1,0,5.7,2.6,5.7,5.7v77.6
					C98.7,169.6,96.1,172.2,92.9,172.2z M50.6,85.2c-2,0-3.7,1.7-3.7,3.7v77.6c0,2,1.7,3.7,3.7,3.7h42.3c2,0,3.7-1.7,3.7-3.7V88.9
					c0-2-1.7-3.7-3.7-3.7H50.6z"/>
			</g>
			<rect x="50.6" y="94.5" fill="#00A0D8" width="42.3" height="64.7"/>
		</g>
		<g>
			<path fill="#FFFFFF" d="M87.8,137.1c0,3-2.4,5.5-5.5,5.5H61.5c-3,0-5.5-2.4-5.5-5.5v-0.5c0-3,2.4-5.5,5.5-5.5h20.8
				c3,0,5.5,2.4,5.5,5.5V137.1z"/>
			<g>
				<path fill="#42566B" d="M66.8,134.7h1.3c0.9,0,1.5,0.3,1.5,1.1c0,0.4-0.2,0.8-0.8,1v0c0.6,0.1,1,0.4,1,1.1
					c0,0.9-0.7,1.3-1.7,1.3h-1.4V134.7z M68,136.6c0.8,0,1.1-0.3,1.1-0.8c0-0.5-0.3-0.7-1-0.7h-0.7v1.4H68z M68.1,138.6
					c0.8,0,1.2-0.3,1.2-0.9c0-0.5-0.4-0.8-1.2-0.8h-0.8v1.7H68.1z"/>
				<path fill="#42566B" d="M70.7,134.7h0.6v2.6c0,1.1,0.4,1.4,1,1.4c0.6,0,1-0.3,1-1.4v-2.6h0.5v2.6c0,1.4-0.7,1.9-1.6,1.9
					c-0.9,0-1.6-0.5-1.6-1.9V134.7z"/>
				<path fill="#42566B" d="M75.7,137.4l-1.3-2.7H75l0.6,1.2c0.1,0.3,0.3,0.6,0.4,1h0c0.2-0.3,0.3-0.6,0.4-1l0.6-1.2h0.6l-1.3,2.7
					v1.7h-0.6V137.4z"/>
			</g>
		</g>
		<g>
			<path fill="#FFFFFF" d="M77.7,102.3h-2l-0.6,2.3h-9.3v0c0,0-0.1,0-0.1,0c-0.1,0-0.2,0.2-0.1,0.3l1.7,4.8h6.9l1.9-7h1.6
				c0.1,0,0.2-0.1,0.2-0.2C77.9,102.4,77.8,102.3,77.7,102.3z M74.7,106h-1l0.1-0.8h1.1L74.7,106z M74.4,107.1h-0.9l0.1-0.9h1
				L74.4,107.1z M74.1,108.3h-0.8l0.1-0.9h0.9L74.1,108.3z M70.8,109.4l-0.2-0.8h1.3l0.1,0.8H70.8z M69.1,109.4l-0.2-0.8h1.4
				l0.2,0.8H69.1z M67.8,105.1L68,106h-1.6l-0.3-0.8H67.8z M69.5,105.1l0.2,0.8h-1.4l-0.2-0.8H69.5z M70.2,107.1l-0.2-0.9h1.5
				l0.1,0.9H70.2z M71.7,107.4l0.1,0.9h-1.3l-0.2-0.9H71.7z M70,107.1h-1.4l-0.2-0.9h1.4L70,107.1z M71.7,106.2h1.7l-0.1,0.9h-1.4
				L71.7,106.2z M71.7,106l-0.1-0.8h2l-0.1,0.8H71.7z M71.4,106h-1.5l-0.2-0.8h1.6L71.4,106z M68.1,106.2l0.2,0.9h-1.5l-0.3-0.9
				H68.1z M66.9,107.4h1.5l0.2,0.9h-1.4L66.9,107.4z M68.6,107.4H70l0.2,0.9h-1.4L68.6,107.4z M72.1,108.5h1l-0.1,0.8c0,0,0,0,0,0
				h-0.7L72.1,108.5z M72,108.3l-0.1-0.9h1.3l-0.1,0.9H72z M67.3,108.5h1.4l0.2,0.8h-1.3L67.3,108.5z M73.2,109.4l0.1-0.8H74
				l-0.2,0.8H73.2z"/>
			<path fill="#FFFFFF" d="M72.9,110.1c-0.5,0-0.9,0.3-1,0.8h-2.4c-0.1-0.5-0.5-0.8-1-0.8c-0.6,0-1.1,0.5-1.1,1.1
				c0,0.6,0.5,1.1,1.1,1.1c0.6,0,1.1-0.5,1.1-1.1h2.3c0,0.6,0.5,1.1,1.1,1.1c0.6,0,1.1-0.5,1.1-1.1C74,110.5,73.5,110.1,72.9,110.1z
				 M68.5,111.7c-0.3,0-0.6-0.3-0.6-0.6c0-0.3,0.3-0.6,0.6-0.6c0.3,0,0.6,0.3,0.6,0.6C69.1,111.4,68.8,111.7,68.5,111.7z
				 M72.9,111.7c-0.3,0-0.6-0.3-0.6-0.6c0-0.3,0.3-0.6,0.6-0.6c0.3,0,0.6,0.3,0.6,0.6C73.5,111.4,73.2,111.7,72.9,111.7z"/>
		</g>
	</g>
	<path fill="#F3B390" d="M108.2,151.7l-11.1-22.2c-2.1-3.4-6.5-4.6-9.9-2.5c-3.4,2.1-4.6,6.5-2.5,9.9l6.7,13.4
		c-4,2.8-6.9,7.9-6.9,13.7c0,8.8-1.1,15.9,6,15.9c7,0,16.1-7.1,16.1-15.9c0-1,0-2-0.1-2.9C109.3,158.9,110.1,154.8,108.2,151.7z"/>
	<g>
		<path fill="#FFFFFF" d="M108.2,151.7l-11.1-22.2c-1-1.6-2.5-2.7-4.2-3.2l-19.2-8.6c-3.7-1.5-6.4-0.8-7.9,2.9
			c-1.5,3.7,0.2,7.9,3.9,9.5l15.7,8.5l5.9,11.7c-4,2.8-6.9,7.9-6.9,13.7c0,2.9-0.1,5.6,0,8H59.2l9.5,23.7h36l4.2-38.5
			C109.5,155.3,109.2,153.4,108.2,151.7z"/>
		<path fill="#42566B" d="M105.7,196.6H68.1L57.7,171h25.7c0-1.2,0-2.5,0-3.9c0-1,0-2,0-3.1c0-5.5,2.5-10.8,6.7-14l-5.4-10.7
			l-15.4-8.4c-2-0.8-3.6-2.4-4.4-4.4c-0.8-2-0.8-4.3,0-6.3c0.9-2.1,2.1-3.4,3.7-4c1.5-0.5,3.3-0.4,5.5,0.5l19.1,8.6
			c2,0.6,3.6,1.9,4.7,3.6l11.1,22.2c1.1,1.9,1.4,4,0.9,6.1L105.7,196.6z M69.4,194.6h34.5l4.2-37.7c0.4-1.6,0.2-3.3-0.7-4.7l0-0.1
			l-11.1-22.2c-0.8-1.3-2-2.3-3.6-2.7l-0.1,0l-19.2-8.6c-1.6-0.7-3-0.8-4-0.5c-1.1,0.4-1.9,1.3-2.5,2.9c-0.6,1.5-0.6,3.2,0,4.8
			c0.6,1.5,1.8,2.7,3.4,3.4l0.1,0l16,8.7l6.4,12.8l-0.7,0.5c-4,2.8-6.5,7.7-6.5,12.9c0,1.1,0,2.1,0,3.1c0,1.7,0,3.4,0,4.9l0,1H60.7
			L69.4,194.6z"/>
	</g>
	<g>
		<path fill="#FFFFFF" d="M57.5,153.2c0,3.3-2.7,6-6,6h-6.7c-3.3,0-6-2.7-6-6l0,0c0-3.3,2.7-6,6-6h6.7
			C54.8,147.2,57.5,149.9,57.5,153.2L57.5,153.2z"/>
		<path fill="#42566B" d="M51.5,160.2h-6.7c-3.9,0-7-3.1-7-7c0-3.9,3.1-7,7-7h6.7c3.9,0,7,3.1,7,7C58.5,157,55.3,160.2,51.5,160.2z
			 M44.8,148.2c-2.8,0-5,2.2-5,5c0,2.8,2.2,5,5,5h6.7c2.8,0,5-2.2,5-5c0-2.8-2.2-5-5-5H44.8z"/>
	</g>
	<g>
		<path fill="#FFFFFF" d="M61.4,139.9c0,3.3-2.7,6-6,6H44.8c-3.3,0-6-2.7-6-6l0,0c0-3.3,2.7-6,6-6h10.6
			C58.7,133.9,61.4,136.6,61.4,139.9L61.4,139.9z"/>
		<path fill="#42566B" d="M55.4,146.9H44.8c-3.9,0-7-3.1-7-7c0-3.9,3.1-7,7-7h10.6c3.9,0,7,3.1,7,7
			C62.4,143.7,59.2,146.9,55.4,146.9z M44.8,134.9c-2.8,0-5,2.2-5,5c0,2.8,2.2,5,5,5h10.6c2.8,0,5-2.2,5-5c0-2.8-2.2-5-5-5H44.8z"/>
	</g>
	<g>
		<path fill="#FFFFFF" d="M64.4,126.6c0,3.3-2.7,6-6,6H44.8c-3.3,0-6-2.7-6-6l0,0c0-3.3,2.7-6,6-6h13.6
			C61.7,120.6,64.4,123.3,64.4,126.6L64.4,126.6z"/>
		<path fill="#42566B" d="M58.4,133.6H44.8c-3.9,0-7-3.1-7-7c0-3.9,3.1-7,7-7h13.6c3.9,0,7,3.1,7,7
			C65.4,130.4,62.2,133.6,58.4,133.6z M44.8,121.6c-2.8,0-5,2.2-5,5s2.2,5,5,5h13.6c2.8,0,5-2.2,5-5s-2.2-5-5-5H44.8z"/>
	</g>
	<g>
		<path fill="#FFFFFF" d="M60.5,113.3c0,3.3-2.7,6-6,6h-9.7c-3.3,0-6-2.7-6-6l0,0c0-3.3,2.7-6,6-6h9.7
			C57.8,107.3,60.5,110,60.5,113.3L60.5,113.3z"/>
		<path fill="#42566B" d="M54.5,120.3h-9.7c-3.9,0-7-3.1-7-7s3.1-7,7-7h9.7c3.9,0,7,3.1,7,7S58.3,120.3,54.5,120.3z M44.8,108.3
			c-2.8,0-5,2.2-5,5s2.2,5,5,5h9.7c2.8,0,5-2.2,5-5s-2.2-5-5-5H44.8z"/>
	</g>
	<g>
		<path fill="#FFFFFF" d="M56.7,114c0,1.5-1.2,2.7-2.7,2.7l0,0c-1.5,0-2.7-1.2-2.7-2.7v-1.7c0-1.5,1.2-2.7,2.7-2.7l0,0
			c1.5,0,2.7,1.2,2.7,2.7V114z"/>
		<path fill="#42566B" d="M54,117.7c-2.1,0-3.7-1.7-3.7-3.7v-1.7c0-2.1,1.7-3.7,3.7-3.7c2.1,0,3.7,1.7,3.7,3.7v1.7
			C57.7,116,56,117.7,54,117.7z M54,110.6c-1,0-1.7,0.8-1.7,1.7v1.7c0,1,0.8,1.7,1.7,1.7c1,0,1.7-0.8,1.7-1.7v-1.7
			C55.7,111.3,54.9,110.6,54,110.6z"/>
	</g>
	<g>
		<path fill="#FFFFFF" d="M61.2,127c0,1.5-1.2,2.7-2.7,2.7l0,0c-1.5,0-2.7-1.2-2.7-2.7v-1.7c0-1.5,1.2-2.7,2.7-2.7l0,0
			c1.5,0,2.7,1.2,2.7,2.7V127z"/>
		<path fill="#42566B" d="M58.5,130.7c-2.1,0-3.7-1.7-3.7-3.7v-1.7c0-2.1,1.7-3.7,3.7-3.7c2.1,0,3.7,1.7,3.7,3.7v1.7
			C62.2,129,60.5,130.7,58.5,130.7z M58.5,123.6c-1,0-1.7,0.8-1.7,1.7v1.7c0,1,0.8,1.7,1.7,1.7c1,0,1.7-0.8,1.7-1.7v-1.7
			C60.2,124.3,59.4,123.6,58.5,123.6z"/>
	</g>
	<g>
		<path fill="#FFFFFF" d="M58.3,140.4c0,1.5-1.2,2.7-2.7,2.7l0,0c-1.5,0-2.7-1.2-2.7-2.7v-1.7c0-1.5,1.2-2.7,2.7-2.7l0,0
			c1.5,0,2.7,1.2,2.7,2.7V140.4z"/>
		<path fill="#42566B" d="M55.5,144.1c-2.1,0-3.7-1.7-3.7-3.7v-1.7c0-2.1,1.7-3.7,3.7-3.7c2.1,0,3.7,1.7,3.7,3.7v1.7
			C59.3,142.4,57.6,144.1,55.5,144.1z M55.5,137c-1,0-1.7,0.8-1.7,1.7v1.7c0,1,0.8,1.7,1.7,1.7c1,0,1.7-0.8,1.7-1.7v-1.7
			C57.3,137.8,56.5,137,55.5,137z"/>
	</g>
	<g>
		<path fill="#FFFFFF" d="M54.4,154.1c0,1.5-1.2,2.7-2.7,2.7l0,0c-1.5,0-2.7-1.2-2.7-2.7v-1.7c0-1.5,1.2-2.7,2.7-2.7l0,0
			c1.5,0,2.7,1.2,2.7,2.7V154.1z"/>
		<path fill="#42566B" d="M51.7,157.9c-2.1,0-3.7-1.7-3.7-3.7v-1.7c0-2.1,1.7-3.7,3.7-3.7c2.1,0,3.7,1.7,3.7,3.7v1.7
			C55.4,156.2,53.8,157.9,51.7,157.9z M51.7,150.7c-1,0-1.7,0.8-1.7,1.7v1.7c0,1,0.8,1.7,1.7,1.7c1,0,1.7-0.8,1.7-1.7v-1.7
			C53.4,151.5,52.7,150.7,51.7,150.7z"/>
	</g>
	<g>
		<path fill="#FFFFFF" d="M76.5,123.5c-0.9,1.9-3.1,2.7-5,1.8l-2.6-1.2c-1.9-0.9-2.7-3.1-1.8-5l0,0c0.9-1.9,3.1-2.7,5-1.8l2.6,1.2
			C76.6,119.3,77.4,121.6,76.5,123.5L76.5,123.5z"/>
		<path fill="#42566B" d="M73.1,126.7c-0.7,0-1.4-0.2-2-0.5l-2.6-1.2c-1.2-0.5-2-1.5-2.5-2.7c-0.4-1.2-0.4-2.5,0.2-3.7
			c1.1-2.4,4-3.4,6.4-2.3l2.6,1.2c1.2,0.5,2,1.5,2.5,2.7c0.4,1.2,0.4,2.5-0.2,3.7l0,0c-0.5,1.2-1.5,2-2.7,2.5
			C74.2,126.6,73.6,126.7,73.1,126.7z M70.5,117.9c-1.1,0-2.1,0.6-2.5,1.6c-0.3,0.7-0.4,1.4-0.1,2.1c0.3,0.7,0.8,1.3,1.4,1.6
			l2.6,1.2c0.7,0.3,1.4,0.4,2.1,0.1c0.7-0.3,1.3-0.8,1.6-1.4l0,0c0.3-0.7,0.4-1.4,0.1-2.1c-0.3-0.7-0.8-1.3-1.4-1.6l-2.6-1.2
			C71.3,118,70.9,117.9,70.5,117.9z"/>
	</g>
	<g>
		<rect x="68.3" y="195.6" fill="#FFFFFF" width="38.4" height="9"/>
		<g>
			<path fill="#44566B" d="M107.6,205.7H67.3v-11h40.4V205.7z M69.3,203.7h36.4v-7H69.3V203.7z"/>
		</g>
	</g>
	<g>
		<rect x="68.3" y="204.7" fill="#00A0D8" width="38.4" height="67.8"/>
		<path fill="#44566B" d="M107.6,273.5H67.3v-69.8h40.4V273.5z M69.3,271.5h36.4v-65.8H69.3V271.5z"/>
	</g>
	<rect x="98.3" y="198.3" fill="#43566B" width="4.3" height="3.5"/>
</g>
<g>
	<path fill="#43566B" d="M21,61C9.4,61,0,51.6,0,40s9.4-21,21-21s21,9.4,21,21S32.6,61,21,61z M21,21C10.5,21,2,29.5,2,40
		s8.5,19,19,19c10.5,0,19-8.5,19-19S31.5,21,21,21z"/>
</g>
<g>
	<g>
		<path fill="#FFFFFF" d="M31,52.1H11c-0.3,0-0.5-0.1-0.7-0.3c-0.2-0.2-0.3-0.5-0.3-0.7l0-1.6c0-0.3,0.1-0.6,0.4-0.7
			c0.1-0.1,2-1.6,3.5-2.3c1.2-0.5,2.9-1.3,3.5-1.5c0,0,0.1-0.1,0.1-0.1c0-0.3,0.1-0.5,0.3-0.7c0.3-0.3,0.7-0.3,1.1-0.2
			c0.5,0.2,1.5,0.5,2,0.6c0.5,0,1.7-0.4,2.3-0.6c0.3-0.1,0.6-0.1,0.8,0.1c0.3,0.1,0.4,0.4,0.5,0.7c0,0.1,0,0.1,0.1,0.2
			c0.1,0,0.2,0.1,0.4,0.2c0,0,0,0,0,0L24.6,46l0.5-0.9c4.7,2.1,6.5,3.2,6.9,4.2c0,0.1,0.1,0.2,0.1,0.3v1.5
			C32,51.6,31.6,52.1,31,52.1z M12,50.1h18v-0.2c-0.3-0.3-1.5-1.1-5.8-3l0.3-0.9l-0.4,0.9c-0.4-0.2-0.6-0.3-0.7-0.3
			c-0.1-0.1-0.2-0.1-0.3-0.2c-0.1-0.1-0.2-0.2-0.3-0.3c-0.6,0.2-1.4,0.4-2,0.4c-0.6,0-1.3-0.2-1.9-0.4c-0.1,0.1-0.2,0.2-0.3,0.3
			l-0.1,0.1c-0.1,0.1-0.2,0.1-0.3,0.2c0,0-2.2,1-3.7,1.6C13.8,48.7,12.7,49.5,12,50.1L12,50.1z M24.6,44.9L24.6,44.9L24.6,44.9
			L24.6,44.9z"/>
	</g>
	<g>
		<path fill="#FFFFFF" d="M18.5,45.8C18.4,45.8,18.4,45.8,18.5,45.8c-0.2,0-4.1-0.4-5.9-7.4c-0.9-3.4-1.1-8.1,2.9-11.1
			c2.3-1.7,5.6-1.3,5.7-1.3c0.5,0.1,0.8,0.4,0.9,0.9c0,0.1,0.1,1.2-0.4,2.6c1.3,1.4,3.9,2.9,4.5,2.9c0.3,0,0.5,0.1,0.7,0.3
			c0.2,0.2,0.3,0.5,0.3,0.7c0,5-1.6,8.5-3.1,10.1c-0.8,0.9-1.7,1.3-2.7,1.3c-0.6,0-1.2-0.1-1.8-0.5L19.5,45
			C19.4,45.5,18.9,45.8,18.5,45.8z M20,28c-0.9,0-2.3,0.2-3.4,1c-2.5,1.9-3.2,4.9-2.1,8.9c0.9,3.5,2.3,4.9,3.2,5.5l0.1-0.6
			c-1.5-2.1-2.9-5.7-2.9-8c0-0.5,0.4-0.9,0.9-1c0.5-0.2,2.9-2.4,3.8-4.5C19.8,28.9,19.9,28.4,20,28z M16.9,35.5
			c0.2,2.2,1.6,5.5,2.9,6.8c0.5,0.5,1,0.7,1.4,0.7c0.4,0,0.8-0.2,1.3-0.7c1.2-1.3,2.4-4.2,2.5-8c-1.3-0.5-3.1-1.6-4.4-2.8
			C19.7,33.1,18.1,34.7,16.9,35.5z"/>
	</g>
	<g>
		<path fill="#FFFFFF" d="M24.8,47l-0.4-2c0,0,3.2-0.9,3.1-9.8c0-3.1-0.8-5.3-2.2-6.4c-1.7-1.3-3.9-0.7-4-0.7l-0.5-1.9
			c0.1,0,3.2-0.8,5.7,1.1c2,1.5,3,4.2,3,8C29.6,45.7,25.3,46.9,24.8,47z"/>
	</g>
	<g>
		
			<rect x="22.4" y="42.9" transform="matrix(0.1165 0.9932 -0.9932 0.1165 64.2514 15.5762)" fill="#FFFFFF" width="1.9" height="2"/>
	</g>
</g>
<g>
	<rect x="30.3" y="71.1" transform="matrix(0.3987 0.9171 -0.9171 0.3987 88.1301 9.824)" fill="#43566B" width="12.5" height="2"/>
</g>
<g>
	
		<rect x="103.6" y="65.9" transform="matrix(0.917 0.3989 -0.3989 0.917 37.4488 -35.7277)" fill="#43566B" width="2" height="12.5"/>
</g>
<g>
	<path fill="#43566B" d="M71,42c-11.6,0-21-9.4-21-21S59.4,0,71,0s21,9.4,21,21S82.6,42,71,42z M71,2c-10.5,0-19,8.5-19,19
		s8.5,19,19,19c10.5,0,19-8.5,19-19S81.5,2,71,2z"/>
</g>
<g>
	<g>
		<path fill="#FFFFFF" d="M66.2,22.2c-0.5,0-1.2-0.2-1.9-1.1c-1.4-1.7-2.8-6.2-0.5-10.9c0.8-1.6,2.3-2.7,4-3
			c1.6-0.3,3.3,0.1,4.7,1.1c0.6-0.2,1.4-0.3,2.3,0c1.1,0.5,3.7,1.5,3.5,5.7c-0.1,1.5,0.1,1.8,0.1,1.8c0.1,0.2,0.2,0.5,0.2,0.8
			c0,1.3-1.5,2.4-2.5,2.4c-0.4,0-0.6-0.1-0.8-0.3l0,0c-0.4-0.3-0.5-0.8-0.5-1.1c0-0.1,0-0.2,0-0.2c-0.2-0.8-1.1-2.3-1.7-3.1
			c-0.7,0.6-1.9,1.5-3.6,2.8l-0.6,0.5c-0.3,0.3-0.7,0.4-1,0.3c-0.1,0.5-0.3,0.9-0.4,1.2l-0.1,0.2c-0.1,0.2,0,1.1,0.1,1.8
			c0.1,0.5-0.3,1-0.8,1.1C66.5,22.2,66.4,22.2,66.2,22.2z M68.8,9.1c-0.2,0-0.4,0-0.7,0.1c-1.1,0.2-2,0.9-2.6,2
			c-1.4,2.9-1.1,5.9-0.3,7.6c0,0.1,0.1,0.1,0.1,0.2c0-0.2,0.1-0.3,0.1-0.4l0.1-0.2c0.2-0.4,0.4-1.1,0.4-1.5c0-0.6,0.3-0.9,0.5-1
			c0.5-0.3,1-0.1,1.3-0.1c0,0,0,0,0,0l0.5-0.4c0.9-0.7,3.6-2.8,4-3.1c0.3-0.3,0.7-0.4,1.1-0.3c0.9,0.2,2.2,2.3,2.9,3.8
			c-0.1-0.5-0.1-1.1,0-1.8c0.1-2.7-1.3-3.3-2.3-3.7c-0.5-0.2-1,0.1-1,0.1c-0.4,0.3-0.9,0.3-1.3-0.1C70.8,9.5,69.8,9.1,68.8,9.1z
			 M76.5,17.1L75.8,18L76.5,17.1C76.5,17.2,76.5,17.2,76.5,17.1z M67.6,15.9C67.6,15.9,67.6,15.9,67.6,15.9L67.6,15.9z M73.8,13.6
			C73.8,13.6,73.8,13.6,73.8,13.6C73.8,13.6,73.8,13.6,73.8,13.6z"/>
	</g>
	<g>
		<path fill="#FFFFFF" d="M71.1,25.6c-1.2,0-2.4-0.5-3.6-1.5c-0.2-0.2-0.4-0.4-0.7-0.6c-0.5-0.5-0.9-1.1-1.3-1.7l1.7-1.1
			c0.3,0.5,0.7,1,1.1,1.4c0.2,0.2,0.3,0.3,0.5,0.5c0.9,0.7,1.7,1.1,2.5,1c0.7-0.1,1.4-0.5,2-1.3c0.7-1,1.3-2.5,1.6-4.4l1,0.1l1,0v0
			c0,0,0,0.1,0,0.1c-0.3,2.3-1,4-1.9,5.3c-0.9,1.2-2.1,2-3.4,2.1C71.4,25.5,71.2,25.6,71.1,25.6z"/>
	</g>
	<g>
		<path fill="#FFFFFF" d="M82.2,30.9H60c-0.3,0-0.5-0.1-0.7-0.3c-0.2-0.2-0.3-0.4-0.3-0.7c0-0.3,0.1-1.9,0.8-2.8
			c0.4-0.5,1.5-1,4.9-2.1c0.5-0.2,0.9-0.3,1.3-0.5c0.6-0.2,0.9-0.3,1.1-0.4c0-0.2,0-0.4,0-0.6l2-0.1c0,0.5,0,1.4-0.4,2
			c-0.2,0.2-0.4,0.3-0.6,0.4c-0.3,0.1-0.8,0.3-1.5,0.6c-0.4,0.1-0.9,0.3-1.3,0.5c-1.3,0.5-3.5,1.2-4,1.6c-0.1,0.1-0.1,0.3-0.2,0.4
			h19.9c0-0.2-0.1-0.3-0.2-0.4c-0.5-0.3-2.7-1.1-4-1.6c-2.8-1-3.1-1.1-3.4-1.5c-0.1-0.2-0.5-0.7-0.4-2.6l2,0.1c0,0.4,0,0.9,0,1.2
			c0.5,0.2,1.5,0.6,2.4,0.9c3.3,1.2,4.5,1.6,4.9,2.1c0.7,0.9,0.8,2.5,0.8,2.8c0,0.3-0.1,0.5-0.3,0.7C82.7,30.7,82.5,30.9,82.2,30.9z
			 M61.3,28.4C61.3,28.4,61.3,28.4,61.3,28.4L61.3,28.4z M75.2,24.3L75.2,24.3L75.2,24.3z"/>
	</g>
	<g>
		
			<rect x="66.2" y="26.4" transform="matrix(0.4616 0.8871 -0.8871 0.4616 61.4298 -46.4701)" fill="#FFFFFF" width="5.6" height="2"/>
	</g>
	<g>
		
			<rect x="72.6" y="24.7" transform="matrix(0.963 0.2696 -0.2696 0.963 10.0872 -18.8307)" fill="#FFFFFF" width="2" height="5.3"/>
	</g>
</g>
<g>
	<path fill="#43566B" d="M121,61c-11.6,0-21-9.4-21-21s9.4-21,21-21c11.6,0,21,9.4,21,21S132.6,61,121,61z M121,21
		c-10.5,0-19,8.5-19,19s8.5,19,19,19c10.5,0,19-8.5,19-19S131.5,21,121,21z"/>
</g>
<g>
	<g>
		<path fill="#FFFFFF" d="M133.2,50.5h-24.4l-0.2-0.7c0-0.1-0.3-1,0-2.3c0.1-0.6,0.3-1.6,8.2-4.5v-0.3h2v1.7l-0.7,0.2
			c0,0-0.1,0-0.4,0.1c-4.1,1.5-6.6,2.7-7.2,3.2c0,0.2,0,0.3,0,0.5h21.1c0-0.1,0-0.3,0-0.5c-0.6-0.5-3.1-1.8-7.2-3.2l-1-0.4v-1.7h0.7
			v-1h1.3V43c7.9,2.9,8.1,3.9,8.2,4.5c0.3,1.3,0,2.2,0,2.3L133.2,50.5z M131.6,48.1L131.6,48.1L131.6,48.1z M131.5,47.8
			C131.5,47.8,131.5,47.8,131.5,47.8C131.5,47.8,131.5,47.8,131.5,47.8z"/>
	</g>
	<g>
		<path fill="#FFFFFF" d="M120.7,45c-0.6,0-1.1,0-1.3-0.1c-0.6-0.1-1.8-1-2.3-1.5l-0.1-0.2c-0.4-0.5-1-1.5-1.8-3.1l-0.1-0.1
			c-0.9-0.7-0.8-3.8-0.8-3.8c0.1-0.5,0.3-0.9,0.6-1c-0.2-1.7,0-3.2,0.6-4.4c0-0.1,0.1-0.2,0.1-0.2c2.6-3.6,5.8-3.1,6-3.1
			c3.5,0.4,4.7,2.6,4.9,3.1c0,0.1,0.1,0.2,0.1,0.2c0.4,1.3,0.5,2.6,0.3,4.6c0.2,0.1,0.4,0.3,0.5,0.6c0.5,0.9,0.1,3.3-0.1,3.7
			c-0.1,0.3-0.3,0.5-0.6,0.6l-0.1,0.6c-0.1,0.2-0.1,0.3-0.2,0.4c-0.8,1.3-1.1,1.7-1.7,2.2l-0.4,0.3c-0.4,0.3-1.3,1-2,1.1
			C121.8,45,121.3,45,120.7,45z M118.5,42.1c0.4,0.4,1.2,0.9,1.4,1c0.2,0,1.6,0,1.8,0c0.1,0,0.6-0.3,1.2-0.7
			c0.1-0.1,0.2-0.1,0.3-0.2l0.2-0.1l0.6,0.8l-0.6-0.8c0.3-0.2,0.5-0.3,1.1-1.4l0.2-0.8c0.1-0.4,0.4-0.8,0.7-1
			c0.1-0.4,0.1-1.2,0.1-1.7c-0.5-0.3-0.8-0.9-0.7-1.5c0.2-1.9,0.1-3-0.2-4.1c-0.1-0.1-0.8-1.6-3.4-1.9c-0.1,0-2.3-0.3-4,2.2
			c-0.4,0.9-0.6,2.1-0.4,3.5c0.1,0.6-0.2,1.2-0.6,1.5c0,0.6,0.1,1.5,0.2,1.9c0.2,0.2,0.4,0.3,0.5,0.6
			C117.7,40.8,118.3,41.8,118.5,42.1L118.5,42.1z M126.3,40.5C126.3,40.5,126.3,40.5,126.3,40.5C126.3,40.5,126.3,40.5,126.3,40.5z
			 M115.1,40.1C115.1,40.1,115.1,40.1,115.1,40.1C115.1,40.1,115.1,40.1,115.1,40.1z M116.4,38.8L116.4,38.8L116.4,38.8z
			 M114.8,35.5C114.8,35.5,114.8,35.5,114.8,35.5C114.8,35.5,114.8,35.5,114.8,35.5z M115.2,35.1C115.2,35.1,115.2,35.1,115.2,35.1
			C115.2,35.1,115.2,35.1,115.2,35.1z"/>
	</g>
</g>
<g>
	<rect x="69.6" y="48.4" fill="#43566B" width="2" height="29.5"/>
</g>
<path fill="#009FD9" d="M241.7,244.5L225,167c0,0,3.6-1.8,6.2-1.1c2.6,0.7,6.9-0.7,10.9,8.4c4,9.1,16.4,42.1,16.4,42.1
	s2.4,3.9,1.4,13.8c-1.4,9.9-1.9,14.3-1.9,14.3H241.7z"/>
<path fill="#009FD9" d="M183.7,222.8l-11.1-20.1c0,0-1.4-4.7-0.4-6.4s3.5-3.2,3.7-3.3s3.2-2.9,3.2-2.9s-1-5-0.7-7
	c0.4-2,5.3-4.1,5.7-4.3c0.4-0.2,4.2-2.4,4.2-2.4s-0.2-4.3,1.7-5.5c1.8-1.1,8.2-5,8.2-5l6.5,36.4L183.7,222.8z"/>
<g>
	<g>
		<polygon fill="#43566B" points="292.1,74.1 228.1,74.1 228.1,72.1 290.1,72.1 290.1,15.4 217.8,15.4 217.8,56.9 215.8,56.9 
			215.8,13.4 292.1,13.4 		"/>
	</g>
	<g>
		<rect x="216.8" y="22.7" fill="#43566B" width="74.2" height="2"/>
	</g>
	<rect x="220.2" y="17.5" fill="#00A0D8" width="3.1" height="3.1"/>
	<rect x="225.3" y="17.5" fill="#00A0D8" width="3.1" height="3.1"/>
	<rect x="230.4" y="17.5" fill="#00A0D8" width="3.1" height="3.1"/>
</g>
<g>
	<circle fill="#00A0D8" cx="253.9" cy="48.1" r="15.2"/>
	<path fill="#43566B" d="M253.9,64.3c-8.9,0-16.2-7.3-16.2-16.2c0-8.9,7.3-16.2,16.2-16.2c8.9,0,16.2,7.3,16.2,16.2
		C270.2,57,262.9,64.3,253.9,64.3z M253.9,33.8c-7.8,0-14.2,6.4-14.2,14.2s6.4,14.2,14.2,14.2c7.8,0,14.2-6.4,14.2-14.2
		S261.8,33.8,253.9,33.8z"/>
</g>
<path fill="#FFFFFF" d="M253.7,40.9c0-0.1,0.1-0.2,0.2-0.2c0.1,0,0.2,0.1,0.2,0.2l1.4,4.5c0.1,0.2,0.3,0.4,0.6,0.4h4.7
	c0.1,0,0.2,0.1,0.2,0.2c0,0.1,0,0.2-0.1,0.3l-3.8,2.8c-0.2,0.2-0.3,0.4-0.2,0.7l1.4,4.5c0,0.1,0,0.2-0.1,0.3c-0.1,0.1-0.2,0.1-0.3,0
	l-3.8-2.8c-0.2-0.2-0.5-0.2-0.7,0l-3.8,2.8c-0.1,0.1-0.2,0.1-0.3,0c-0.1-0.1-0.1-0.2-0.1-0.3l1.4-4.5c0.1-0.2,0-0.5-0.2-0.7
	l-3.8-2.8c-0.1-0.1-0.1-0.2-0.1-0.3c0-0.1,0.1-0.2,0.2-0.2h4.7c0.3,0,0.5-0.2,0.6-0.4L253.7,40.9z"/>
<g>
	<g>
		<g>
			<path fill="#FFFFFF" d="M271.4,81l19.7-0.1l-0.2,6.2c1.3,9.3,0.9,10.9-5.3,22.3l-22.2,0.3l-0.5-4.9c-0.1-1.4-1-2.7-2.3-3.3
				l-17.3-8.1c-0.8-0.1-1.3-0.8-1.3-1.6c0-0.6,0.1-1.2,0.2-1.7c-0.2-2.5,21.4-1.3,21.4-1.3s0.8-36.7,0.8-35.7c0-1.9,1.5-3.5,3.5-3.5
				l0,0c1.9,0,3.5,1.5,3.5,3.5v25.5"/>
			<path fill="#43566B" d="M262.6,110.8l-0.7-5.8c-0.1-1.1-0.7-2.1-1.7-2.5l-17.2-8.1c-1.2-0.3-2-1.3-2-2.6c0-0.6,0.1-1.3,0.2-1.9
				c0-0.3,0.2-0.7,0.4-0.9c1.9-2,14.6-1.6,21-1.3l0.6-29.1c0.1-3,0.1-4.7,0.2-5.5h-0.1c0-2.5,2-4.5,4.5-4.5s4.5,2,4.5,4.5v25.5h-2
				V53c0-1.4-1.1-2.5-2.5-2.5c-1.4,0-2.5,1.1-2.5,2.5h-0.7l0.7,0c0,0.6-0.5,23.6-0.8,35.7l0,1l-1-0.1c-8.7-0.5-18.8-0.4-20.4,0.6
				l0,0c-0.1,0.5-0.2,1-0.2,1.5c0,0.3,0.2,0.6,0.5,0.6l0.3,0.1l17.3,8.1c1.6,0.8,2.7,2.4,2.8,4.2l0.4,4l20.7-0.3
				c5.8-10.7,6.1-12.3,4.9-21.2l0-0.1l0.1-5.3L271.4,82l0-2l20.8-0.1l-0.2,7.2c1.3,9.5,0.9,11.3-5.4,22.9l-0.3,0.5L262.6,110.8z"/>
		</g>
		<g>
			<path fill="#FFFFFF" d="M278.3,68.9v10.5c0,1.9-1.5,3.5-3.5,3.5l0,0c-1.9,0-3.5-1.5-3.5-3.5V68.9c0-1.9,1.5-3.5,3.5-3.5l0,0
				C276.8,65.5,278.3,67,278.3,68.9z"/>
			<path fill="#43566B" d="M274.9,83.9c-2.5,0-4.5-2-4.5-4.5V68.9c0-2.5,2-4.5,4.5-4.5c2.5,0,4.5,2,4.5,4.5v10.5
				C279.3,81.9,277.3,83.9,274.9,83.9z M274.9,66.5c-1.4,0-2.5,1.1-2.5,2.5v10.5c0,1.4,1.1,2.5,2.5,2.5c1.4,0,2.5-1.1,2.5-2.5V68.9
				C277.3,67.6,276.2,66.5,274.9,66.5z"/>
		</g>
		<g>
			<path fill="#FFFFFF" d="M285.2,69.8v10.5c0,1.9-1.5,3.5-3.5,3.5l0,0c-1.9,0-3.5-1.5-3.5-3.5V69.8c0-1.9,1.5-3.5,3.5-3.5l0,0
				C283.7,66.4,285.2,67.9,285.2,69.8z"/>
			<path fill="#43566B" d="M281.8,84.8c-2.5,0-4.5-2-4.5-4.5V69.8c0-2.5,2-4.5,4.5-4.5s4.5,2,4.5,4.5v10.5
				C286.2,82.8,284.2,84.8,281.8,84.8z M281.8,67.4c-1.4,0-2.5,1.1-2.5,2.5v10.5c0,1.4,1.1,2.5,2.5,2.5c1.4,0,2.5-1.1,2.5-2.5V69.8
				C284.2,68.5,283.1,67.4,281.8,67.4z"/>
		</g>
		<g>
			<path fill="#FFFFFF" d="M292.1,70.7v10.5c0,1.9-1.5,3.5-3.5,3.5l0,0c-1.9,0-3.5-1.5-3.5-3.5V70.7c0-1.9,1.5-3.5,3.5-3.5l0,0
				C290.6,67.3,292.1,68.8,292.1,70.7z"/>
			<path fill="#43566B" d="M288.7,85.7c-2.5,0-4.5-2-4.5-4.5V70.7c0-2.5,2-4.5,4.5-4.5c2.5,0,4.5,2,4.5,4.5v10.5
				C293.1,83.7,291.1,85.7,288.7,85.7z M288.7,68.3c-1.4,0-2.5,1.1-2.5,2.5v10.5c0,1.4,1.1,2.5,2.5,2.5c1.4,0,2.5-1.1,2.5-2.5V70.7
				C291.1,69.4,290,68.3,288.7,68.3z"/>
		</g>
	</g>
	<g>
		<polygon fill="#43566B" points="263.6,174.4 261.6,174.4 261.6,108.5 289.5,108.5 289.5,160.9 287.5,160.9 287.5,110.5 
			263.6,110.5 		"/>
	</g>
</g>
<path opacity="0.1" fill="#FFFFFF" d="M178.2,98c10.6,7.2,25,4.4,32.2-6.2c7.2-10.6,4.4-25-6.2-32.2c-10.6-7.2-25-4.4-32.2,6.2
	C164.9,76.4,167.6,90.8,178.2,98z"/>
<g>
	<g>
		<path fill="#FFFFFF" d="M164,84.2c-3-15,6.9-29.6,21.9-32.6c15-2.9,29.6,6.9,32.6,21.9c2.7,13.8-5.4,27.2-18.3,31.6l4.4,22.3
			l-6.2,1.2l-4.4-22.2C180,107.9,166.8,98.4,164,84.2z M178.6,97.3c4.8,3.3,10.8,4.7,16.9,3.5c12.1-2.4,20-14.2,17.7-26.3
			c-2.4-12.1-14.2-20-26.3-17.7c-12.1,2.4-20,14.2-17.7,26.3C170.5,89.2,174,94.1,178.6,97.3L178.6,97.3z"/>
	</g>
	<g>
		<g>
			<path fill="#43566B" d="M197.6,129.9l-4.4-22.3c-14.5,1-27.4-8.8-30.2-23.2c-1.5-7.5,0.1-15.2,4.4-21.6
				c4.3-6.4,10.8-10.7,18.3-12.2c15.6-3,30.7,7.1,33.8,22.7c2.7,13.8-5.1,27.6-18.2,32.5l4.4,22.5L197.6,129.9z M194.9,105.4
				l4.3,22.1l4.2-0.8l-4.4-22.2l0.8-0.3c12.6-4.3,20.2-17.4,17.7-30.5c-2.8-14.5-16.9-23.9-31.4-21.1c-7,1.4-13.1,5.4-17,11.3
				c-4,5.9-5.4,13.1-4.1,20.1l0,0c2.7,13.6,15.1,22.9,28.9,21.5L194.9,105.4z M191.2,102.3c-4.7,0-9.2-1.4-13.1-4.1h0
				c-5.1-3.5-8.6-8.7-9.8-14.8c-2.5-12.7,5.8-25,18.5-27.5c12.6-2.5,25,5.8,27.5,18.5c2.5,12.6-5.8,25-18.5,27.4
				C194.3,102.1,192.7,102.3,191.2,102.3z M179.2,96.5c4.8,3.3,10.5,4.4,16.2,3.3c11.6-2.3,19.1-13.5,16.9-25.1
				c-2.3-11.6-13.5-19.2-25.1-16.9C175.6,60.1,168,71.4,170.3,83C171.4,88.5,174.5,93.3,179.2,96.5L179.2,96.5z"/>
		</g>
	</g>
</g>
<g>
	<path fill="#43566B" d="M239.7,239.4L220,148.6c-1-4.7-5.5-7.6-10.2-6.8l-5.4,1c-4.8,0.8-8,5.4-7.2,10.2l8.7,50.5l-2,0.3l-8.7-50.5
		c-1-5.9,2.9-11.5,8.8-12.5l5.4-1c5.8-1,11.2,2.7,12.5,8.4l19.6,90.8L239.7,239.4z"/>
</g>
<g>
	<path fill="#009FD9" d="M197.5,146.6c1.4-2.4,3.8-4.3,6.8-4.8l5.4-1c0.9-0.2,1.7-0.2,2.5-0.1l-4.3-19.7l3.8-0.8l-1.4-7l-23.1,4.7
		l1.4,7l3.8-0.8l4.9,22.4L197.5,146.6z"/>
	<g>
		<path fill="#44566B" d="M196.6,147.8l-4.9-22.4l-3.8,0.8l-1.8-8.9l25.1-5.1l1.8,8.9l-3.8,0.8l4.4,20l-1.3-0.1
			c-0.8-0.1-1.5,0-2.3,0.1l-5.4,1c-2.6,0.5-4.8,2-6.1,4.3l-0.2,0.4L196.6,147.8z M193.3,123l4.6,21.2c1.6-1.8,3.8-3.1,6.2-3.5l5.4-1
			c0.5-0.1,1-0.1,1.5-0.2l-4.2-19.4l3.8-0.8l-1-5l-21.1,4.3l1,5L193.3,123z"/>
	</g>
</g>
<g>
	<path fill="#43566B" d="M256.1,273.6h-58.4l-2.7-10.6c-0.7-2.6-1.8-5.1-3.4-7.3l-6.8-9.5c-2.4-3.3-3.7-7.2-3.8-11.3l-0.1-2.1
		c-0.2-6.1,2.3-12,6.8-16.1l16.6-15l1.3,1.5l-16.6,15c-4.1,3.7-6.3,9-6.1,14.5l0.1,2.1c0.1,3.7,1.3,7.2,3.5,10.2l6.8,9.5
		c1.7,2.4,3,5.1,3.7,8l2.4,9.1h55l4.9-44.3c0.4-3.5-0.1-7.1-1.4-10.4l-17.7-45.2c-1-2.5-3.3-4.2-6-4.3L224,167l0.1-2l10.2,0.4
		c3.5,0.1,6.5,2.3,7.8,5.5l17.7,45.2c1.4,3.6,1.9,7.5,1.5,11.3L256.1,273.6z"/>
</g>
<g>
	<path fill="#43566B" d="M197.8,208.1l-9.8-30.4c-1.1-3.3,0.3-6.8,3.2-8.6l6.1-3.6l1,1.7l-6.1,3.6c-2.2,1.3-3.1,3.8-2.4,6.2
		l9.8,30.4L197.8,208.1z"/>
</g>
<g>
	<path fill="#43566B" d="M187.4,217.9l-9.7-29.9c-1.2-3.6,0.6-7.4,4-9l5.7-2.5l0.8,1.8l-5.7,2.5c-2.5,1.1-3.8,3.9-2.9,6.5l9.7,29.9
		L187.4,217.9z"/>
</g>
<g>
	<path fill="#43566B" d="M183.2,224.5l-11.7-22.2c-1.7-3.3-0.7-7.3,2.3-9.4l4.9-3.5l1.1,1.6l-4.9,3.5c-2.2,1.5-2.9,4.5-1.7,6.8
		l11.7,22.2L183.2,224.5z"/>
</g>
<g>
	<path fill="#43566B" d="M206.2,162.6c-1.3,0-2.6-0.4-3.7-1.3c-1.3-1-2.2-2.5-2.4-4.1l-0.5-3.8c-0.2-1.6,0.2-3.3,1.2-4.6
		c1-1.3,2.5-2.2,4.1-2.4l5.7-0.8c1.6-0.2,3.3,0.2,4.6,1.2c1.3,1,2.2,2.5,2.4,4.1l0.5,3.8c0.2,1.6-0.2,3.3-1.2,4.6
		c-1,1.3-2.5,2.2-4.1,2.4l-5.7,0.8C206.7,162.6,206.5,162.6,206.2,162.6z M211.4,147.6c-0.2,0-0.4,0-0.6,0l-5.7,0.8
		c-1.1,0.1-2.1,0.7-2.8,1.6c-0.7,0.9-1,2-0.8,3.1l0.5,3.8c0.3,2.3,2.4,3.9,4.7,3.6l5.7-0.8c2.3-0.3,3.9-2.4,3.6-4.7l-0.5-3.8
		c-0.1-1.1-0.7-2.1-1.6-2.8C213.2,147.9,212.3,147.6,211.4,147.6z"/>
</g>
<g>
	<g>
		<path fill="#BFDEFF" d="M238.1,151.5c-2.2,0-4-1.8-4-4c0-2.2,1.8-4,4-4c2.2,0,4,1.8,4,4C242.1,149.7,240.3,151.5,238.1,151.5z
			 M238.1,145.5c-1.1,0-2,0.9-2,2c0,1.1,0.9,2,2,2c1.1,0,2-0.9,2-2C240.1,146.4,239.2,145.5,238.1,145.5z"/>
	</g>
	<g>
		<path fill="#BFDEFF" d="M238.1,132.9c-2.2,0-4-1.8-4-4c0-2.2,1.8-4,4-4c2.2,0,4,1.8,4,4C242.1,131.1,240.3,132.9,238.1,132.9z
			 M238.1,126.9c-1.1,0-2,0.9-2,2c0,1.1,0.9,2,2,2c1.1,0,2-0.9,2-2C240.1,127.8,239.2,126.9,238.1,126.9z"/>
	</g>
	<g>
		<path fill="#BFDEFF" d="M238.1,114.2c-2.2,0-4-1.8-4-4c0-2.2,1.8-4,4-4c2.2,0,4,1.8,4,4C242.1,112.4,240.3,114.2,238.1,114.2z
			 M238.1,108.2c-1.1,0-2,0.9-2,2c0,1.1,0.9,2,2,2c1.1,0,2-0.9,2-2C240.1,109.1,239.2,108.2,238.1,108.2z"/>
	</g>
</g>
<g>
	<path fill="#43566B" d="M282.4,239.9h-2v-2h2V239.9z M282.4,235.9h-2v-2h2V235.9z M282.4,231.9h-2v-2h2V231.9z M282.4,227.9h-2v-2
		h2V227.9z M282.4,223.9h-2v-2h2V223.9z M282.4,219.9h-2v-2h2V219.9z M282.4,215.9h-2v-2h2V215.9z M282.4,211.9h-2v-2h2V211.9z
		 M282.4,207.9h-2v-2h2V207.9z M282.4,203.9h-2v-2h2V203.9z M282.4,199.9h-2v-2h2V199.9z M282.4,195.9h-2v-2h2V195.9z M282.4,191.9
		h-2v-2h2V191.9z M282.4,187.9h-2v-2h2V187.9z M282.4,183.9h-2v-2h2V183.9z M282.4,179.9h-2v-2h2V179.9z M282.4,175.9h-2v-2h2V175.9
		z M282.4,171.9h-2v-2h2V171.9z M282.4,167.9h-2v-2h2V167.9z M282.4,163.9h-2v-2h2V163.9z M282.4,159.9h-2v-2h2V159.9z M282.4,155.9
		h-2v-2h2V155.9z M282.4,151.9h-2v-2h2V151.9z M282.4,147.9h-2v-2h2V147.9z M282.4,143.9h-2v-2h2V143.9z M282.4,139.9h-2v-2h2V139.9
		z M282.4,135.9h-2v-2h2V135.9z M282.4,131.9h-2v-2h2V131.9z M282.4,127.9h-2v-2h2V127.9z M282.4,123.9h-2v-2h2V123.9z"/>
</g>
<path fill="#00A0D8" d="M191,73c0-0.1,0.1-0.2,0.2-0.2s0.2,0.1,0.2,0.2l1.4,4.5c0.1,0.2,0.3,0.4,0.6,0.4h4.7c0.1,0,0.2,0.1,0.2,0.2
	c0,0.1,0,0.2-0.1,0.3l-3.8,2.8c-0.2,0.2-0.3,0.4-0.2,0.7l1.4,4.5c0,0.1,0,0.2-0.1,0.3s-0.2,0.1-0.3,0l-3.8-2.8
	c-0.2-0.2-0.5-0.2-0.7,0l-3.8,2.8c-0.1,0.1-0.2,0.1-0.3,0s-0.1-0.2-0.1-0.3l1.4-4.5c0.1-0.2,0-0.5-0.2-0.7l-3.8-2.8
	c-0.1-0.1-0.1-0.2-0.1-0.3c0-0.1,0.1-0.2,0.2-0.2h4.7c0.3,0,0.5-0.2,0.6-0.4L191,73z"/>
</svg>
