<?xml version="1.0" encoding="utf-8"?>
<!-- Generator: Adobe Illustrator 18.0.0, SVG Export Plug-In . SVG Version: 6.00 Build 0)  -->
<!DOCTYPE svg PUBLIC "-//W3C//DTD SVG 1.1//EN" "http://www.w3.org/Graphics/SVG/1.1/DTD/svg11.dtd">
<svg version="1.1" xmlns="http://www.w3.org/2000/svg" xmlns:xlink="http://www.w3.org/1999/xlink" x="0px" y="0px"
	 viewBox="0 123.3 595.3 595.3" enable-background="new 0 123.3 595.3 595.3" xml:space="preserve">
<g id="Layer_1">
	<path display="none" fill="#F6F9FC" d="M423.2,526.5v4.8h-230v-4.8l99.7-72.9l15.3-11.2l15.3,11.2L423.2,526.5L423.2,526.5z"/>
	<circle fill="#F6F9FC" cx="297.6" cy="420.9" r="297.6"/>
	<path display="none" fill="#F6F9FC" d="M423.2,526.5L423.2,526.5L423.2,526.5l-99.7-72.9l61.3-44.9l38.3-28V526.5z"/>
	<path display="none" fill="#F6F9FC" d="M423.2,380.7l-38.3,28v-28H423.2z"/>
	<path display="none" fill="#F6F9FC" d="M423.2,380.7h-38.3v-28L423.2,380.7z"/>
	<path display="none" fill="#F6F9FC" d="M337.4,336.8"/>
	<path display="none" fill="#F6F9FC" d="M292.8,453.6l-99.7,72.9V380.7l38.3,28L292.8,453.6z"/>
	<path display="none" fill="#F6F9FC" d="M231.5,380.7v28l-38.3-28H231.5z"/>
	<path display="none" fill="#F6F9FC" d="M231.5,352.7v28h-38.3L231.5,352.7z"/>
</g>
<g id="Layer_2">
	<g>
		<circle fill="#FDF0F6" cx="296" cy="425.9" r="131"/>
		<path fill="#EE0979" d="M296,561.7c-74.9,0-135.8-60.9-135.8-135.8c0-74.9,60.9-135.8,135.8-135.8s135.8,60.9,135.8,135.8
			C431.8,500.8,370.9,561.7,296,561.7z M296,299.8c-69.5,0-126.1,56.6-126.1,126.1S226.5,552,296,552s126.1-56.6,126.1-126.1
			S365.6,299.8,296,299.8z"/>
	</g>
	<g opacity="0.1">
		<g>
			<g>
				<path fill="#231F20" d="M318.6,446.8c-2.9-2.8-6.5-2.8-9.4,0c-2.2,2.2-4.4,4.3-6.5,6.5c-0.6,0.6-1.1,0.7-1.8,0.3
					c-1.4-0.8-2.9-1.4-4.3-2.2c-6.3-4-11.7-9.1-16.4-14.9c-2.3-2.9-4.4-5.9-5.9-9.4c-0.3-0.7-0.2-1.2,0.3-1.7
					c2.2-2.1,4.3-4.3,6.5-6.5c3-3,3-6.5,0-9.6c-1.7-1.7-3.4-3.4-5.1-5.1c-1.8-1.8-3.5-3.5-5.3-5.3c-2.9-2.8-6.5-2.8-9.4,0
					c-2.2,2.2-4.3,4.4-6.6,6.5c-2.1,2-3.1,4.4-3.3,7.2c-0.3,4.6,0.8,8.9,2.4,13.1c3.2,8.7,8.2,16.5,14.1,23.5
					c8.1,9.6,17.7,17.2,29,22.7c5.1,2.5,10.3,4.4,16,4.7c3.9,0.2,7.4-0.8,10.1-3.8c1.9-2.1,4-4,6-6c2.9-3,3-6.6,0-9.5
					C325.6,453.8,322.1,450.3,318.6,446.8L318.6,446.8z M318.6,446.8"/>
			</g>
		</g>
		<g>
			<path fill="#231F20" d="M315.1,432.1l6.8-1.2c-1.1-6.2-4-11.9-8.5-16.4c-4.7-4.7-10.7-7.7-17.3-8.6l-1,6.8
				c5.1,0.7,9.7,3,13.4,6.7C312,423,314.2,427.3,315.1,432.1L315.1,432.1z M315.1,432.1"/>
		</g>
		<g>
			<path fill="#231F20" d="M325.7,402.7c-7.8-7.8-17.7-12.8-28.7-14.3l-1,6.8c9.4,1.3,18,5.6,24.8,12.4c6.4,6.4,10.6,14.5,12.1,23.4
				l6.8-1.2C338,419.5,333.1,410.1,325.7,402.7L325.7,402.7z M325.7,402.7"/>
		</g>
	</g>
	<g>
		<g>
			<g>
				<path fill="#00AFF0" d="M319,440.2c-2.9-2.8-6.5-2.8-9.4,0c-2.2,2.2-4.4,4.3-6.5,6.5c-0.6,0.6-1.1,0.7-1.8,0.3
					c-1.4-0.8-2.9-1.4-4.3-2.2c-6.3-4-11.7-9.1-16.4-14.9c-2.3-2.9-4.4-5.9-5.9-9.4c-0.3-0.7-0.2-1.2,0.3-1.7
					c2.2-2.1,4.3-4.3,6.5-6.5c3-3,3-6.5,0-9.6c-1.7-1.7-3.4-3.4-5.1-5.1c-1.8-1.8-3.5-3.5-5.3-5.3c-2.9-2.8-6.5-2.8-9.4,0
					c-2.2,2.2-4.3,4.4-6.6,6.5c-2.1,2-3.1,4.4-3.3,7.2c-0.3,4.6,0.8,8.9,2.4,13.1c3.2,8.7,8.2,16.5,14.1,23.5
					c8.1,9.6,17.7,17.2,29,22.7c5.1,2.5,10.3,4.4,16,4.7c3.9,0.2,7.4-0.8,10.1-3.8c1.9-2.1,4-4,6-6c2.9-3,3-6.6,0-9.5
					C326,447.2,322.5,443.7,319,440.2L319,440.2z M319,440.2"/>
			</g>
		</g>
		<g>
			<path fill="#00AFF0" d="M315.5,425.5l6.8-1.2c-1.1-6.2-4-11.9-8.5-16.4c-4.7-4.7-10.7-7.7-17.3-8.6l-1,6.8
				c5.1,0.7,9.7,3,13.4,6.7C312.4,416.3,314.7,420.7,315.5,425.5L315.5,425.5z M315.5,425.5"/>
		</g>
		<g>
			<path fill="#00AFF0" d="M326.1,396.1c-7.8-7.8-17.7-12.8-28.7-14.3l-1,6.8c9.4,1.3,18,5.6,24.8,12.4c6.4,6.4,10.6,14.5,12.1,23.4
				l6.8-1.2C338.4,412.9,333.5,403.5,326.1,396.1L326.1,396.1z M326.1,396.1"/>
		</g>
	</g>
	<g>
		<circle fill="#FDF0F6" cx="301.7" cy="287" r="42.1"/>
		<path fill="#EE0979" d="M301.7,333.9c-25.9,0-46.9-21-46.9-46.9c0-25.9,21-46.9,46.9-46.9c25.9,0,46.9,21,46.9,46.9
			C348.6,312.9,327.5,333.9,301.7,333.9z M301.7,249.7c-20.5,0-37.3,16.7-37.3,37.3s16.7,37.3,37.3,37.3s37.3-16.7,37.3-37.3
			S322.2,249.7,301.7,249.7z"/>
	</g>
	<g>
		<circle fill="#FDF0F6" cx="165.6" cy="377.6" r="42.1"/>
		<path fill="#EE0979" d="M165.6,424.6c-4.9,0-9.8-0.8-14.5-2.3c-24.6-8-38.1-34.5-30.1-59.1c6.3-19.4,24.2-32.4,44.6-32.4
			c4.9,0,9.8,0.8,14.5,2.3c11.9,3.9,21.6,12.2,27.3,23.3c5.7,11.2,6.7,23.9,2.8,35.8C204,411.5,186,424.6,165.6,424.6z M165.6,340.3
			c-16.2,0-30.4,10.4-35.4,25.8c-6.3,19.5,4.4,40.6,23.9,47c3.7,1.2,7.6,1.8,11.5,1.8c16.2,0,30.4-10.4,35.4-25.8
			c3.1-9.5,2.3-19.6-2.2-28.4c-4.5-8.9-12.2-15.4-21.7-18.5C173.4,341,169.5,340.3,165.6,340.3z"/>
	</g>
	<g>
		<circle fill="#FDF0F6" cx="209.8" cy="535" r="42.1"/>
		<path fill="#EE0979" d="M209.8,581.9c-9.9,0-19.5-3.1-27.5-9c-20.9-15.2-25.6-44.6-10.4-65.5c8.8-12.1,23-19.3,38-19.3
			c9.9,0,19.5,3.1,27.5,9c20.9,15.2,25.6,44.6,10.4,65.5C239,574.7,224.8,581.9,209.8,581.9z M209.8,497.7
			c-11.9,0-23.2,5.7-30.2,15.4c-12.1,16.6-8.4,40,8.2,52.1c6.4,4.7,14,7.1,21.9,7.1c11.9,0,23.2-5.7,30.2-15.4
			c12.1-16.6,8.4-40-8.2-52.1C225.3,500.2,217.7,497.7,209.8,497.7z"/>
	</g>
	<g>
		<circle fill="#FDF0F6" cx="373.1" cy="541.6" r="42.1"/>
		<path fill="#EE0979" d="M373.1,588.6c-15,0-29.2-7.2-38-19.3c-7.4-10.1-10.3-22.5-8.4-34.9c2-12.4,8.6-23.3,18.8-30.6
			c8.1-5.9,17.6-9,27.5-9c15,0,29.2,7.2,38,19.3c15.2,20.9,10.6,50.3-10.4,65.5C392.6,585.5,383.1,588.6,373.1,588.6z M373.1,504.4
			c-7.9,0-15.5,2.5-21.9,7.1c-8.1,5.9-13.3,14.5-14.9,24.3c-1.6,9.8,0.8,19.7,6.7,27.7c7,9.6,18.3,15.4,30.2,15.4
			c7.9,0,15.5-2.5,21.9-7.1c16.6-12.1,20.3-35.4,8.2-52C396.3,510.1,385,504.4,373.1,504.4z"/>
	</g>
	<g>
		<circle fill="#FDF0F6" cx="429.9" cy="388.4" r="42.1"/>
		<path fill="#EE0979" d="M429.9,435.3c-20.4,0-38.3-13-44.6-32.4c-3.9-11.9-2.9-24.6,2.8-35.8c5.7-11.2,15.4-19.5,27.3-23.3
			c4.7-1.5,9.6-2.3,14.5-2.3c20.4,0,38.3,13,44.6,32.4c3.9,11.9,2.9,24.6-2.8,35.8c-5.7,11.2-15.4,19.5-27.3,23.3
			C439.7,434.5,434.8,435.3,429.9,435.3z M429.9,351.1c-3.9,0-7.8,0.6-11.5,1.8c-9.5,3.1-17.2,9.7-21.7,18.5
			c-4.5,8.9-5.3,19-2.2,28.4c5,15.4,19.2,25.8,35.4,25.8c3.9,0,7.8-0.6,11.5-1.8c9.5-3.1,17.2-9.7,21.7-18.5
			c4.5-8.9,5.3-19,2.2-28.4C460.3,361.4,446.1,351.1,429.9,351.1z"/>
	</g>
	<g>
		<g>
			<path fill="#00AFF0" d="M301.6,286.8c4.7,0,8.5-5.8,8.5-11.1c0-5.4-3.7-8.2-8.5-8.2s-8.5,2.9-8.5,8.2
				C293.1,281,296.9,286.8,301.6,286.8z"/>
		</g>
		<g>
			<path fill="#00AFF0" d="M313.5,289.3l-5.4-2.6l-3.6,7.5l-1.8-4.9c-0.4,0.1-0.7,0.1-1.1,0.1c-0.4,0-0.7-0.1-1.1-0.1l-1.9,5.1
				l-3.6-7.6l-5.3,2.5c-2.4,1.1-4.3,3.9-4.3,6.1v3.6H318v-3.6C317.8,293.3,315.9,290.5,313.5,289.3z"/>
		</g>
	</g>
	<g>
		<g>
			<path fill="#00AFF0" d="M431.4,391.9c4.7,0,8.5-5.8,8.5-11.1c0-5.4-3.7-8.2-8.5-8.2s-8.5,2.9-8.5,8.2
				C423,386.1,426.7,391.9,431.4,391.9z"/>
		</g>
		<g>
			<path fill="#00AFF0" d="M443.4,394.4l-5.4-2.6l-3.6,7.5l-1.8-4.9c-0.4,0.1-0.7,0.1-1.1,0.1c-0.4,0-0.7-0.1-1.1-0.1l-1.9,5.1
				l-3.6-7.6l-5.3,2.5c-2.4,1.1-4.3,3.9-4.3,6.1v3.6h32.6v-3.6C447.7,398.4,445.7,395.6,443.4,394.4z"/>
		</g>
	</g>
	<g>
		<g>
			<path fill="#00AFF0" d="M373,545.2c4.7,0,8.5-5.8,8.5-11.1c0-5.4-3.7-8.2-8.5-8.2s-8.5,2.9-8.5,8.2
				C364.6,539.3,368.3,545.2,373,545.2z"/>
		</g>
		<g>
			<path fill="#00AFF0" d="M385,547.7l-5.4-2.6l-3.6,7.5l-1.8-4.9c-0.4,0.1-0.7,0.1-1.1,0.1c-0.4,0-0.7-0.1-1.1-0.1l-1.9,5.1
				l-3.6-7.6l-5.3,2.5c-2.4,1.1-4.3,3.9-4.3,6.1v3.6h32.6v-3.6C389.3,551.7,387.3,548.9,385,547.7z"/>
		</g>
	</g>
	<g>
		<g>
			<path fill="#00AFF0" d="M209.7,538.5c4.7,0,8.5-5.8,8.5-11.1c0-5.4-3.7-8.2-8.5-8.2c-4.7,0-8.5,2.9-8.5,8.2
				C201.3,532.7,205,538.5,209.7,538.5z"/>
		</g>
		<g>
			<path fill="#00AFF0" d="M221.7,541l-5.4-2.6l-3.6,7.5l-1.8-4.9c-0.4,0.1-0.7,0.1-1.1,0.1c-0.4,0-0.7-0.1-1.1-0.1l-1.9,5.1
				l-3.6-7.6l-5.3,2.5c-2.4,1.1-4.3,3.9-4.3,6.1v3.6h32.6v-3.6C226,545.1,224,542.3,221.7,541z"/>
		</g>
	</g>
	<g>
		<g>
			<path fill="#00AFF0" d="M165.6,381.2c4.7,0,8.5-5.8,8.5-11.1c0-5.4-3.7-8.2-8.5-8.2c-4.7,0-8.5,2.9-8.5,8.2
				C157.1,375.3,160.8,381.2,165.6,381.2z"/>
		</g>
		<g>
			<path fill="#00AFF0" d="M177.5,383.7l-5.4-2.6l-3.6,7.5l-1.8-4.9c-0.4,0.1-0.7,0.1-1.1,0.1c-0.4,0-0.7-0.1-1.1-0.1l-1.9,5.1
				l-3.6-7.6l-5.3,2.5c-2.4,1.1-4.3,3.9-4.3,6.1v3.6h32.6v-3.6C181.8,387.7,179.9,384.9,177.5,383.7z"/>
		</g>
	</g>
</g>
</svg>
