<?xml version="1.0" encoding="utf-8"?>
<!-- Generator: Adobe Illustrator 18.0.0, SVG Export Plug-In . SVG Version: 6.00 Build 0)  -->
<!DOCTYPE svg PUBLIC "-//W3C//DTD SVG 1.1//EN" "http://www.w3.org/Graphics/SVG/1.1/DTD/svg11.dtd">
<svg version="1.1" xmlns="http://www.w3.org/2000/svg" xmlns:xlink="http://www.w3.org/1999/xlink" x="0px" y="0px"
	 viewBox="0 123.3 595.3 595.3" enable-background="new 0 123.3 595.3 595.3" xml:space="preserve">
<g id="Layer_1">
	<circle fill="#F6F9FC" cx="297.6" cy="420.9" r="297.6"/>
	<path fill="#F6F9FC" d="M423.2,526.5v4.8h-230v-4.8l99.7-72.9l15.3-11.2l15.3,11.2L423.2,526.5L423.2,526.5z"/>
	<path fill="#F6F9FC" d="M423.2,526.5L423.2,526.5L423.2,526.5l-99.7-72.9l61.3-44.9l38.3-28V526.5z"/>
	<path fill="#F6F9FC" d="M423.2,380.7l-38.3,28v-28H423.2z"/>
	<path fill="#F6F9FC" d="M423.2,380.7h-38.3v-28L423.2,380.7z"/>
	<polygon fill="#F6F9FC" points="384.8,380.7 384.8,408.8 323.5,453.6 308.2,442.4 292.8,453.6 231.5,408.8 231.5,298 384.8,298 	
		"/>
	<path fill="#F6F9FC" d="M337.4,336.8"/>
	<path fill="#F6F9FC" d="M292.8,453.6l-99.7,72.9V380.7l38.3,28L292.8,453.6z"/>
	<path fill="#F6F9FC" d="M231.5,380.7v28l-38.3-28H231.5z"/>
	<path fill="#F6F9FC" d="M231.5,352.7v28h-38.3L231.5,352.7z"/>
	<g>
		<path fill="#F6F9FC" stroke="#06D79C" stroke-width="16" stroke-linejoin="round" stroke-miterlimit="10" d="M231.5,380.7h-38.3
			v150.6h230V380.7h-38.3 M193.2,526.5l99.7-72.9l15.3-11.2l15.3,11.2l99.7,72.9 M423.2,380.7l-38.3-28 M231.5,352.7l-38.3,28
			 M292.8,453.6l-61.3-44.9l-38.3-28 M423.2,380.7l-38.3,28l-61.3,44.9 M384.8,408.8V298H231.5v110.8"/>
	</g>
	
		<path fill="#F6F9FC" stroke="#06D79C" stroke-width="16" stroke-linecap="round" stroke-linejoin="round" stroke-miterlimit="10" d="
		M258.1,388.9h100.1 M268,413.2h80.4"/>
	<g>
		<g>
			<path fill="#F6F9FC" d="M319.1,350.1c-1.4-1.4-3.3-1.4-4.7,0c-1.1,1.1-2.2,2.2-3.3,3.3c-0.3,0.3-0.5,0.4-0.9,0.2
				c-0.8-0.4-1.5-0.7-2.2-1.1c-3.2-2-5.9-4.6-8.3-7.5c-1.2-1.4-2.3-3-2.9-4.7c-0.2-0.4-0.2-0.6,0.2-0.9c1.1-1.1,2.2-2.2,3.3-3.2
				c1.5-1.5,1.5-3.3,0-4.8c-0.9-0.9-1.7-1.7-2.6-2.6c-0.9-0.9-1.8-1.8-2.7-2.7c-1.4-1.4-3.3-1.4-4.7,0c-1.1,1.1-2.2,2.3-3.3,3.3
				c-1.1,1-1.6,2.2-1.7,3.6c-0.2,2.3,0.4,4.5,1.2,6.6c1.7,4.4,4.1,8.3,7.1,11.9c4.1,4.9,8.9,8.7,14.7,11.4c2.6,1.3,5.2,2.2,8.1,2.3
				c2,0.1,3.7-0.4,5.1-2c1-1.1,2-2,3-3c1.5-1.5,1.5-3.3,0-4.8C322.6,353.6,320.9,351.9,319.1,350.1L319.1,350.1z"/>
		</g>
		<path fill="#F6F9FC" d="M317.3,342.7l3.5-0.6c-0.5-3.2-2-6-4.3-8.3c-2.4-2.4-5.4-3.9-8.7-4.4l-0.5,3.5c2.6,0.4,4.9,1.5,6.8,3.4
			C315.8,338,316.9,340.2,317.3,342.7L317.3,342.7z"/>
		<path fill="#F6F9FC" d="M322.7,327.7c-4-4-8.9-6.5-14.5-7.2l-0.5,3.5c4.8,0.7,9.1,2.9,12.6,6.2c3.2,3.2,5.3,7.4,6.2,11.9l3.5-0.6
			C328.8,336.3,326.4,331.6,322.7,327.7L322.7,327.7z"/>
	</g>
</g>
<g id="Layer_2">
	<g>
		<path fill="#FBCDE4" d="M457.3,569.8v6.4h-306v-6.4l132.6-97l20.4-14.9l20.4,14.9L457.3,569.8L457.3,569.8z M457.3,569.8"/>
	</g>
	<g>
		<path fill="#FBCDE4" d="M457.3,569.8L457.3,569.8L457.3,569.8l-132.6-97l81.6-59.7l51-37.3V569.8z M457.3,569.8"/>
	</g>
	<g>
		<path fill="#FBCDE4" d="M457.3,375.8l-51,37.3v-37.3H457.3z M457.3,375.8"/>
	</g>
	<g>
		<path fill="#FBCDE4" d="M457.3,375.8h-51v-37.3L457.3,375.8z M457.3,375.8"/>
	</g>
	<g>
		<polygon fill="#E6FBF5" points="406.3,375.8 406.3,413.1 324.7,472.8 304.3,457.9 283.9,472.8 202.2,413.1 202.2,265.7 
			406.3,265.7 		"/>
	</g>
	<g>
		<path fill="#EFEF78" d="M343.2,317.3"/>
	</g>
	<g>
		<path fill="#FBCDE4" d="M283.9,472.8l-132.6,97v-194l51,37.3L283.9,472.8z M283.9,472.8"/>
	</g>
	<g>
		<path fill="#FBCDE4" d="M202.2,375.8v37.3l-51-37.3H202.2z M202.2,375.8"/>
	</g>
	<g>
		<path fill="#FBCDE4" d="M202.2,338.5v37.3h-51L202.2,338.5z M202.2,338.5"/>
	</g>
	<g>
		<g>
			<path fill="#EE0979" d="M457.3,584.2h-306c-4.4,0-8-3.6-8-8V375.8c0-2.7,1.3-5.1,3.4-6.5l47.6-34.8v-68.7c0-4.4,3.6-8,8-8h204.1
				c4.4,0,8,3.6,8,8v68.7l47.6,34.8c2,1.5,3.4,3.8,3.4,6.5v200.4C465.3,580.6,461.7,584.2,457.3,584.2z M167.1,568.2h274.4
				L304.3,467.8L167.1,568.2z M338.2,472.8l111,81.3V391.6L338.2,472.8z M159.3,391.6v162.5l111.1-81.3L159.3,391.6z M304.3,449.9
				c1.7,0,3.3,0.5,4.7,1.5l15.7,11.5l73.6-53.9V273.7H210.2V409l73.6,53.9l15.7-11.5C300.9,450.4,302.6,449.9,304.3,449.9z
				 M175.7,383.8l18.5,13.5v-13.5H175.7z M414.3,383.8v13.5l18.5-13.5H414.3z M414.3,367.8h18.5l-18.5-13.5V367.8z M175.7,367.8
				h18.5v-13.5L175.7,367.8z"/>
		</g>
	</g>
	<g>
		<path fill="#F684BC" d="M357.8,427h-107c-4.4,0-8-3.6-8-8s3.6-8,8-8h107c4.4,0,8,3.6,8,8S362.2,427,357.8,427z M370.9,394.6H237.7
			c-4.4,0-8-3.6-8-8s3.6-8,8-8h133.2c4.4,0,8,3.6,8,8S375.3,394.6,370.9,394.6z"/>
	</g>
	<g>
		<g>
			<g>
				<path fill="#00AFF0" d="M318.8,335c-1.9-1.9-4.4-1.9-6.3,0c-1.5,1.5-2.9,2.9-4.4,4.4c-0.4,0.4-0.7,0.5-1.2,0.2
					c-1-0.5-2-0.9-2.9-1.5c-4.3-2.7-7.8-6.1-11-10c-1.6-1.9-3-4-3.9-6.3c-0.2-0.5-0.2-0.8,0.2-1.2c1.5-1.4,2.9-2.9,4.4-4.3
					c2-2,2-4.4,0-6.4c-1.2-1.2-2.3-2.3-3.5-3.5c-1.2-1.2-2.4-2.4-3.6-3.6c-1.9-1.9-4.4-1.9-6.3,0c-1.5,1.5-2.9,3-4.4,4.4
					c-1.4,1.3-2.1,2.9-2.3,4.8c-0.2,3.1,0.5,6,1.6,8.8c2.2,5.9,5.5,11.1,9.5,15.8c5.4,6.5,11.9,11.6,19.5,15.2
					c3.4,1.7,6.9,2.9,10.8,3.1c2.6,0.1,4.9-0.5,6.8-2.6c1.3-1.4,2.7-2.7,4-4c2-2,2-4.4,0-6.4C323.5,339.7,321.1,337.4,318.8,335
					L318.8,335z M318.8,335"/>
			</g>
		</g>
		<g>
			<path fill="#00AFF0" d="M316.4,325.2l4.6-0.8c-0.7-4.2-2.7-8-5.7-11c-3.2-3.2-7.2-5.2-11.6-5.8l-0.6,4.6c3.4,0.5,6.5,2,9,4.5
				C314.3,319,315.8,321.9,316.4,325.2L316.4,325.2z M316.4,325.2"/>
		</g>
		<g>
			<path fill="#00AFF0" d="M323.5,305.3c-5.3-5.3-11.9-8.6-19.3-9.6l-0.6,4.6c6.4,0.9,12.1,3.8,16.7,8.3c4.3,4.3,7.1,9.8,8.2,15.8
				l4.6-0.8C331.8,316.7,328.5,310.4,323.5,305.3L323.5,305.3z M323.5,305.3"/>
		</g>
	</g>
</g>
</svg>
