<?xml version="1.0" encoding="utf-8"?>
<!-- Generator: Adobe Illustrator 18.0.0, SVG Export Plug-In . SVG Version: 6.00 Build 0)  -->
<!DOCTYPE svg PUBLIC "-//W3C//DTD SVG 1.1//EN" "http://www.w3.org/Graphics/SVG/1.1/DTD/svg11.dtd">
<svg version="1.1" id="Layer_1" xmlns="http://www.w3.org/2000/svg" xmlns:xlink="http://www.w3.org/1999/xlink" x="0px" y="0px"
	 viewBox="0 0 792 792" enable-background="new 0 0 792 792" xml:space="preserve">
<path display="none" fill="#F6F9FC" d="M563,536.5v6.4H257v-6.4l132.6-97l20.4-14.9l20.4,14.9L563,536.5L563,536.5z M563,536.5"/>
<circle fill="#F6F9FC" cx="396" cy="396" r="396"/>
<path display="none" fill="#F6F9FC" d="M563,536.5L563,536.5L563,536.5l-132.6-97l81.6-59.7l51-37.3V536.5z M563,536.5"/>
<path display="none" fill="#F6F9FC" d="M563,342.5l-51,37.3v-37.3H563z M563,342.5"/>
<path display="none" fill="#F6F9FC" d="M563,342.5h-51v-37.3L563,342.5z M563,342.5"/>
<path display="none" fill="#F6F9FC" d="M448.9,284"/>
<path display="none" fill="#F6F9FC" d="M389.6,439.5l-132.6,97v-194l51,37.3L389.6,439.5z M389.6,439.5"/>
<path display="none" fill="#F6F9FC" d="M308,342.5v37.3l-51-37.3H308z M308,342.5"/>
<path display="none" fill="#F6F9FC" d="M308,305.2v37.3h-51L308,305.2z M308,305.2"/>
<circle fill="#E6FBF5" stroke="#06D79C" stroke-width="8" stroke-miterlimit="10" cx="390.2" cy="402.7" r="173.9"/>
<g opacity="0.1">
	<g>
		<path d="M416.7,427.2c-3.8-3.8-8.6-3.8-12.4,0c-2.9,2.9-5.8,5.8-8.7,8.7c-0.8,0.8-1.4,1-2.4,0.4c-1.9-1-3.9-1.9-5.7-3
			c-8.4-5.3-15.5-12.1-21.7-19.8c-3.1-3.8-5.9-7.9-7.8-12.5c-0.4-0.9-0.3-1.5,0.4-2.3c2.9-2.8,5.7-5.7,8.6-8.6c4-4,4-8.7,0-12.7
			c-2.3-2.3-4.5-4.5-6.8-6.8c-2.3-2.3-4.7-4.7-7-7c-3.8-3.7-8.6-3.7-12.4,0c-2.9,2.9-5.7,5.8-8.7,8.7c-2.8,2.6-4.1,5.8-4.4,9.5
			c-0.5,6.1,1,11.8,3.1,17.4c4.3,11.6,10.8,21.8,18.8,31.3c10.7,12.7,23.5,22.8,38.5,30.1c6.7,3.3,13.7,5.8,21.3,6.2
			c5.2,0.3,9.8-1,13.4-5.1c2.5-2.8,5.3-5.3,7.9-8c3.9-4,3.9-8.7,0-12.6C426.1,436.5,421.4,431.8,416.7,427.2L416.7,427.2z
			 M416.7,427.2"/>
	</g>
	<path d="M412.1,407.7l9-1.5c-1.4-8.3-5.3-15.8-11.3-21.7c-6.3-6.3-14.2-10.2-22.9-11.4l-1.3,9.1c6.8,1,12.9,4,17.8,8.9
		C408,395.5,411,401.4,412.1,407.7L412.1,407.7z M412.1,407.7"/>
	<path d="M426.2,368.6c-10.4-10.4-23.6-17-38.1-19l-1.3,9.1c12.5,1.8,23.9,7.4,32.9,16.4c8.5,8.5,14.1,19.3,16.1,31.1l9-1.5
		C442.5,390.9,436,378.5,426.2,368.6L426.2,368.6z M426.2,368.6"/>
</g>
<g>
	<g>
		<path fill="#00AFF0" d="M420.7,421.6c-3.8-3.8-8.6-3.8-12.4,0c-2.9,2.9-5.8,5.8-8.7,8.7c-0.8,0.8-1.4,1-2.4,0.4
			c-1.9-1-3.9-1.9-5.7-3c-8.4-5.3-15.5-12.1-21.7-19.8c-3.1-3.8-5.9-7.9-7.8-12.5c-0.4-0.9-0.3-1.5,0.4-2.3c2.9-2.8,5.7-5.7,8.6-8.6
			c4-4,4-8.7,0-12.7c-2.3-2.3-4.5-4.5-6.8-6.8c-2.3-2.3-4.7-4.7-7-7c-3.8-3.7-8.6-3.7-12.4,0c-2.9,2.9-5.7,5.8-8.7,8.7
			c-2.8,2.6-4.1,5.8-4.4,9.5c-0.5,6.1,1,11.8,3.1,17.4c4.3,11.6,10.8,21.8,18.8,31.3c10.7,12.7,23.5,22.8,38.5,30.1
			c6.7,3.3,13.7,5.8,21.3,6.2c5.2,0.3,9.8-1,13.4-5.1c2.5-2.8,5.3-5.3,7.9-8c3.9-4,3.9-8.7,0-12.6
			C430.1,430.9,425.4,426.2,420.7,421.6L420.7,421.6z M420.7,421.6"/>
	</g>
	<path fill="#00AFF0" d="M416.1,402.1l9-1.5c-1.4-8.3-5.3-15.8-11.3-21.7c-6.3-6.3-14.2-10.2-22.9-11.4l-1.3,9.1
		c6.8,1,12.9,4,17.8,8.9C412,389.9,415,395.8,416.1,402.1L416.1,402.1z M416.1,402.1"/>
	<path fill="#00AFF0" d="M430.2,363c-10.4-10.4-23.6-17-38.1-19l-1.3,9.1c12.5,1.8,23.9,7.4,32.9,16.4c8.5,8.5,14.1,19.3,16.1,31.1
		l9-1.5C446.5,385.3,440,372.9,430.2,363L430.2,363z M430.2,363"/>
</g>
<circle fill="#E6FBF5" stroke="#06D79C" stroke-width="8" stroke-miterlimit="10" cx="397.7" cy="218.2" r="55.9"/>
<circle fill="#E6FBF5" stroke="#06D79C" stroke-width="8" stroke-miterlimit="10" cx="217.1" cy="338.5" r="55.9"/>
<circle fill="#E6FBF5" stroke="#06D79C" stroke-width="8" stroke-miterlimit="10" cx="275.7" cy="547.5" r="55.9"/>
<circle fill="#E6FBF5" stroke="#06D79C" stroke-width="8" stroke-miterlimit="10" cx="492.6" cy="556.3" r="55.9"/>
<circle fill="#E6FBF5" stroke="#06D79C" stroke-width="8" stroke-miterlimit="10" cx="568" cy="352.8" r="55.9"/>
<g>
	<path fill="#00AFF0" d="M397.6,217.9c6.3,0,11.2-7.7,11.2-14.7c0-7.2-5-10.9-11.2-10.9c-6.3,0-11.2,3.9-11.2,10.9
		C386.4,210.2,391.3,217.9,397.6,217.9z"/>
	<path fill="#00AFF0" d="M413.4,221.2l-7.2-3.5l-4.8,9.9l-2.4-6.4c-0.6,0.2-0.9,0.2-1.5,0.2c-0.6,0-0.9-0.2-1.5-0.2l-2.6,6.8
		l-4.8-10.1l-7,3.3c-3.1,1.5-5.7,5.2-5.7,8.1v4.8h43.3v-4.8C419.1,226.6,416.6,222.9,413.4,221.2z"/>
</g>
<g>
	<path fill="#00AFF0" d="M570,357.5c6.3,0,11.2-7.7,11.2-14.7c0-7.2-5-10.9-11.2-10.9c-6.3,0-11.2,3.9-11.2,10.9
		C558.8,349.7,563.7,357.5,570,357.5z"/>
	<path fill="#00AFF0" d="M585.8,360.8l-7.2-3.5l-4.8,9.9l-2.4-6.4c-0.6,0.2-0.9,0.2-1.5,0.2c-0.6,0-0.9-0.2-1.5-0.2l-2.6,6.8
		l-4.8-10.1l-7,3.3c-3.1,1.5-5.7,5.2-5.7,8.1v4.8h43.3v-4.8C591.6,366.1,589,362.4,585.8,360.8z"/>
</g>
<g>
	<path fill="#00AFF0" d="M492.5,561c6.3,0,11.2-7.7,11.2-14.7c0-7.2-5-10.9-11.2-10.9c-6.3,0-11.2,3.9-11.2,10.9
		C481.2,553.3,486.2,561,492.5,561z"/>
	<path fill="#00AFF0" d="M508.3,564.3l-7.2-3.5l-4.8,9.9l-2.4-6.4c-0.6,0.2-0.9,0.2-1.5,0.2c-0.6,0-0.9-0.2-1.5-0.2l-2.6,6.8
		l-4.8-10.1l-7,3.3c-3.1,1.5-5.7,5.2-5.7,8.1v4.8h43.3v-4.8C514,569.7,511.4,566,508.3,564.3z"/>
</g>
<g>
	<path fill="#00AFF0" d="M275.6,552.2c6.3,0,11.2-7.7,11.2-14.7c0-7.2-5-10.9-11.2-10.9c-6.3,0-11.2,3.9-11.2,10.9
		C264.4,544.4,269.4,552.2,275.6,552.2z"/>
	<path fill="#00AFF0" d="M291.5,555.5l-7.2-3.5l-4.8,9.9l-2.4-6.4c-0.6,0.2-0.9,0.2-1.5,0.2c-0.6,0-0.9-0.2-1.5-0.2l-2.6,6.8
		l-4.8-10.1l-7,3.3c-3.1,1.5-5.7,5.2-5.7,8.1v4.8h43.3v-4.8C297.2,560.8,294.6,557.2,291.5,555.5z"/>
</g>
<g>
	<path fill="#00AFF0" d="M217,343.2c6.3,0,11.2-7.7,11.2-14.7c0-7.2-5-10.9-11.2-10.9s-11.2,3.9-11.2,10.9
		C205.7,335.5,210.7,343.2,217,343.2z"/>
	<path fill="#00AFF0" d="M232.8,346.5l-7.2-3.5l-4.8,9.9l-2.4-6.4c-0.6,0.2-0.9,0.2-1.5,0.2c-0.6,0-0.9-0.2-1.5-0.2l-2.6,6.8
		l-4.8-10.1l-7,3.3c-3.1,1.5-5.7,5.2-5.7,8.1v4.8h43.3v-4.8C238.5,351.9,236,348.2,232.8,346.5z"/>
</g>
</svg>
