<?xml version="1.0" encoding="utf-8"?>
<!-- Generator: Adobe Illustrator 18.0.0, SVG Export Plug-In . SVG Version: 6.00 Build 0)  -->
<!DOCTYPE svg PUBLIC "-//W3C//DTD SVG 1.1//EN" "http://www.w3.org/Graphics/SVG/1.1/DTD/svg11.dtd">
<svg version="1.1" xmlns="http://www.w3.org/2000/svg" xmlns:xlink="http://www.w3.org/1999/xlink" x="0px" y="0px"
	 viewBox="0 0 792 792" enable-background="new 0 0 792 792" xml:space="preserve">
<g id="Layer_1">
	<path display="none" fill="#F6F9FC" d="M563,536.5v6.4H257v-6.4l132.6-97l20.4-14.9l20.4,14.9L563,536.5L563,536.5z M563,536.5"/>
	<circle fill="#F6F9FC" cx="396" cy="396" r="396"/>
	<path display="none" fill="#F6F9FC" d="M563,536.5L563,536.5L563,536.5l-132.6-97l81.6-59.7l51-37.3V536.5z M563,536.5"/>
	<path display="none" fill="#F6F9FC" d="M563,342.5l-51,37.3v-37.3H563z M563,342.5"/>
	<path display="none" fill="#F6F9FC" d="M563,342.5h-51v-37.3L563,342.5z M563,342.5"/>
	<path display="none" fill="#F6F9FC" d="M448.9,284"/>
	<path display="none" fill="#F6F9FC" d="M389.6,439.5l-132.6,97v-194l51,37.3L389.6,439.5z M389.6,439.5"/>
	<path display="none" fill="#F6F9FC" d="M308,342.5v37.3l-51-37.3H308z M308,342.5"/>
	<path display="none" fill="#F6F9FC" d="M308,305.2v37.3h-51L308,305.2z M308,305.2"/>
	
		<circle display="none" fill="#E6FBF5" stroke="#06D79C" stroke-width="8" stroke-miterlimit="10" cx="390.2" cy="402.7" r="173.9"/>
	<g display="none" opacity="0.1">
		<g display="inline">
			<path d="M416.7,427.2c-3.8-3.8-8.6-3.8-12.4,0c-2.9,2.9-5.8,5.8-8.7,8.7c-0.8,0.8-1.4,1-2.4,0.4c-1.9-1-3.9-1.9-5.7-3
				c-8.4-5.3-15.5-12.1-21.7-19.8c-3.1-3.8-5.9-7.9-7.8-12.5c-0.4-0.9-0.3-1.5,0.4-2.3c2.9-2.8,5.7-5.7,8.6-8.6c4-4,4-8.7,0-12.7
				c-2.3-2.3-4.5-4.5-6.8-6.8c-2.3-2.3-4.7-4.7-7-7c-3.8-3.7-8.6-3.7-12.4,0c-2.9,2.9-5.7,5.8-8.7,8.7c-2.8,2.6-4.1,5.8-4.4,9.5
				c-0.5,6.1,1,11.8,3.1,17.4c4.3,11.6,10.8,21.8,18.8,31.3c10.7,12.7,23.5,22.8,38.5,30.1c6.7,3.3,13.7,5.8,21.3,6.2
				c5.2,0.3,9.8-1,13.4-5.1c2.5-2.8,5.3-5.3,7.9-8c3.9-4,3.9-8.7,0-12.6C426.1,436.5,421.4,431.8,416.7,427.2L416.7,427.2z
				 M416.7,427.2"/>
		</g>
		<path display="inline" d="M412.1,407.7l9-1.5c-1.4-8.3-5.3-15.8-11.3-21.7c-6.3-6.3-14.2-10.2-22.9-11.4l-1.3,9.1
			c6.8,1,12.9,4,17.8,8.9C408,395.5,411,401.4,412.1,407.7L412.1,407.7z M412.1,407.7"/>
		<path display="inline" d="M426.2,368.6c-10.4-10.4-23.6-17-38.1-19l-1.3,9.1c12.5,1.8,23.9,7.4,32.9,16.4
			c8.5,8.5,14.1,19.3,16.1,31.1l9-1.5C442.5,390.9,436,378.5,426.2,368.6L426.2,368.6z M426.2,368.6"/>
	</g>
	<g display="none">
		<g display="inline">
			<path fill="#00AFF0" d="M420.7,421.6c-3.8-3.8-8.6-3.8-12.4,0c-2.9,2.9-5.8,5.8-8.7,8.7c-0.8,0.8-1.4,1-2.4,0.4
				c-1.9-1-3.9-1.9-5.7-3c-8.4-5.3-15.5-12.1-21.7-19.8c-3.1-3.8-5.9-7.9-7.8-12.5c-0.4-0.9-0.3-1.5,0.4-2.3
				c2.9-2.8,5.7-5.7,8.6-8.6c4-4,4-8.7,0-12.7c-2.3-2.3-4.5-4.5-6.8-6.8c-2.3-2.3-4.7-4.7-7-7c-3.8-3.7-8.6-3.7-12.4,0
				c-2.9,2.9-5.7,5.8-8.7,8.7c-2.8,2.6-4.1,5.8-4.4,9.5c-0.5,6.1,1,11.8,3.1,17.4c4.3,11.6,10.8,21.8,18.8,31.3
				c10.7,12.7,23.5,22.8,38.5,30.1c6.7,3.3,13.7,5.8,21.3,6.2c5.2,0.3,9.8-1,13.4-5.1c2.5-2.8,5.3-5.3,7.9-8c3.9-4,3.9-8.7,0-12.6
				C430.1,430.9,425.4,426.2,420.7,421.6L420.7,421.6z M420.7,421.6"/>
		</g>
		<path display="inline" fill="#00AFF0" d="M416.1,402.1l9-1.5c-1.4-8.3-5.3-15.8-11.3-21.7c-6.3-6.3-14.2-10.2-22.9-11.4l-1.3,9.1
			c6.8,1,12.9,4,17.8,8.9C412,389.9,415,395.8,416.1,402.1L416.1,402.1z M416.1,402.1"/>
		<path display="inline" fill="#00AFF0" d="M430.2,363c-10.4-10.4-23.6-17-38.1-19l-1.3,9.1c12.5,1.8,23.9,7.4,32.9,16.4
			c8.5,8.5,14.1,19.3,16.1,31.1l9-1.5C446.5,385.3,440,372.9,430.2,363L430.2,363z M430.2,363"/>
	</g>
	<circle display="none" fill="#E6FBF5" stroke="#06D79C" stroke-width="8" stroke-miterlimit="10" cx="397.7" cy="218.2" r="55.9"/>
	<circle display="none" fill="#E6FBF5" stroke="#06D79C" stroke-width="8" stroke-miterlimit="10" cx="217.1" cy="338.5" r="55.9"/>
	<circle display="none" fill="#E6FBF5" stroke="#06D79C" stroke-width="8" stroke-miterlimit="10" cx="275.7" cy="547.5" r="55.9"/>
	<circle display="none" fill="#E6FBF5" stroke="#06D79C" stroke-width="8" stroke-miterlimit="10" cx="492.6" cy="556.3" r="55.9"/>
	<circle display="none" fill="#E6FBF5" stroke="#06D79C" stroke-width="8" stroke-miterlimit="10" cx="568" cy="352.8" r="55.9"/>
	<g display="none">
		<path display="inline" fill="#00AFF0" d="M397.6,217.9c6.3,0,11.2-7.7,11.2-14.7c0-7.2-5-10.9-11.2-10.9
			c-6.3,0-11.2,3.9-11.2,10.9C386.4,210.2,391.3,217.9,397.6,217.9z"/>
		<path display="inline" fill="#00AFF0" d="M413.4,221.2l-7.2-3.5l-4.8,9.9l-2.4-6.4c-0.6,0.2-0.9,0.2-1.5,0.2
			c-0.6,0-0.9-0.2-1.5-0.2l-2.6,6.8l-4.8-10.1l-7,3.3c-3.1,1.5-5.7,5.2-5.7,8.1v4.8h43.3v-4.8C419.1,226.6,416.6,222.9,413.4,221.2z
			"/>
	</g>
	<g display="none">
		<path display="inline" fill="#00AFF0" d="M570,357.5c6.3,0,11.2-7.7,11.2-14.7c0-7.2-5-10.9-11.2-10.9c-6.3,0-11.2,3.9-11.2,10.9
			C558.8,349.7,563.7,357.5,570,357.5z"/>
		<path display="inline" fill="#00AFF0" d="M585.8,360.8l-7.2-3.5l-4.8,9.9l-2.4-6.4c-0.6,0.2-0.9,0.2-1.5,0.2
			c-0.6,0-0.9-0.2-1.5-0.2l-2.6,6.8l-4.8-10.1l-7,3.3c-3.1,1.5-5.7,5.2-5.7,8.1v4.8h43.3v-4.8C591.6,366.1,589,362.4,585.8,360.8z"
			/>
	</g>
	<g display="none">
		<path display="inline" fill="#00AFF0" d="M492.5,561c6.3,0,11.2-7.7,11.2-14.7c0-7.2-5-10.9-11.2-10.9c-6.3,0-11.2,3.9-11.2,10.9
			C481.2,553.3,486.2,561,492.5,561z"/>
		<path display="inline" fill="#00AFF0" d="M508.3,564.3l-7.2-3.5l-4.8,9.9l-2.4-6.4c-0.6,0.2-0.9,0.2-1.5,0.2
			c-0.6,0-0.9-0.2-1.5-0.2l-2.6,6.8l-4.8-10.1l-7,3.3c-3.1,1.5-5.7,5.2-5.7,8.1v4.8h43.3v-4.8C514,569.7,511.4,566,508.3,564.3z"/>
	</g>
	<g display="none">
		<path display="inline" fill="#00AFF0" d="M275.6,552.2c6.3,0,11.2-7.7,11.2-14.7c0-7.2-5-10.9-11.2-10.9
			c-6.3,0-11.2,3.9-11.2,10.9C264.4,544.4,269.4,552.2,275.6,552.2z"/>
		<path display="inline" fill="#00AFF0" d="M291.5,555.5l-7.2-3.5l-4.8,9.9l-2.4-6.4c-0.6,0.2-0.9,0.2-1.5,0.2
			c-0.6,0-0.9-0.2-1.5-0.2l-2.6,6.8l-4.8-10.1l-7,3.3c-3.1,1.5-5.7,5.2-5.7,8.1v4.8h43.3v-4.8C297.2,560.8,294.6,557.2,291.5,555.5z
			"/>
	</g>
	<g display="none">
		<path display="inline" fill="#00AFF0" d="M217,343.2c6.3,0,11.2-7.7,11.2-14.7c0-7.2-5-10.9-11.2-10.9s-11.2,3.9-11.2,10.9
			C205.7,335.5,210.7,343.2,217,343.2z"/>
		<path display="inline" fill="#00AFF0" d="M232.8,346.5l-7.2-3.5l-4.8,9.9l-2.4-6.4c-0.6,0.2-0.9,0.2-1.5,0.2
			c-0.6,0-0.9-0.2-1.5-0.2l-2.6,6.8l-4.8-10.1l-7,3.3c-3.1,1.5-5.7,5.2-5.7,8.1v4.8h43.3v-4.8C238.5,351.9,236,348.2,232.8,346.5z"
			/>
	</g>
</g>
<g id="Layer_2">
	<path fill="#E6FBF5" d="M260.4,532.6V315h332v217.5c0,6.3-5.2,11.4-11.4,11.4H271.9C265.6,544,260.4,538.9,260.4,532.6"/>
	<path fill="#82EBCD" d="M260.4,315v-45.8c0-6.3,5.2-11.4,11.4-11.4H581c6.3,0,11.4,5.2,11.4,11.4V315H260.4z"/>
	<path fill="#06D79C" d="M581,257.8h-17.2c6.3,0,11.4,5.2,11.4,11.4V315v217.5c0,6.3-5.2,11.4-11.4,11.4H581
		c6.3,0,11.4-5.2,11.4-11.4V315v-45.8C592.4,262.9,587.3,257.8,581,257.8"/>
	<path fill="#FFFFFF" d="M271.9,257.8H289c-6.3,0-11.4,5.2-11.4,11.4V315v217.5c0,6.3,5.2,11.4,11.4,11.4h-17.2
		c-6.3,0-11.4-5.2-11.4-11.4V315v-45.8C260.4,262.9,265.6,257.8,271.9,257.8"/>
	<g>
		<polygon fill="#E6FBF5" points="306.2,383.7 340.6,383.7 340.6,349.4 306.2,349.4 		"/>
		<polygon fill="#E6FBF5" points="374.9,383.7 409.3,383.7 409.3,349.4 374.9,349.4 		"/>
		<polygon fill="#E6FBF5" points="443.6,383.7 478,383.7 478,349.4 443.6,349.4 		"/>
		<polygon fill="#E6FBF5" points="512.3,383.7 546.6,383.7 546.6,349.4 512.3,349.4 		"/>
		<polygon fill="#E6FBF5" points="306.2,446.7 340.6,446.7 340.6,412.3 306.2,412.3 		"/>
		<polygon fill="#E6FBF5" points="374.9,446.7 409.3,446.7 409.3,412.3 374.9,412.3 		"/>
		<polygon fill="#E6FBF5" points="306.2,509.7 340.6,509.7 340.6,475.3 306.2,475.3 		"/>
		<polygon fill="#E6FBF5" points="374.9,509.7 409.3,509.7 409.3,475.3 374.9,475.3 		"/>
	</g>
	<path fill="#E6FBF5" d="M552.4,463.9c0-31.5-25.8-57.2-57.2-57.2s-57.2,25.8-57.2,57.2s25.8,57.2,57.2,57.2
		S552.4,495.4,552.4,463.9"/>
	<path fill="#82EBCD" d="M495.1,406.6c-2.9,0-5.7,0.6-8.6,0.6c27.5,4.6,48.7,28,48.7,56.7c0,28.6-21.2,52.7-48.7,56.7
		c2.9,0.6,5.7,0.6,8.6,0.6c31.5,0,57.2-25.8,57.2-57.2S526.6,406.6,495.1,406.6"/>
	<path fill="#06D79C" d="M581,549.7H271.9c-9.7,0-17.2-7.4-17.2-17.2V315c0-3.4,2.3-5.7,5.7-5.7h332c3.4,0,5.7,2.3,5.7,5.7v217.5
		C598.2,542.3,590.7,549.7,581,549.7z M266.2,320.8v211.8c0,3.4,2.3,5.7,5.7,5.7H581c3.4,0,5.7-2.3,5.7-5.7V320.8H266.2z"/>
	<path fill="#06D79C" d="M592.4,320.8h-332c-3.4,0-5.7-2.3-5.7-5.7v-45.8c0-9.7,7.4-17.2,17.2-17.2H581c9.7,0,17.2,7.4,17.2,17.2
		V315C598.2,318.5,595.9,320.8,592.4,320.8z M266.2,309.3h320.6v-40.1c0-3.4-2.3-5.7-5.7-5.7H271.9c-3.4,0-5.7,2.3-5.7,5.7V309.3z"
		/>
	<path fill="#06D79C" d="M552.4,286.4c-3.4,0-5.7-2.3-5.7-5.7c0-3.4,2.3-5.7,5.7-5.7c9.7,0,17.2-7.4,17.2-17.2s-7.4-17.2-17.2-17.2
		s-17.2,7.4-17.2,17.2c0,3.4-2.3,5.7-5.7,5.7s-5.7-2.3-5.7-5.7c0-16,12.6-28.6,28.6-28.6c16,0,28.6,12.6,28.6,28.6
		S568.4,286.4,552.4,286.4z"/>
	<path fill="#06D79C" d="M489.4,286.4c-3.4,0-5.7-2.3-5.7-5.7c0-3.4,2.3-5.7,5.7-5.7c9.7,0,17.2-7.4,17.2-17.2s-7.4-17.2-17.2-17.2
		s-17.2,7.4-17.2,17.2c0,3.4-2.3,5.7-5.7,5.7s-5.7-2.3-5.7-5.7c0-16,12.6-28.6,28.6-28.6c16,0,28.6,12.6,28.6,28.6
		S505.4,286.4,489.4,286.4z"/>
	<path fill="#06D79C" d="M426.4,286.4c-3.4,0-5.7-2.3-5.7-5.7c0-3.4,2.3-5.7,5.7-5.7c9.7,0,17.2-7.4,17.2-17.2s-7.4-17.2-17.2-17.2
		s-17.2,7.4-17.2,17.2c0,3.4-2.3,5.7-5.7,5.7c-3.4,0-5.7-2.3-5.7-5.7c0-16,12.6-28.6,28.6-28.6s28.6,12.6,28.6,28.6
		S442.5,286.4,426.4,286.4z"/>
	<path fill="#06D79C" d="M363.5,286.4c-3.4,0-5.7-2.3-5.7-5.7c0-3.4,2.3-5.7,5.7-5.7c9.7,0,17.2-7.4,17.2-17.2s-7.4-17.2-17.2-17.2
		c-9.7,0-17.2,7.4-17.2,17.2c0,3.4-2.3,5.7-5.7,5.7c-3.4,0-5.7-2.3-5.7-5.7c0-16,12.6-28.6,28.6-28.6c16,0,28.6,12.6,28.6,28.6
		S379.5,286.4,363.5,286.4z"/>
	<path fill="#06D79C" d="M300.5,286.4c-3.4,0-5.7-2.3-5.7-5.7c0-3.4,2.3-5.7,5.7-5.7c9.7,0,17.2-7.4,17.2-17.2s-7.4-17.2-17.2-17.2
		s-17.2,7.4-17.2,17.2c0,3.4-2.3,5.7-5.7,5.7c-3.4,0-5.7-2.3-5.7-5.7c0-16,12.6-28.6,28.6-28.6c16,0,28.6,12.6,28.6,28.6
		S316.5,286.4,300.5,286.4z"/>
	<path fill="#06D79C" d="M340.6,389.5h-34.3c-3.4,0-5.7-2.3-5.7-5.7v-34.3c0-3.4,2.3-5.7,5.7-5.7h34.3c3.4,0,5.7,2.3,5.7,5.7v34.3
		C346.3,387.2,344,389.5,340.6,389.5z M311.9,378h22.9v-22.9h-22.9V378z"/>
	<path fill="#06D79C" d="M409.3,389.5h-34.3c-3.4,0-5.7-2.3-5.7-5.7v-34.3c0-3.4,2.3-5.7,5.7-5.7h34.3c3.4,0,5.7,2.3,5.7,5.7v34.3
		C415,387.2,412.7,389.5,409.3,389.5z M380.6,378h22.9v-22.9h-22.9V378z"/>
	<path fill="#06D79C" d="M478,389.5h-34.3c-3.4,0-5.7-2.3-5.7-5.7v-34.3c0-3.4,2.3-5.7,5.7-5.7H478c3.4,0,5.7,2.3,5.7,5.7v34.3
		C483.7,387.2,481.4,389.5,478,389.5z M449.3,378h22.9v-22.9h-22.9V378z"/>
	<path fill="#06D79C" d="M546.6,389.5h-34.3c-3.4,0-5.7-2.3-5.7-5.7v-34.3c0-3.4,2.3-5.7,5.7-5.7h34.3c3.4,0,5.7,2.3,5.7,5.7v34.3
		C552.4,387.2,550.1,389.5,546.6,389.5z M518,378h22.9v-22.9H518V378z"/>
	<path fill="#06D79C" d="M340.6,452.4h-34.3c-3.4,0-5.7-2.3-5.7-5.7v-34.3c0-3.4,2.3-5.7,5.7-5.7h34.3c3.4,0,5.7,2.3,5.7,5.7v34.3
		C346.3,450.1,344,452.4,340.6,452.4z M311.9,441h22.9v-22.9h-22.9V441z"/>
	<path fill="#06D79C" d="M409.3,452.4h-34.3c-3.4,0-5.7-2.3-5.7-5.7v-34.3c0-3.4,2.3-5.7,5.7-5.7h34.3c3.4,0,5.7,2.3,5.7,5.7v34.3
		C415,450.1,412.7,452.4,409.3,452.4z M380.6,441h22.9v-22.9h-22.9V441z"/>
	<path fill="#06D79C" d="M340.6,515.4h-34.3c-3.4,0-5.7-2.3-5.7-5.7v-34.3c0-3.4,2.3-5.7,5.7-5.7h34.3c3.4,0,5.7,2.3,5.7,5.7v34.3
		C346.3,513.1,344,515.4,340.6,515.4z M311.9,503.9h22.9V481h-22.9V503.9z"/>
	<path fill="#06D79C" d="M409.3,515.4h-34.3c-3.4,0-5.7-2.3-5.7-5.7v-34.3c0-3.4,2.3-5.7,5.7-5.7h34.3c3.4,0,5.7,2.3,5.7,5.7v34.3
		C415,513.1,412.7,515.4,409.3,515.4z M380.6,503.9h22.9V481h-22.9V503.9z"/>
	<path fill="#06D79C" d="M495.1,526.8c-34.9,0-63-28-63-63s28-63,63-63s63,28,63,63S530,526.8,495.1,526.8z M495.1,412.3
		c-28.6,0-51.5,22.9-51.5,51.5c0,28.6,22.9,51.5,51.5,51.5c28.6,0,51.5-22.9,51.5-51.5C546.6,435.2,523.7,412.3,495.1,412.3z"/>
	<path fill="#00AFF0" d="M481.4,495.5c-1.6,0-2.6-0.5-3.6-1.6L457,473.2c-2.1-2.1-2.1-5.2,0-7.3c2.1-2.1,5.2-2.1,7.3,0l16.1,16.1
		l27.5-41.5c1.6-2.6,4.7-3.1,7.3-1.6c2.6,1.6,3.1,4.7,1.6,7.3l-31.2,46.7C485,494.5,483.5,495.5,481.4,495.5
		C481.9,495.5,481.4,495.5,481.4,495.5z"/>
	<g>
		<circle fill="#FFFFFF" cx="202.7" cy="446.9" r="73.3"/>
		<circle fill="#06D79C" cx="206.9" cy="444.9" r="61"/>
		<circle fill="#00AFF0" cx="206.9" cy="444.9" r="49.3"/>
		<g>
			<path fill="#FFFFFF" d="M206.8,451.9c9.4,0,16.8-11.6,16.8-22c0-10.8-7.4-16.3-16.8-16.3s-16.8,5.8-16.8,16.3
				C190,440.3,197.4,451.9,206.8,451.9z"/>
			<path fill="#FFFFFF" d="M230.5,456.9l-10.7-5.2l-7.2,14.9l-3.6-9.6c-0.8,0.3-1.4,0.3-2.2,0.3c-0.8,0-1.4-0.3-2.2-0.3l-3.9,10.2
				l-7.2-15.2l-10.5,5c-4.7,2.2-8.5,7.7-8.5,12.1v7.2h64.7V469C239,464.9,235.2,459.3,230.5,456.9z"/>
		</g>
	</g>
	<g>
		<circle fill="#FFFFFF" cx="619.3" cy="390.2" r="52.9"/>
		<circle fill="#06D79C" cx="620.6" cy="388.7" r="45.5"/>
		<circle fill="#00AFF0" cx="620.6" cy="388.7" r="36.8"/>
		<g>
			<path fill="#FFFFFF" d="M620.8,394c-7,0-12.6-8.6-12.6-16.5c0-8,5.6-12.1,12.6-12.1s12.6,4.3,12.6,12.1
				C633.3,385.3,627.8,394,620.8,394z"/>
			<path fill="#FFFFFF" d="M603,397.7l8-3.9l5.4,11.1l2.7-7.2c0.6,0.2,1,0.2,1.7,0.2c0.6,0,1-0.2,1.6-0.2l2.9,7.6l5.3-11.3l7.8,3.7
				c3.5,1.6,6.4,5.8,6.4,9.1v5.4h-48.4v-5.4C596.7,403.6,599.5,399.5,603,397.7z"/>
		</g>
	</g>
</g>
</svg>
