<?xml version="1.0" encoding="utf-8"?>
<!-- Generator: Adobe Illustrator 18.0.0, SVG Export Plug-In . SVG Version: 6.00 Build 0)  -->
<!DOCTYPE svg PUBLIC "-//W3C//DTD SVG 1.1//EN" "http://www.w3.org/Graphics/SVG/1.1/DTD/svg11.dtd">
<svg version="1.1" id="Layer_1" xmlns="http://www.w3.org/2000/svg" xmlns:xlink="http://www.w3.org/1999/xlink" x="0px" y="0px"
	 viewBox="0 123.3 595.2 595.2" enable-background="new 0 123.3 595.2 595.2" xml:space="preserve">
<g id="Layer_1_2_">
	<g id="Layer_1_1_">
		<path display="none" fill="#F6F9FC" d="M423.2,526.5v4.8h-230v-4.8l99.7-72.9l15.3-11.2l15.3,11.2L423.2,526.5L423.2,526.5z"/>
		<circle fill="#F6F9FC" cx="297.6" cy="420.9" r="297.6"/>
		<path display="none" fill="#F6F9FC" d="M423.2,526.5L423.2,526.5L423.2,526.5l-99.7-72.9l61.3-44.9l38.3-28v145.8H423.2z"/>
		<path display="none" fill="#F6F9FC" d="M423.2,380.7l-38.3,28v-28H423.2z"/>
		<path display="none" fill="#F6F9FC" d="M423.2,380.7h-38.3v-28L423.2,380.7z"/>
		<path display="none" fill="#F6F9FC" d="M337.4,336.8"/>
		<path display="none" fill="#F6F9FC" d="M292.8,453.6l-99.7,72.9V380.7l38.3,28L292.8,453.6z"/>
		<path display="none" fill="#F6F9FC" d="M231.5,380.7v28l-38.3-28H231.5z"/>
		<path display="none" fill="#F6F9FC" d="M231.5,352.7v28h-38.3L231.5,352.7z"/>
		<circle display="none" fill="#E6FBF5" stroke="#06D79C" stroke-width="8" stroke-miterlimit="10" cx="293.3" cy="426" r="130.7"/>
		<g display="none" opacity="0.1">
			<g display="inline">
				<path d="M313.2,444.4c-2.9-2.9-6.5-2.9-9.3,0c-2.2,2.2-4.4,4.4-6.5,6.5c-0.6,0.6-1.1,0.8-1.8,0.3c-1.4-0.8-2.9-1.4-4.3-2.3
					c-6.3-4-11.7-9.1-16.3-14.9c-2.3-2.9-4.4-5.9-5.9-9.4c-0.3-0.7-0.2-1.1,0.3-1.7c2.2-2.1,4.3-4.3,6.5-6.5c3-3,3-6.5,0-9.5
					c-1.7-1.7-3.4-3.4-5.1-5.1s-3.5-3.5-5.3-5.3c-2.9-2.8-6.5-2.8-9.3,0c-2.2,2.2-4.3,4.4-6.5,6.5c-2.1,2-3.1,4.4-3.3,7.1
					c-0.4,4.6,0.8,8.9,2.3,13.1c3.2,8.7,8.1,16.4,14.1,23.5c8,9.5,17.7,17.1,28.9,22.6c5,2.5,10.3,4.4,16,4.7
					c3.9,0.2,7.4-0.8,10.1-3.8c1.9-2.1,4-4,5.9-6c2.9-3,2.9-6.5,0-9.5C320.3,451.4,316.7,447.9,313.2,444.4L313.2,444.4z"/>
			</g>
			<path display="inline" d="M309.7,429.7l6.8-1.1c-1.1-6.2-4-11.9-8.5-16.3c-4.7-4.7-10.7-7.7-17.2-8.6l-1,6.8
				c5.1,0.8,9.7,3,13.4,6.7C306.7,420.6,308.9,425,309.7,429.7L309.7,429.7z"/>
			<path display="inline" d="M320.3,400.4c-7.8-7.8-17.7-12.8-28.6-14.3l-1,6.8c9.4,1.4,18,5.6,24.7,12.3
				c6.4,6.4,10.6,14.5,12.1,23.4l6.8-1.1C332.6,417.1,327.7,407.8,320.3,400.4L320.3,400.4z"/>
		</g>
		<g display="none">
			<g display="inline">
				<path fill="#00AFF0" d="M316.2,440.2c-2.9-2.9-6.5-2.9-9.3,0c-2.2,2.2-4.4,4.4-6.5,6.5c-0.6,0.6-1.1,0.8-1.8,0.3
					c-1.4-0.8-2.9-1.4-4.3-2.3c-6.3-4-11.7-9.1-16.3-14.9c-2.3-2.9-4.4-5.9-5.9-9.4c-0.3-0.7-0.2-1.1,0.3-1.7
					c2.2-2.1,4.3-4.3,6.5-6.5c3-3,3-6.5,0-9.5c-1.7-1.7-3.4-3.4-5.1-5.1c-1.7-1.7-3.5-3.5-5.3-5.3c-2.9-2.8-6.5-2.8-9.3,0
					c-2.2,2.2-4.3,4.4-6.5,6.5c-2.1,2-3.1,4.4-3.3,7.1c-0.4,4.6,0.8,8.9,2.3,13.1c3.2,8.7,8.1,16.4,14.1,23.5
					c8,9.5,17.7,17.1,28.9,22.6c5,2.5,10.3,4.4,16,4.7c3.9,0.2,7.4-0.8,10.1-3.8c1.9-2.1,4-4,5.9-6c2.9-3,2.9-6.5,0-9.5
					C323.3,447.2,319.7,443.6,316.2,440.2L316.2,440.2z"/>
			</g>
			<path display="inline" fill="#00AFF0" d="M312.7,425.5l6.8-1.1c-1.1-6.2-4-11.9-8.5-16.3c-4.7-4.7-10.7-7.7-17.2-8.6l-1,6.8
				c5.1,0.8,9.7,3,13.4,6.7C309.7,416.4,311.9,420.8,312.7,425.5L312.7,425.5z"/>
			<path display="inline" fill="#00AFF0" d="M323.3,396.1c-7.8-7.8-17.7-12.8-28.6-14.3l-1,6.8c9.4,1.4,18,5.6,24.7,12.3
				c6.4,6.4,10.6,14.5,12.1,23.4l6.8-1.1C335.6,412.9,330.7,403.6,323.3,396.1L323.3,396.1z"/>
		</g>
		<circle display="none" fill="#E6FBF5" stroke="#06D79C" stroke-width="8" stroke-miterlimit="10" cx="298.9" cy="287.3" r="42"/>
		<circle display="none" fill="#E6FBF5" stroke="#06D79C" stroke-width="8" stroke-miterlimit="10" cx="163.2" cy="377.7" r="42"/>
		<circle display="none" fill="#E6FBF5" stroke="#06D79C" stroke-width="8" stroke-miterlimit="10" cx="207.2" cy="534.8" r="42"/>
		<circle display="none" fill="#E6FBF5" stroke="#06D79C" stroke-width="8" stroke-miterlimit="10" cx="370.2" cy="541.4" r="42"/>
		<circle display="none" fill="#E6FBF5" stroke="#06D79C" stroke-width="8" stroke-miterlimit="10" cx="426.9" cy="388.5" r="42"/>
		<g display="none">
			<path display="inline" fill="#00AFF0" d="M298.8,287.1c4.7,0,8.4-5.8,8.4-11c0-5.4-3.8-8.2-8.4-8.2c-4.7,0-8.4,2.9-8.4,8.2
				C290.4,281.3,294.1,287.1,298.8,287.1z"/>
			<path display="inline" fill="#00AFF0" d="M310.7,289.6l-5.4-2.6l-3.6,7.4l-1.8-4.8c-0.5,0.2-0.7,0.2-1.1,0.2
				c-0.5,0-0.7-0.2-1.1-0.2l-2,5.1l-3.6-7.6l-5.3,2.5c-2.3,1.1-4.3,3.9-4.3,6.1v3.6H315v-3.6C315,293.6,313.1,290.8,310.7,289.6z"/>
		</g>
		<g display="none">
			<path display="inline" fill="#00AFF0" d="M428.4,392c4.7,0,8.4-5.8,8.4-11c0-5.4-3.8-8.2-8.4-8.2c-4.7,0-8.4,2.9-8.4,8.2
				C420,386.1,423.7,392,428.4,392z"/>
			<path display="inline" fill="#00AFF0" d="M440.3,394.5l-5.4-2.6l-3.6,7.4l-1.8-4.8c-0.5,0.2-0.7,0.2-1.1,0.2
				c-0.4,0-0.7-0.2-1.1-0.2l-2,5.1l-3.6-7.6l-5.3,2.5c-2.3,1.1-4.3,3.9-4.3,6.1v3.6h32.5v-3.6C444.7,398.5,442.7,395.7,440.3,394.5z
				"/>
		</g>
		<g display="none">
			<path display="inline" fill="#00AFF0" d="M370.2,545c4.7,0,8.4-5.8,8.4-11c0-5.4-3.8-8.2-8.4-8.2c-4.7,0-8.4,2.9-8.4,8.2
				C361.7,539.2,365.4,545,370.2,545z"/>
			<path display="inline" fill="#00AFF0" d="M382,547.4l-5.4-2.6l-3.6,7.4l-1.8-4.8c-0.5,0.2-0.7,0.2-1.1,0.2
				c-0.5,0-0.7-0.2-1.1-0.2l-2,5.1l-3.6-7.6l-5.3,2.5c-2.3,1.1-4.3,3.9-4.3,6.1v3.6h32.5v-3.6C386.3,551.5,384.4,548.7,382,547.4z"
				/>
		</g>
		<g display="none">
			<path display="inline" fill="#00AFF0" d="M207.1,538.3c4.7,0,8.4-5.8,8.4-11c0-5.4-3.8-8.2-8.4-8.2c-4.7,0-8.4,2.9-8.4,8.2
				C198.7,532.5,202.5,538.3,207.1,538.3z"/>
			<path display="inline" fill="#00AFF0" d="M219.1,540.8l-5.4-2.6l-3.6,7.4l-1.8-4.8c-0.5,0.2-0.7,0.2-1.1,0.2
				c-0.5,0-0.7-0.2-1.1-0.2l-2,5.1l-3.6-7.6l-5.3,2.5c-2.3,1.1-4.3,3.9-4.3,6.1v3.6h32.5v-3.6C223.4,544.8,221.4,542.1,219.1,540.8z
				"/>
		</g>
		<g display="none">
			<path display="inline" fill="#00AFF0" d="M163.1,381.3c4.7,0,8.4-5.8,8.4-11c0-5.4-3.8-8.2-8.4-8.2s-8.4,2.9-8.4,8.2
				C154.6,375.5,158.4,381.3,163.1,381.3z"/>
			<path display="inline" fill="#00AFF0" d="M175,383.7l-5.4-2.6l-3.6,7.4l-1.8-4.8c-0.5,0.2-0.7,0.2-1.1,0.2s-0.7-0.2-1.1-0.2
				l-2,5.1l-3.6-7.6l-5.3,2.5c-2.3,1.1-4.3,3.9-4.3,6.1v3.6h32.5v-3.6C179.3,387.8,177.4,385,175,383.7z"/>
		</g>
	</g>
	<g id="Layer_2" display="none">
		
			<line display="inline" fill="none" stroke="#06D79C" stroke-width="4.1391" stroke-miterlimit="10" x1="297.9" y1="611.9" x2="297.9" y2="231.8"/>
		
			<line display="inline" fill="none" stroke="#06D79C" stroke-width="4.1391" stroke-miterlimit="10" x1="107.9" y1="421.8" x2="487.9" y2="421.8"/>
		
			<line display="inline" fill="none" stroke="#06D79C" stroke-width="4.1391" stroke-miterlimit="10" x1="187.2" y1="532.6" x2="408.6" y2="311.1"/>
		
			<line display="inline" fill="none" stroke="#06D79C" stroke-width="4.1391" stroke-miterlimit="10" x1="187.2" y1="311.1" x2="408.6" y2="532.6"/>
		
			<circle display="inline" fill="#E6FBF5" stroke="#06D79C" stroke-width="4.1391" stroke-miterlimit="10" cx="297.9" cy="421.8" r="113.6"/>
		<circle display="inline" fill="#06D79C" cx="107.9" cy="421.8" r="21.3"/>
		<circle display="inline" fill="#06D79C" cx="487.9" cy="421.8" r="21.3"/>
		<circle display="inline" fill="#06D79C" cx="297.9" cy="231.8" r="21.3"/>
		<circle display="inline" fill="#06D79C" cx="297.9" cy="611.9" r="21.3"/>
		<g display="inline">
			<g>
				<path fill="#00AFF0" d="M287.9,425.4c0,3.6-2.9,6.5-6.5,6.5s-6.5-2.9-6.5-6.5s2.9-6.5,6.5-6.5
					C285.1,418.9,287.9,421.8,287.9,425.4L287.9,425.4z M314.3,418.9c-3.6,0-6.5,2.9-6.5,6.5s2.9,6.5,6.5,6.5s6.5-2.9,6.5-6.5
					S317.9,418.9,314.3,418.9L314.3,418.9z M342,445.3v-0.8c-0.8,2.2-1.7,4.2-2.6,6.2c0.2,1.2,0.5,2.9,1.1,4.9
					c2.6,4.1,10.1,9.4,15.3,10.7c-2.8,1.2-6.2,1.7-9.4,1.2c3,3.8,7.2,7.1,13.2,9.2c-13.8,12.5-36.7,12.8-52.7,3.1
					c-3.1,0.9-6.1,1.4-8.9,1.4s-5.9-0.5-8.9-1.4c-15.9,9.7-38.8,9.4-52.7-3.1c6-2.1,10.3-5.6,13.3-9.4c-2.6,0.1-5.3-0.4-7.5-1.4
					c3.8-1,8.8-4.1,12.3-7.3c1.2-3.2,1.8-6.1,2.1-7.9c-1-2-1.9-4.1-2.6-6.2v0.8h-8c-6.2,0-11.2-5-11.2-11.2v-12.3
					c0-4.3,2.4-8,5.9-9.8c0.2-17.5,5.2-31.1,15.2-40.6c9.8-9.4,24.1-14.1,42.1-14.1s32.2,4.7,42.1,14.1c9.9,9.5,15,23.1,15.2,40.6
					c3.5,1.9,5.9,5.6,5.9,9.8v12.3c0,6.2-5,11.2-11.2,11.2L342,445.3L342,445.3z M337.3,425.4c0-2.9-0.2-5.6-0.4-8.2
					c-5-4.6-14.3-8.1-25.9-9.3c1.9,1.7,3.5,3.8,4.3,7c-6.8-5-21-6.5-25.7-11.8l0,0c-7.5-5-9.5-12.1-9.5-9.2
					c-0.3,14.1-10.3,25.2-21.4,26.7c-0.1,1.6-0.2,3.2-0.2,4.7c0,5.9,1,11.4,2.6,16.3c6.2,7.5,16.5,9.7,25.7,10.2
					c1.7-2.7,5.5-4.6,9.9-4.6c6,0,10.9,3.5,10.9,7.7c0,4.2-4.9,7.7-10.9,7.7c-4.6,0-8.6-2-10.1-5c-6.4-0.4-13.4-1.4-19.6-4.4
					c8.8,12.9,22.4,19.8,31,19.8C311.2,473.3,337.3,456.4,337.3,425.4L337.3,425.4z M344.1,410.6h4.3c-0.7-30.5-18.1-46.7-50.5-46.7
					s-49.8,16.2-50.5,46.7h4.3c1.6-10.3,4.9-18.7,10-25.3c8-10.4,20.2-15.6,36.2-15.6s28.2,5.3,36.2,15.6
					C339.2,391.8,342.5,400.3,344.1,410.6L344.1,410.6z"/>
			</g>
		</g>
		<g display="inline">
			<path fill="#FFFFFF" d="M297.9,233.1c3.2,0,5.9-4.1,5.9-7.7c0-3.8-2.6-5.7-5.9-5.7s-5.9,2-5.9,5.7S294.6,233.1,297.9,233.1z"/>
			<path fill="#FFFFFF" d="M306.1,234.8l-3.8-1.8l-2.5,5.2l-1.3-3.4c-0.3,0.1-0.5,0.1-0.8,0.1c-0.3,0-0.5-0.1-0.8-0.1l-1.4,3.5
				L293,233l-3.7,1.7c-1.7,0.8-3,2.7-3,4.2v2.5h22.6v-2.5C309.1,237.6,307.7,235.7,306.1,234.8z"/>
		</g>
		<g display="inline">
			<path fill="#FFFFFF" d="M297.9,614.4c3.2,0,5.9-4.1,5.9-7.7c0-3.8-2.6-5.7-5.9-5.7s-5.9,2-5.9,5.7S294.6,614.4,297.9,614.4z"/>
			<path fill="#FFFFFF" d="M306.1,616.1l-3.8-1.8l-2.5,5.2l-1.3-3.4c-0.3,0.1-0.5,0.1-0.8,0.1c-0.3,0-0.5-0.1-0.8-0.1l-1.4,3.5
				l-2.5-5.3l-3.7,1.7c-1.7,0.8-3,2.7-3,4.2v2.5h22.6v-2.5C309.1,618.9,307.7,617,306.1,616.1z"/>
		</g>
		<g display="inline">
			<path fill="#FFFFFF" d="M107.8,424.3c3.2,0,5.9-4.1,5.9-7.7c0-3.8-2.6-5.7-5.9-5.7c-3.2,0-5.9,2-5.9,5.7S104.5,424.3,107.8,424.3
				z"/>
			<path fill="#FFFFFF" d="M116,426.1l-3.8-1.8l-2.5,5.2l-1.3-3.4c-0.3,0.1-0.5,0.1-0.8,0.1c-0.3,0-0.5-0.1-0.8-0.1l-1.4,3.5
				l-2.5-5.3l-3.7,1.7c-1.7,0.8-3,2.7-3,4.2v2.5h22.6v-2.5C119.1,428.8,117.7,427,116,426.1z"/>
		</g>
		<g display="inline">
			<path fill="#FFFFFF" d="M487.9,424.3c3.2,0,5.9-4.1,5.9-7.7c0-3.8-2.6-5.7-5.9-5.7c-3.2,0-5.9,2-5.9,5.7S484.6,424.3,487.9,424.3
				z"/>
			<path fill="#FFFFFF" d="M496.1,426.1l-3.8-1.8l-2.5,5.2l-1.3-3.4c-0.3,0.1-0.5,0.1-0.8,0.1c-0.3,0-0.5-0.1-0.8-0.1l-1.4,3.5
				l-2.5-5.3l-3.7,1.7c-1.7,0.8-3,2.7-3,4.2v2.5h22.6v-2.5C499.1,428.8,497.8,427,496.1,426.1z"/>
		</g>
	</g>
</g>
<g id="Layer_2_1_">
	<g>
		<line fill="none" x1="297.3" y1="610.5" x2="297.3" y2="232.1"/>
		<rect x="294" y="232.1" fill="#EE0979" width="6.7" height="378.5"/>
	</g>
	<g>
		<line fill="none" x1="108.1" y1="421.3" x2="486.5" y2="421.3"/>
		<rect x="108.1" y="418" fill="#EE0979" width="378.5" height="6.7"/>
	</g>
	<g>
		<line fill="none" x1="187" y1="531.5" x2="407.5" y2="311"/>
		
			<rect x="294" y="265.4" transform="matrix(-0.707 -0.7072 0.7072 -0.707 209.578 929.4958)" fill="#EE0979" width="6.7" height="311.8"/>
	</g>
	<g>
		<line fill="none" x1="187" y1="311" x2="407.5" y2="531.5"/>
		
			<rect x="141.4" y="418" transform="matrix(-0.7071 -0.7071 0.7071 -0.7071 209.5114 929.447)" fill="#EE0979" width="311.8" height="6.7"/>
	</g>
	<g>
		<circle fill="#FDF0F6" cx="297.3" cy="421.3" r="113.1"/>
		<path fill="#EE0979" d="M297.3,537.7c-64.2,0-116.4-52.2-116.4-116.4s52.2-116.4,116.4-116.4s116.4,52.2,116.4,116.4
			S361.5,537.7,297.3,537.7z M297.3,311.5c-60.5,0-109.8,49.2-109.8,109.8s49.2,109.8,109.8,109.8c60.5,0,109.8-49.2,109.8-109.8
			S357.8,311.5,297.3,311.5z"/>
	</g>
	<g>
		<circle fill="#EE0979" cx="108.1" cy="421.3" r="21.2"/>
	</g>
	<g>
		<circle fill="#EE0979" cx="486.5" cy="421.3" r="21.2"/>
	</g>
	<g>
		<circle fill="#EE0979" cx="297.3" cy="232.1" r="21.2"/>
	</g>
	<circle fill="#EE0979" cx="297.3" cy="610.5" r="21.2"/>
	<g>
		<g>
			<path fill="#00AFF0" d="M287.4,424.8c0,3.6-2.9,6.5-6.5,6.5s-6.5-2.9-6.5-6.5s2.9-6.5,6.5-6.5S287.4,421.2,287.4,424.8
				L287.4,424.8z M313.6,418.3c-3.6,0-6.5,2.9-6.5,6.5s2.9,6.5,6.5,6.5s6.5-2.9,6.5-6.5S317.2,418.3,313.6,418.3L313.6,418.3z
				 M341.2,444.6v-0.7c-0.7,2.1-1.6,4.2-2.6,6.2c0.2,1.2,0.5,2.9,1.1,4.9c2.7,4.1,10.1,9.3,15.3,10.7c-2.8,1.2-6.1,1.7-9.3,1.2
				c3,3.7,7.2,7.1,13.1,9.1c-13.8,12.4-36.5,12.7-52.4,3.1c-3.1,0.9-6.1,1.4-8.9,1.4c-2.8,0-5.8-0.5-8.9-1.4
				c-15.9,9.7-38.6,9.4-52.4-3.1c6-2.1,10.2-5.6,13.2-9.4c-2.6,0.1-5.3-0.4-7.5-1.3c3.8-1,8.8-4.1,12.2-7.2c1.2-3.2,1.8-6.1,2.1-7.9
				c-1-2-1.8-4-2.6-6.2v0.7h-7.8c-6.2,0-11.2-5-11.2-11.2v-12.3c0-4.2,2.4-7.9,5.8-9.8c0.1-17.4,5.2-31,15.1-40.4
				c9.8-9.3,23.9-14.1,41.9-14.1c18,0,32.1,4.7,41.9,14.1c9.9,9.4,15,23,15.1,40.4c3.5,1.9,5.8,5.6,5.8,9.8v12.3
				c0,6.2-5,11.2-11.2,11.2h-7.8V444.6z M336.5,424.8c0-2.9-0.1-5.6-0.4-8.2c-5-4.6-14.2-8.1-25.8-9.3c1.8,1.7,3.4,3.9,4.3,7
				c-6.7-4.9-20.9-6.5-25.6-11.7l0,0c-7.5-5-9.4-12-9.5-9.1c-0.3,14.1-10.3,25-21.4,26.6c-0.1,1.5-0.1,3.1-0.1,4.7
				c0,5.9,1,11.4,2.6,16.3c6.2,7.5,16.5,9.6,25.6,10.2c1.7-2.7,5.5-4.6,9.9-4.6c6,0,10.8,3.4,10.8,7.7c0,4.2-4.8,7.7-10.8,7.7
				c-4.6,0-8.5-2-10.1-4.9c-6.4-0.4-13.3-1.5-19.6-4.4c8.8,12.9,22.3,19.7,30.8,19.7C310.6,472.5,336.5,455.7,336.5,424.8
				L336.5,424.8z M343.3,410h4.3c-0.7-30.4-18.1-46.4-50.3-46.4c-32.2,0-49.6,16.1-50.3,46.4h4.3c1.6-10.2,4.9-18.7,9.9-25.1
				c8-10.3,20.2-15.6,36.1-15.6c15.9,0,28.1,5.2,36.1,15.6C338.4,391.3,341.7,399.8,343.3,410L343.3,410z"/>
		</g>
	</g>
	<g>
		<path fill="#FFFFFF" d="M297.2,233.3c3.3,0,5.8-4,5.8-7.7s-2.6-5.7-5.8-5.7c-3.3,0-5.8,2-5.8,5.7
			C291.4,229.3,294,233.3,297.2,233.3z"/>
		<path fill="#FFFFFF" d="M305.5,235l-3.7-1.8l-2.5,5.2L298,235c-0.3,0.1-0.5,0.1-0.8,0.1c-0.3,0-0.5-0.1-0.8-0.1l-1.3,3.5l-2.5-5.3
			L289,235c-1.6,0.8-3,2.7-3,4.2v2.5h22.5v-2.5C308.4,237.8,307.1,235.9,305.5,235z"/>
	</g>
	<g>
		<path fill="#FFFFFF" d="M297.2,613c3.3,0,5.8-4,5.8-7.7s-2.6-5.7-5.8-5.7c-3.3,0-5.8,2-5.8,5.7C291.4,608.9,294,613,297.2,613z"/>
		<path fill="#FFFFFF" d="M305.5,614.7l-3.7-1.8l-2.5,5.2l-1.2-3.3c-0.3,0.1-0.5,0.1-0.8,0.1c-0.3,0-0.5-0.1-0.8-0.1l-1.3,3.5
			l-2.5-5.3l-3.6,1.7c-1.6,0.8-3,2.7-3,4.2v2.5h22.5v-2.5C308.4,617.5,307.1,615.6,305.5,614.7z"/>
	</g>
	<g>
		<g>
			<path fill="#FFFFFF" d="M108,423.7c3.3,0,5.8-4,5.8-7.7c0-3.7-2.6-5.7-5.8-5.7c-3.3,0-5.8,2-5.8,5.7
				C102.2,419.7,104.7,423.7,108,423.7z"/>
		</g>
		<g>
			<path fill="#FFFFFF" d="M116.2,425.5l-3.7-1.8l-2.5,5.2l-1.2-3.3c-0.3,0.1-0.5,0.1-0.8,0.1c-0.3,0-0.5-0.1-0.8-0.1l-1.3,3.5
				l-2.5-5.3l-3.6,1.7c-1.6,0.8-3,2.7-3,4.2v2.5h22.5v-2.5C119.2,428.2,117.9,426.3,116.2,425.5z"/>
		</g>
	</g>
	<g>
		<g>
			<path fill="#FFFFFF" d="M486.5,423.7c3.3,0,5.8-4,5.8-7.7c0-3.7-2.6-5.7-5.8-5.7s-5.8,2-5.8,5.7
				C480.6,419.7,483.2,423.7,486.5,423.7z"/>
		</g>
		<g>
			<path fill="#FFFFFF" d="M494.7,425.5l-3.7-1.8l-2.5,5.2l-1.2-3.3c-0.3,0.1-0.5,0.1-0.8,0.1s-0.5-0.1-0.8-0.1l-1.3,3.5l-2.5-5.3
				l-3.6,1.7c-1.6,0.8-3,2.7-3,4.2v2.5h22.5v-2.5C497.7,428.2,496.3,426.3,494.7,425.5z"/>
		</g>
	</g>
</g>
</svg>
