<?xml version="1.0" encoding="utf-8"?>
<!-- Generator: Adobe Illustrator 18.0.0, SVG Export Plug-In . SVG Version: 6.00 Build 0)  -->
<!DOCTYPE svg PUBLIC "-//W3C//DTD SVG 1.1//EN" "http://www.w3.org/Graphics/SVG/1.1/DTD/svg11.dtd">
<svg version="1.1" xmlns="http://www.w3.org/2000/svg" xmlns:xlink="http://www.w3.org/1999/xlink" x="0px" y="0px"
	 viewBox="0 0 792 792" enable-background="new 0 0 792 792" xml:space="preserve">
<g id="Layer_1">
	<path display="none" fill="#F6F9FC" d="M563,536.5v6.4H257v-6.4l132.6-97l20.4-14.9l20.4,14.9L563,536.5L563,536.5z M563,536.5"/>
	<circle fill="#F6F9FC" cx="396" cy="396" r="396"/>
	<path display="none" fill="#F6F9FC" d="M563,536.5L563,536.5L563,536.5l-132.6-97l81.6-59.7l51-37.3V536.5z M563,536.5"/>
	<path display="none" fill="#F6F9FC" d="M563,342.5l-51,37.3v-37.3H563z M563,342.5"/>
	<path display="none" fill="#F6F9FC" d="M563,342.5h-51v-37.3L563,342.5z M563,342.5"/>
	<path display="none" fill="#F6F9FC" d="M448.9,284"/>
	<path display="none" fill="#F6F9FC" d="M389.6,439.5l-132.6,97v-194l51,37.3L389.6,439.5z M389.6,439.5"/>
	<path display="none" fill="#F6F9FC" d="M308,342.5v37.3l-51-37.3H308z M308,342.5"/>
	<path display="none" fill="#F6F9FC" d="M308,305.2v37.3h-51L308,305.2z M308,305.2"/>
	
		<circle display="none" fill="#E6FBF5" stroke="#06D79C" stroke-width="8" stroke-miterlimit="10" cx="390.2" cy="402.7" r="173.9"/>
	<g display="none" opacity="0.1">
		<g display="inline">
			<path d="M416.7,427.2c-3.8-3.8-8.6-3.8-12.4,0c-2.9,2.9-5.8,5.8-8.7,8.7c-0.8,0.8-1.4,1-2.4,0.4c-1.9-1-3.9-1.9-5.7-3
				c-8.4-5.3-15.5-12.1-21.7-19.8c-3.1-3.8-5.9-7.9-7.8-12.5c-0.4-0.9-0.3-1.5,0.4-2.3c2.9-2.8,5.7-5.7,8.6-8.6c4-4,4-8.7,0-12.7
				c-2.3-2.3-4.5-4.5-6.8-6.8c-2.3-2.3-4.7-4.7-7-7c-3.8-3.7-8.6-3.7-12.4,0c-2.9,2.9-5.7,5.8-8.7,8.7c-2.8,2.6-4.1,5.8-4.4,9.5
				c-0.5,6.1,1,11.8,3.1,17.4c4.3,11.6,10.8,21.8,18.8,31.3c10.7,12.7,23.5,22.8,38.5,30.1c6.7,3.3,13.7,5.8,21.3,6.2
				c5.2,0.3,9.8-1,13.4-5.1c2.5-2.8,5.3-5.3,7.9-8c3.9-4,3.9-8.7,0-12.6C426.1,436.5,421.4,431.8,416.7,427.2L416.7,427.2z
				 M416.7,427.2"/>
		</g>
		<path display="inline" d="M412.1,407.7l9-1.5c-1.4-8.3-5.3-15.8-11.3-21.7c-6.3-6.3-14.2-10.2-22.9-11.4l-1.3,9.1
			c6.8,1,12.9,4,17.8,8.9C408,395.5,411,401.4,412.1,407.7L412.1,407.7z M412.1,407.7"/>
		<path display="inline" d="M426.2,368.6c-10.4-10.4-23.6-17-38.1-19l-1.3,9.1c12.5,1.8,23.9,7.4,32.9,16.4
			c8.5,8.5,14.1,19.3,16.1,31.1l9-1.5C442.5,390.9,436,378.5,426.2,368.6L426.2,368.6z M426.2,368.6"/>
	</g>
	<g display="none">
		<g display="inline">
			<path fill="#00AFF0" d="M420.7,421.6c-3.8-3.8-8.6-3.8-12.4,0c-2.9,2.9-5.8,5.8-8.7,8.7c-0.8,0.8-1.4,1-2.4,0.4
				c-1.9-1-3.9-1.9-5.7-3c-8.4-5.3-15.5-12.1-21.7-19.8c-3.1-3.8-5.9-7.9-7.8-12.5c-0.4-0.9-0.3-1.5,0.4-2.3
				c2.9-2.8,5.7-5.7,8.6-8.6c4-4,4-8.7,0-12.7c-2.3-2.3-4.5-4.5-6.8-6.8c-2.3-2.3-4.7-4.7-7-7c-3.8-3.7-8.6-3.7-12.4,0
				c-2.9,2.9-5.7,5.8-8.7,8.7c-2.8,2.6-4.1,5.8-4.4,9.5c-0.5,6.1,1,11.8,3.1,17.4c4.3,11.6,10.8,21.8,18.8,31.3
				c10.7,12.7,23.5,22.8,38.5,30.1c6.7,3.3,13.7,5.8,21.3,6.2c5.2,0.3,9.8-1,13.4-5.1c2.5-2.8,5.3-5.3,7.9-8c3.9-4,3.9-8.7,0-12.6
				C430.1,430.9,425.4,426.2,420.7,421.6L420.7,421.6z M420.7,421.6"/>
		</g>
		<path display="inline" fill="#00AFF0" d="M416.1,402.1l9-1.5c-1.4-8.3-5.3-15.8-11.3-21.7c-6.3-6.3-14.2-10.2-22.9-11.4l-1.3,9.1
			c6.8,1,12.9,4,17.8,8.9C412,389.9,415,395.8,416.1,402.1L416.1,402.1z M416.1,402.1"/>
		<path display="inline" fill="#00AFF0" d="M430.2,363c-10.4-10.4-23.6-17-38.1-19l-1.3,9.1c12.5,1.8,23.9,7.4,32.9,16.4
			c8.5,8.5,14.1,19.3,16.1,31.1l9-1.5C446.5,385.3,440,372.9,430.2,363L430.2,363z M430.2,363"/>
	</g>
	<circle display="none" fill="#E6FBF5" stroke="#06D79C" stroke-width="8" stroke-miterlimit="10" cx="397.7" cy="218.2" r="55.9"/>
	<circle display="none" fill="#E6FBF5" stroke="#06D79C" stroke-width="8" stroke-miterlimit="10" cx="217.1" cy="338.5" r="55.9"/>
	<circle display="none" fill="#E6FBF5" stroke="#06D79C" stroke-width="8" stroke-miterlimit="10" cx="275.7" cy="547.5" r="55.9"/>
	<circle display="none" fill="#E6FBF5" stroke="#06D79C" stroke-width="8" stroke-miterlimit="10" cx="492.6" cy="556.3" r="55.9"/>
	<circle display="none" fill="#E6FBF5" stroke="#06D79C" stroke-width="8" stroke-miterlimit="10" cx="568" cy="352.8" r="55.9"/>
	<g display="none">
		<path display="inline" fill="#00AFF0" d="M397.6,217.9c6.3,0,11.2-7.7,11.2-14.7c0-7.2-5-10.9-11.2-10.9
			c-6.3,0-11.2,3.9-11.2,10.9C386.4,210.2,391.3,217.9,397.6,217.9z"/>
		<path display="inline" fill="#00AFF0" d="M413.4,221.2l-7.2-3.5l-4.8,9.9l-2.4-6.4c-0.6,0.2-0.9,0.2-1.5,0.2
			c-0.6,0-0.9-0.2-1.5-0.2l-2.6,6.8l-4.8-10.1l-7,3.3c-3.1,1.5-5.7,5.2-5.7,8.1v4.8h43.3v-4.8C419.1,226.6,416.6,222.9,413.4,221.2z
			"/>
	</g>
	<g display="none">
		<path display="inline" fill="#00AFF0" d="M570,357.5c6.3,0,11.2-7.7,11.2-14.7c0-7.2-5-10.9-11.2-10.9c-6.3,0-11.2,3.9-11.2,10.9
			C558.8,349.7,563.7,357.5,570,357.5z"/>
		<path display="inline" fill="#00AFF0" d="M585.8,360.8l-7.2-3.5l-4.8,9.9l-2.4-6.4c-0.6,0.2-0.9,0.2-1.5,0.2
			c-0.6,0-0.9-0.2-1.5-0.2l-2.6,6.8l-4.8-10.1l-7,3.3c-3.1,1.5-5.7,5.2-5.7,8.1v4.8h43.3v-4.8C591.6,366.1,589,362.4,585.8,360.8z"
			/>
	</g>
	<g display="none">
		<path display="inline" fill="#00AFF0" d="M492.5,561c6.3,0,11.2-7.7,11.2-14.7c0-7.2-5-10.9-11.2-10.9c-6.3,0-11.2,3.9-11.2,10.9
			C481.2,553.3,486.2,561,492.5,561z"/>
		<path display="inline" fill="#00AFF0" d="M508.3,564.3l-7.2-3.5l-4.8,9.9l-2.4-6.4c-0.6,0.2-0.9,0.2-1.5,0.2
			c-0.6,0-0.9-0.2-1.5-0.2l-2.6,6.8l-4.8-10.1l-7,3.3c-3.1,1.5-5.7,5.2-5.7,8.1v4.8h43.3v-4.8C514,569.7,511.4,566,508.3,564.3z"/>
	</g>
	<g display="none">
		<path display="inline" fill="#00AFF0" d="M275.6,552.2c6.3,0,11.2-7.7,11.2-14.7c0-7.2-5-10.9-11.2-10.9
			c-6.3,0-11.2,3.9-11.2,10.9C264.4,544.4,269.4,552.2,275.6,552.2z"/>
		<path display="inline" fill="#00AFF0" d="M291.5,555.5l-7.2-3.5l-4.8,9.9l-2.4-6.4c-0.6,0.2-0.9,0.2-1.5,0.2
			c-0.6,0-0.9-0.2-1.5-0.2l-2.6,6.8l-4.8-10.1l-7,3.3c-3.1,1.5-5.7,5.2-5.7,8.1v4.8h43.3v-4.8C297.2,560.8,294.6,557.2,291.5,555.5z
			"/>
	</g>
	<g display="none">
		<path display="inline" fill="#00AFF0" d="M217,343.2c6.3,0,11.2-7.7,11.2-14.7c0-7.2-5-10.9-11.2-10.9s-11.2,3.9-11.2,10.9
			C205.7,335.5,210.7,343.2,217,343.2z"/>
		<path display="inline" fill="#00AFF0" d="M232.8,346.5l-7.2-3.5l-4.8,9.9l-2.4-6.4c-0.6,0.2-0.9,0.2-1.5,0.2
			c-0.6,0-0.9-0.2-1.5-0.2l-2.6,6.8l-4.8-10.1l-7,3.3c-3.1,1.5-5.7,5.2-5.7,8.1v4.8h43.3v-4.8C238.5,351.9,236,348.2,232.8,346.5z"
			/>
	</g>
</g>
<g id="Layer_2">
	
		<line fill="#E6FBF5" stroke="#06D79C" stroke-width="4.1391" stroke-miterlimit="10" x1="396.3" y1="650.1" x2="396.3" y2="144.4"/>
	
		<line fill="#E6FBF5" stroke="#06D79C" stroke-width="4.1391" stroke-miterlimit="10" x1="143.5" y1="397.2" x2="649.2" y2="397.2"/>
	<line fill="#E6FBF5" stroke="#06D79C" stroke-width="4.1391" stroke-miterlimit="10" x1="249" y1="544.6" x2="543.6" y2="249.9"/>
	<line fill="#E6FBF5" stroke="#06D79C" stroke-width="4.1391" stroke-miterlimit="10" x1="249" y1="249.9" x2="543.6" y2="544.6"/>
	<circle fill="#E6FBF5" stroke="#06D79C" stroke-width="4.1391" stroke-miterlimit="10" cx="396.3" cy="397.2" r="151.1"/>
	<circle fill="#06D79C" cx="143.5" cy="397.2" r="28.3"/>
	<circle fill="#06D79C" cx="649.2" cy="397.2" r="28.3"/>
	<circle fill="#06D79C" cx="396.3" cy="144.4" r="28.3"/>
	<circle fill="#06D79C" cx="396.3" cy="650.1" r="28.3"/>
	<g>
		<g>
			<path fill="#00AFF0" d="M383.1,401.9c0,4.8-3.9,8.6-8.6,8.6c-4.8,0-8.6-3.9-8.6-8.6c0-4.8,3.9-8.6,8.6-8.6
				C379.3,393.3,383.1,397.1,383.1,401.9L383.1,401.9z M418.2,393.3c-4.8,0-8.6,3.9-8.6,8.6c0,4.8,3.9,8.6,8.6,8.6s8.6-3.9,8.6-8.6
				C426.8,397.1,422.9,393.3,418.2,393.3L418.2,393.3z M455,428.4v-1c-1,2.9-2.2,5.6-3.5,8.2c0.2,1.6,0.7,3.9,1.4,6.5
				c3.5,5.5,13.5,12.5,20.4,14.3c-3.7,1.6-8.2,2.2-12.5,1.6c4,5,9.6,9.5,17.5,12.2c-18.4,16.6-48.8,17-70.1,4.1
				c-4.1,1.2-8.1,1.8-11.9,1.8c-3.8,0-7.8-0.6-11.9-1.8c-21.2,12.9-51.6,12.5-70.1-4.1c8-2.8,13.7-7.4,17.7-12.5
				c-3.5,0.1-7-0.5-10-1.8c5-1.3,11.7-5.4,16.4-9.7c1.6-4.3,2.4-8.1,2.8-10.5c-1.3-2.6-2.5-5.4-3.5-8.2v1h-10.4
				c-8.2,0-14.9-6.7-14.9-14.9v-16.4c0-5.7,3.2-10.6,7.8-13.1c0.2-23.3,6.9-41.4,20.2-54c13.1-12.5,32-18.8,56-18.8
				c24,0,42.8,6.3,56,18.8c13.2,12.6,20,30.7,20.2,54c4.7,2.5,7.8,7.4,7.8,13.1v16.4c0,8.2-6.7,14.9-14.9,14.9H455z M448.8,401.9
				c0-3.8-0.2-7.4-0.5-10.9c-6.7-6.1-19-10.8-34.5-12.4c2.5,2.2,4.6,5.1,5.7,9.3c-9-6.6-27.9-8.6-34.2-15.7h0
				c-10-6.6-12.6-16.1-12.7-12.2c-0.4,18.8-13.7,33.5-28.5,35.5c-0.1,2.1-0.2,4.2-0.2,6.3c0,7.9,1.3,15.2,3.5,21.7
				c8.3,10,22,12.9,34.2,13.6c2.3-3.6,7.3-6.1,13.2-6.1c8,0,14.5,4.6,14.5,10.3c0,5.7-6.5,10.3-14.5,10.3c-6.1,0-11.4-2.7-13.5-6.6
				c-8.5-0.5-17.8-1.9-26.1-5.9c11.7,17.2,29.8,26.4,41.2,26.4C414.1,465.6,448.8,443.2,448.8,401.9L448.8,401.9z M457.8,382.2h5.7
				c-0.9-40.6-24.1-62.1-67.2-62.1c-43.1,0-66.3,21.5-67.2,62.1h5.7c2.1-13.7,6.5-24.9,13.3-33.6c10.7-13.8,26.9-20.8,48.2-20.8
				c21.3,0,37.5,7,48.2,20.8C451.3,357.2,455.7,368.5,457.8,382.2L457.8,382.2z M457.8,382.2"/>
		</g>
	</g>
	<g>
		<path fill="#FFFFFF" d="M396.3,146.1c4.3,0,7.8-5.4,7.8-10.2c0-5-3.5-7.6-7.8-7.6c-4.3,0-7.8,2.7-7.8,7.6
			C388.5,140.7,391.9,146.1,396.3,146.1z"/>
		<path fill="#FFFFFF" d="M407.3,148.4l-5-2.4l-3.3,6.9l-1.7-4.5c-0.4,0.1-0.6,0.1-1,0.1c-0.4,0-0.6-0.1-1-0.1l-1.8,4.7l-3.3-7
			l-4.9,2.3c-2.2,1-4,3.6-4,5.6v3.3h30.1V154C411.2,152.1,409.4,149.5,407.3,148.4z"/>
	</g>
	<g>
		<path fill="#FFFFFF" d="M396.3,653.4c4.3,0,7.8-5.4,7.8-10.2c0-5-3.5-7.6-7.8-7.6c-4.3,0-7.8,2.7-7.8,7.6
			C388.5,648,391.9,653.4,396.3,653.4z"/>
		<path fill="#FFFFFF" d="M407.3,655.7l-5-2.4l-3.3,6.9l-1.7-4.5c-0.4,0.1-0.6,0.1-1,0.1c-0.4,0-0.6-0.1-1-0.1l-1.8,4.7l-3.3-7
			l-4.9,2.3c-2.2,1-4,3.6-4,5.6v3.3h30.1v-3.3C411.2,659.4,409.4,656.8,407.3,655.7z"/>
	</g>
	<g>
		<path fill="#FFFFFF" d="M143.4,400.5c4.3,0,7.8-5.4,7.8-10.2c0-5-3.5-7.6-7.8-7.6c-4.3,0-7.8,2.7-7.8,7.6
			C135.6,395.1,139.1,400.5,143.4,400.5z"/>
		<path fill="#FFFFFF" d="M154.4,402.8l-5-2.4l-3.3,6.9l-1.7-4.5c-0.4,0.1-0.6,0.1-1,0.1c-0.4,0-0.6-0.1-1-0.1l-1.8,4.7l-3.3-7
			l-4.9,2.3c-2.2,1-4,3.6-4,5.6v3.3h30.1v-3.3C158.4,406.5,156.6,404,154.4,402.8z"/>
	</g>
	<g>
		<path fill="#FFFFFF" d="M649.1,400.5c4.3,0,7.8-5.4,7.8-10.2c0-5-3.5-7.6-7.8-7.6s-7.8,2.7-7.8,7.6
			C641.3,395.1,644.8,400.5,649.1,400.5z"/>
		<path fill="#FFFFFF" d="M660.1,402.8l-5-2.4l-3.3,6.9l-1.7-4.5c-0.4,0.1-0.6,0.1-1,0.1c-0.4,0-0.6-0.1-1-0.1l-1.8,4.7l-3.3-7
			l-4.9,2.3c-2.2,1-4,3.6-4,5.6v3.3h30.1v-3.3C664.1,406.5,662.3,404,660.1,402.8z"/>
	</g>
</g>
</svg>
