<?xml version="1.0" encoding="utf-8"?>
<!-- Generator: Adobe Illustrator 18.0.0, SVG Export Plug-In . SVG Version: 6.00 Build 0)  -->
<!DOCTYPE svg PUBLIC "-//W3C//DTD SVG 1.1//EN" "http://www.w3.org/Graphics/SVG/1.1/DTD/svg11.dtd">
<svg version="1.1" xmlns="http://www.w3.org/2000/svg" xmlns:xlink="http://www.w3.org/1999/xlink" x="0px" y="0px"
	 viewBox="0 123.3 595.3 595.3" enable-background="new 0 123.3 595.3 595.3" xml:space="preserve">
<g id="Layer_1">
	<g id="Layer_1_1_">
		<path display="none" fill="#F6F9FC" d="M423.2,526.5v4.8h-230v-4.8l99.7-72.9l15.3-11.2l15.3,11.2L423.2,526.5L423.2,526.5z"/>
		<circle fill="#F6F9FC" cx="297.6" cy="420.9" r="297.6"/>
		<path display="none" fill="#F6F9FC" d="M423.2,526.5L423.2,526.5L423.2,526.5l-99.7-72.9l61.3-44.9l38.3-28V526.5z"/>
		<path display="none" fill="#F6F9FC" d="M423.2,380.7l-38.3,28v-28H423.2z"/>
		<path display="none" fill="#F6F9FC" d="M423.2,380.7h-38.3v-28L423.2,380.7z"/>
		<path display="none" fill="#F6F9FC" d="M337.4,336.8"/>
		<path display="none" fill="#F6F9FC" d="M292.8,453.6l-99.7,72.9V380.7l38.3,28L292.8,453.6z"/>
		<path display="none" fill="#F6F9FC" d="M231.5,380.7v28l-38.3-28H231.5z"/>
		<path display="none" fill="#F6F9FC" d="M231.5,352.7v28h-38.3L231.5,352.7z"/>
		<circle display="none" fill="#E6FBF5" stroke="#06D79C" stroke-width="8" stroke-miterlimit="10" cx="293.3" cy="426" r="130.7"/>
		<g display="none" opacity="0.1">
			<g display="inline">
				<path d="M313.2,444.4c-2.9-2.9-6.5-2.9-9.3,0c-2.2,2.2-4.4,4.4-6.5,6.5c-0.6,0.6-1.1,0.8-1.8,0.3c-1.4-0.8-2.9-1.4-4.3-2.3
					c-6.3-4-11.7-9.1-16.3-14.9c-2.3-2.9-4.4-5.9-5.9-9.4c-0.3-0.7-0.2-1.1,0.3-1.7c2.2-2.1,4.3-4.3,6.5-6.5c3-3,3-6.5,0-9.5
					c-1.7-1.7-3.4-3.4-5.1-5.1c-1.7-1.7-3.5-3.5-5.3-5.3c-2.9-2.8-6.5-2.8-9.3,0c-2.2,2.2-4.3,4.4-6.5,6.5c-2.1,2-3.1,4.4-3.3,7.1
					c-0.4,4.6,0.8,8.9,2.3,13.1c3.2,8.7,8.1,16.4,14.1,23.5c8,9.5,17.7,17.1,28.9,22.6c5,2.5,10.3,4.4,16,4.7
					c3.9,0.2,7.4-0.8,10.1-3.8c1.9-2.1,4-4,5.9-6c2.9-3,2.9-6.5,0-9.5C320.3,451.4,316.7,447.9,313.2,444.4L313.2,444.4z"/>
			</g>
			<path display="inline" d="M309.7,429.7l6.8-1.1c-1.1-6.2-4-11.9-8.5-16.3c-4.7-4.7-10.7-7.7-17.2-8.6l-1,6.8
				c5.1,0.8,9.7,3,13.4,6.7C306.7,420.6,308.9,425,309.7,429.7L309.7,429.7z"/>
			<path display="inline" d="M320.3,400.4c-7.8-7.8-17.7-12.8-28.6-14.3l-1,6.8c9.4,1.4,18,5.6,24.7,12.3
				c6.4,6.4,10.6,14.5,12.1,23.4l6.8-1.1C332.6,417.1,327.7,407.8,320.3,400.4L320.3,400.4z"/>
		</g>
		<g display="none">
			<g display="inline">
				<path fill="#00AFF0" d="M316.2,440.2c-2.9-2.9-6.5-2.9-9.3,0c-2.2,2.2-4.4,4.4-6.5,6.5c-0.6,0.6-1.1,0.8-1.8,0.3
					c-1.4-0.8-2.9-1.4-4.3-2.3c-6.3-4-11.7-9.1-16.3-14.9c-2.3-2.9-4.4-5.9-5.9-9.4c-0.3-0.7-0.2-1.1,0.3-1.7
					c2.2-2.1,4.3-4.3,6.5-6.5c3-3,3-6.5,0-9.5c-1.7-1.7-3.4-3.4-5.1-5.1c-1.7-1.7-3.5-3.5-5.3-5.3c-2.9-2.8-6.5-2.8-9.3,0
					c-2.2,2.2-4.3,4.4-6.5,6.5c-2.1,2-3.1,4.4-3.3,7.1c-0.4,4.6,0.8,8.9,2.3,13.1c3.2,8.7,8.1,16.4,14.1,23.5
					c8,9.5,17.7,17.1,28.9,22.6c5,2.5,10.3,4.4,16,4.7c3.9,0.2,7.4-0.8,10.1-3.8c1.9-2.1,4-4,5.9-6c2.9-3,2.9-6.5,0-9.5
					C323.3,447.2,319.7,443.6,316.2,440.2L316.2,440.2z"/>
			</g>
			<path display="inline" fill="#00AFF0" d="M312.7,425.5l6.8-1.1c-1.1-6.2-4-11.9-8.5-16.3c-4.7-4.7-10.7-7.7-17.2-8.6l-1,6.8
				c5.1,0.8,9.7,3,13.4,6.7C309.7,416.4,311.9,420.8,312.7,425.5L312.7,425.5z"/>
			<path display="inline" fill="#00AFF0" d="M323.3,396.1c-7.8-7.8-17.7-12.8-28.6-14.3l-1,6.8c9.4,1.4,18,5.6,24.7,12.3
				c6.4,6.4,10.6,14.5,12.1,23.4l6.8-1.1C335.6,412.9,330.7,403.6,323.3,396.1L323.3,396.1z"/>
		</g>
		<circle display="none" fill="#E6FBF5" stroke="#06D79C" stroke-width="8" stroke-miterlimit="10" cx="298.9" cy="287.3" r="42"/>
		<circle display="none" fill="#E6FBF5" stroke="#06D79C" stroke-width="8" stroke-miterlimit="10" cx="163.2" cy="377.7" r="42"/>
		<circle display="none" fill="#E6FBF5" stroke="#06D79C" stroke-width="8" stroke-miterlimit="10" cx="207.2" cy="534.8" r="42"/>
		<circle display="none" fill="#E6FBF5" stroke="#06D79C" stroke-width="8" stroke-miterlimit="10" cx="370.2" cy="541.4" r="42"/>
		<circle display="none" fill="#E6FBF5" stroke="#06D79C" stroke-width="8" stroke-miterlimit="10" cx="426.9" cy="388.5" r="42"/>
		<g display="none">
			<path display="inline" fill="#00AFF0" d="M298.8,287.1c4.7,0,8.4-5.8,8.4-11c0-5.4-3.8-8.2-8.4-8.2c-4.7,0-8.4,2.9-8.4,8.2
				C290.4,281.3,294.1,287.1,298.8,287.1z"/>
			<path display="inline" fill="#00AFF0" d="M310.7,289.6l-5.4-2.6l-3.6,7.4l-1.8-4.8c-0.5,0.2-0.7,0.2-1.1,0.2
				c-0.5,0-0.7-0.2-1.1-0.2l-2,5.1l-3.6-7.6l-5.3,2.5c-2.3,1.1-4.3,3.9-4.3,6.1v3.6h32.5v-3.6C315,293.6,313.1,290.8,310.7,289.6z"
				/>
		</g>
		<g display="none">
			<path display="inline" fill="#00AFF0" d="M428.4,392c4.7,0,8.4-5.8,8.4-11c0-5.4-3.8-8.2-8.4-8.2c-4.7,0-8.4,2.9-8.4,8.2
				C420,386.1,423.7,392,428.4,392z"/>
			<path display="inline" fill="#00AFF0" d="M440.3,394.5l-5.4-2.6l-3.6,7.4l-1.8-4.8c-0.5,0.2-0.7,0.2-1.1,0.2s-0.7-0.2-1.1-0.2
				l-2,5.1l-3.6-7.6l-5.3,2.5c-2.3,1.1-4.3,3.9-4.3,6.1v3.6h32.5v-3.6C444.7,398.5,442.7,395.7,440.3,394.5z"/>
		</g>
		<g display="none">
			<path display="inline" fill="#00AFF0" d="M370.2,545c4.7,0,8.4-5.8,8.4-11c0-5.4-3.8-8.2-8.4-8.2c-4.7,0-8.4,2.9-8.4,8.2
				C361.7,539.2,365.4,545,370.2,545z"/>
			<path display="inline" fill="#00AFF0" d="M382,547.4l-5.4-2.6l-3.6,7.4l-1.8-4.8c-0.5,0.2-0.7,0.2-1.1,0.2
				c-0.5,0-0.7-0.2-1.1-0.2l-2,5.1l-3.6-7.6l-5.3,2.5c-2.3,1.1-4.3,3.9-4.3,6.1v3.6h32.5v-3.6C386.3,551.5,384.4,548.7,382,547.4z"
				/>
		</g>
		<g display="none">
			<path display="inline" fill="#00AFF0" d="M207.1,538.3c4.7,0,8.4-5.8,8.4-11c0-5.4-3.8-8.2-8.4-8.2c-4.7,0-8.4,2.9-8.4,8.2
				C198.7,532.5,202.5,538.3,207.1,538.3z"/>
			<path display="inline" fill="#00AFF0" d="M219.1,540.8l-5.4-2.6l-3.6,7.4l-1.8-4.8c-0.5,0.2-0.7,0.2-1.1,0.2
				c-0.5,0-0.7-0.2-1.1-0.2l-2,5.1l-3.6-7.6l-5.3,2.5c-2.3,1.1-4.3,3.9-4.3,6.1v3.6h32.5v-3.6C223.4,544.8,221.4,542.1,219.1,540.8z
				"/>
		</g>
		<g display="none">
			<path display="inline" fill="#00AFF0" d="M163.1,381.3c4.7,0,8.4-5.8,8.4-11c0-5.4-3.8-8.2-8.4-8.2s-8.4,2.9-8.4,8.2
				C154.6,375.5,158.4,381.3,163.1,381.3z"/>
			<path display="inline" fill="#00AFF0" d="M175,383.7l-5.4-2.6l-3.6,7.4l-1.8-4.8c-0.5,0.2-0.7,0.2-1.1,0.2s-0.7-0.2-1.1-0.2
				l-2,5.1l-3.6-7.6l-5.3,2.5c-2.3,1.1-4.3,3.9-4.3,6.1v3.6h32.5v-3.6C179.3,387.8,177.4,385,175,383.7z"/>
		</g>
	</g>
	<g id="Layer_2" display="none">
		<path display="inline" fill="#E6FBF5" d="M195.7,523.6V360.1h249.5v163.5c0,4.7-3.9,8.6-8.6,8.6H204.4
			C199.6,532.2,195.7,528.4,195.7,523.6"/>
		<path display="inline" fill="#82EBCD" d="M195.7,360.1v-34.4c0-4.7,3.9-8.6,8.6-8.6h232.4c4.7,0,8.6,3.9,8.6,8.6v34.4H195.7z"/>
		<path display="inline" fill="#06D79C" d="M436.7,317.1h-12.9c4.7,0,8.6,3.9,8.6,8.6v34.4v163.5c0,4.7-3.9,8.6-8.6,8.6h12.9
			c4.7,0,8.6-3.9,8.6-8.6V360.1v-34.4C445.3,320.9,441.4,317.1,436.7,317.1"/>
		<path display="inline" fill="#FFFFFF" d="M204.4,317.1h12.9c-4.7,0-8.6,3.9-8.6,8.6v34.4v163.5c0,4.7,3.9,8.6,8.6,8.6h-12.9
			c-4.7,0-8.6-3.9-8.6-8.6V360.1v-34.4C195.7,320.9,199.6,317.1,204.4,317.1"/>
		<g display="inline">
			<polygon fill="#E6FBF5" points="230.1,411.7 256,411.7 256,385.9 230.1,385.9 			"/>
			<polygon fill="#E6FBF5" points="281.8,411.7 307.6,411.7 307.6,385.9 281.8,385.9 			"/>
			<polygon fill="#E6FBF5" points="333.4,411.7 359.3,411.7 359.3,385.9 333.4,385.9 			"/>
			<polygon fill="#E6FBF5" points="385.1,411.7 410.8,411.7 410.8,385.9 385.1,385.9 			"/>
			<polygon fill="#E6FBF5" points="230.1,459.1 256,459.1 256,433.2 230.1,433.2 			"/>
			<polygon fill="#E6FBF5" points="281.8,459.1 307.6,459.1 307.6,433.2 281.8,433.2 			"/>
			<polygon fill="#E6FBF5" points="230.1,506.4 256,506.4 256,480.5 230.1,480.5 			"/>
			<polygon fill="#E6FBF5" points="281.8,506.4 307.6,506.4 307.6,480.5 281.8,480.5 			"/>
		</g>
		<path display="inline" fill="#E6FBF5" d="M415.2,472c0-23.7-19.4-43-43-43s-43,19.4-43,43s19.4,43,43,43S415.2,495.7,415.2,472"/>
		<path display="inline" fill="#82EBCD" d="M372.1,428.9c-2.2,0-4.3,0.5-6.5,0.5c20.7,3.5,36.6,21,36.6,42.6
			c0,21.5-15.9,39.6-36.6,42.6c2.2,0.5,4.3,0.5,6.5,0.5c23.7,0,43-19.4,43-43S395.8,428.9,372.1,428.9"/>
		<path display="inline" fill="#06D79C" d="M436.7,536.5H204.4c-7.3,0-12.9-5.6-12.9-12.9V360.1c0-2.6,1.7-4.3,4.3-4.3h249.5
			c2.6,0,4.3,1.7,4.3,4.3v163.5C449.6,530.9,444,536.5,436.7,536.5z M200.1,364.4v159.2c0,2.6,1.7,4.3,4.3,4.3h232.3
			c2.6,0,4.3-1.7,4.3-4.3V364.4H200.1z"/>
		<path display="inline" fill="#06D79C" d="M445.3,364.4H195.7c-2.6,0-4.3-1.7-4.3-4.3v-34.4c0-7.3,5.6-12.9,12.9-12.9h232.3
			c7.3,0,12.9,5.6,12.9,12.9v34.3C449.6,362.7,447.9,364.4,445.3,364.4z M200.1,355.8h241v-30.1c0-2.6-1.7-4.3-4.3-4.3H204.4
			c-2.6,0-4.3,1.7-4.3,4.3L200.1,355.8L200.1,355.8z"/>
		<path display="inline" fill="#06D79C" d="M415.2,338.6c-2.6,0-4.3-1.7-4.3-4.3c0-2.6,1.7-4.3,4.3-4.3c7.3,0,12.9-5.6,12.9-12.9
			c0-7.4-5.6-12.9-12.9-12.9c-7.4,0-12.9,5.6-12.9,12.9c0,2.6-1.7,4.3-4.3,4.3s-4.3-1.7-4.3-4.3c0-12,9.5-21.5,21.5-21.5
			s21.5,9.5,21.5,21.5C436.7,329.1,427.2,338.6,415.2,338.6z"/>
		<path display="inline" fill="#06D79C" d="M367.8,338.6c-2.6,0-4.3-1.7-4.3-4.3c0-2.6,1.7-4.3,4.3-4.3c7.3,0,12.9-5.6,12.9-12.9
			c0-7.4-5.6-12.9-12.9-12.9c-7.4,0-12.9,5.6-12.9,12.9c0,2.6-1.7,4.3-4.3,4.3s-4.3-1.7-4.3-4.3c0-12,9.5-21.5,21.5-21.5
			c12,0,21.5,9.5,21.5,21.5C389.3,329.1,379.9,338.6,367.8,338.6z"/>
		<path display="inline" fill="#06D79C" d="M320.5,338.6c-2.6,0-4.3-1.7-4.3-4.3c0-2.6,1.7-4.3,4.3-4.3c7.3,0,12.9-5.6,12.9-12.9
			c0-7.4-5.6-12.9-12.9-12.9s-12.9,5.6-12.9,12.9c0,2.6-1.7,4.3-4.3,4.3c-2.6,0-4.3-1.7-4.3-4.3c0-12,9.5-21.5,21.5-21.5
			c12,0,21.5,9.5,21.5,21.5C342,329.1,332.6,338.6,320.5,338.6z"/>
		<path display="inline" fill="#06D79C" d="M273.2,338.6c-2.6,0-4.3-1.7-4.3-4.3c0-2.6,1.7-4.3,4.3-4.3c7.3,0,12.9-5.6,12.9-12.9
			c0-7.4-5.6-12.9-12.9-12.9c-7.3,0-12.9,5.6-12.9,12.9c0,2.6-1.7,4.3-4.3,4.3c-2.6,0-4.3-1.7-4.3-4.3c0-12,9.5-21.5,21.5-21.5
			c12,0,21.5,9.5,21.5,21.5C294.7,329.1,285.2,338.6,273.2,338.6z"/>
		<path display="inline" fill="#06D79C" d="M225.9,338.6c-2.6,0-4.3-1.7-4.3-4.3c0-2.6,1.7-4.3,4.3-4.3c7.3,0,12.9-5.6,12.9-12.9
			c0-7.4-5.6-12.9-12.9-12.9c-7.4,0-12.9,5.6-12.9,12.9c0,2.6-1.7,4.3-4.3,4.3c-2.6,0-4.3-1.7-4.3-4.3c0-12,9.5-21.5,21.5-21.5
			s21.5,9.5,21.5,21.5C247.4,329.1,237.9,338.6,225.9,338.6z"/>
		<path display="inline" fill="#06D79C" d="M256,416.1h-25.8c-2.6,0-4.3-1.7-4.3-4.3V386c0-2.6,1.7-4.3,4.3-4.3H256
			c2.6,0,4.3,1.7,4.3,4.3v25.8C260.3,414.3,258.6,416.1,256,416.1z M234.4,407.4h17.2v-17.2h-17.2V407.4z"/>
		<path display="inline" fill="#06D79C" d="M307.6,416.1h-25.8c-2.6,0-4.3-1.7-4.3-4.3V386c0-2.6,1.7-4.3,4.3-4.3h25.8
			c2.6,0,4.3,1.7,4.3,4.3v25.8C311.9,414.3,310.2,416.1,307.6,416.1z M286.1,407.4h17.2v-17.2h-17.2V407.4z"/>
		<path display="inline" fill="#06D79C" d="M359.3,416.1h-25.8c-2.6,0-4.3-1.7-4.3-4.3V386c0-2.6,1.7-4.3,4.3-4.3h25.8
			c2.6,0,4.3,1.7,4.3,4.3v25.8C363.6,414.3,361.8,416.1,359.3,416.1z M337.7,407.4h17.2v-17.2h-17.2V407.4z"/>
		<path display="inline" fill="#06D79C" d="M410.8,416.1h-25.8c-2.6,0-4.3-1.7-4.3-4.3V386c0-2.6,1.7-4.3,4.3-4.3h25.8
			c2.6,0,4.3,1.7,4.3,4.3v25.8C415.2,414.3,413.5,416.1,410.8,416.1z M389.3,407.4h17.2v-17.2h-17.2V407.4z"/>
		<path display="inline" fill="#06D79C" d="M256,463.3h-25.8c-2.6,0-4.3-1.7-4.3-4.3v-25.8c0-2.6,1.7-4.3,4.3-4.3H256
			c2.6,0,4.3,1.7,4.3,4.3v25.8C260.3,461.6,258.6,463.3,256,463.3z M234.4,454.8h17.2v-17.2h-17.2V454.8z"/>
		<path display="inline" fill="#06D79C" d="M307.6,463.3h-25.8c-2.6,0-4.3-1.7-4.3-4.3v-25.8c0-2.6,1.7-4.3,4.3-4.3h25.8
			c2.6,0,4.3,1.7,4.3,4.3v25.8C311.9,461.6,310.2,463.3,307.6,463.3z M286.1,454.8h17.2v-17.2h-17.2V454.8z"/>
		<path display="inline" fill="#06D79C" d="M256,510.7h-25.8c-2.6,0-4.3-1.7-4.3-4.3v-25.8c0-2.6,1.7-4.3,4.3-4.3H256
			c2.6,0,4.3,1.7,4.3,4.3v25.8C260.3,509,258.6,510.7,256,510.7z M234.4,502h17.2v-17.2h-17.2V502z"/>
		<path display="inline" fill="#06D79C" d="M307.6,510.7h-25.8c-2.6,0-4.3-1.7-4.3-4.3v-25.8c0-2.6,1.7-4.3,4.3-4.3h25.8
			c2.6,0,4.3,1.7,4.3,4.3v25.8C311.9,509,310.2,510.7,307.6,510.7z M286.1,502h17.2v-17.2h-17.2V502z"/>
		<path display="inline" fill="#06D79C" d="M372.1,519.3c-26.2,0-47.4-21-47.4-47.4c0-26.3,21-47.4,47.4-47.4
			c26.3,0,47.4,21,47.4,47.4C419.5,498.2,398.4,519.3,372.1,519.3z M372.1,433.2c-21.5,0-38.7,17.2-38.7,38.7
			c0,21.5,17.2,38.7,38.7,38.7c21.5,0,38.7-17.2,38.7-38.7S393.6,433.2,372.1,433.2z"/>
		<path display="inline" fill="#00AFF0" d="M361.8,495.7c-1.2,0-2-0.4-2.7-1.2L343.5,479c-1.6-1.6-1.6-3.9,0-5.5
			c1.6-1.6,3.9-1.6,5.5,0l12.1,12.1l20.7-31.2c1.2-2,3.5-2.3,5.5-1.2c2,1.2,2.3,3.5,1.2,5.5L365,493.8
			C364.5,495,363.4,495.7,361.8,495.7C362.2,495.7,361.8,495.7,361.8,495.7z"/>
		<g display="inline">
			<circle fill="#FFFFFF" cx="152.4" cy="459.2" r="55.1"/>
			<circle fill="#06D79C" cx="155.5" cy="457.7" r="45.8"/>
			<circle fill="#00AFF0" cx="155.5" cy="457.7" r="37.1"/>
			<g>
				<path fill="#FFFFFF" d="M155.4,463c7.1,0,12.6-8.7,12.6-16.5c0-8.1-5.6-12.3-12.6-12.3c-7.1,0-12.6,4.4-12.6,12.3
					C142.8,454.2,148.4,463,155.4,463z"/>
				<path fill="#FFFFFF" d="M173.2,466.7l-8-3.9l-5.4,11.2l-2.7-7.2c-0.6,0.2-1.1,0.2-1.7,0.2c-0.6,0-1.1-0.2-1.7-0.2l-2.9,7.7
					l-5.4-11.4l-7.9,3.8c-3.5,1.7-6.4,5.8-6.4,9.1v5.4h48.6v-5.5C179.6,472.7,176.8,468.5,173.2,466.7z"/>
			</g>
		</g>
		<g display="inline">
			<circle fill="#FFFFFF" cx="465.5" cy="416.6" r="39.8"/>
			<circle fill="#06D79C" cx="466.5" cy="415.5" r="34.2"/>
			<circle fill="#00AFF0" cx="466.5" cy="415.5" r="27.7"/>
			<g>
				<path fill="#FFFFFF" d="M466.6,419.4c-5.3,0-9.5-6.5-9.5-12.4c0-6,4.2-9.1,9.5-9.1c5.3,0,9.5,3.2,9.5,9.1
					C476,412.9,471.9,419.4,466.6,419.4z"/>
				<path fill="#FFFFFF" d="M453.2,422.2l6-2.9l4.1,8.3l2-5.4c0.5,0.2,0.8,0.2,1.3,0.2c0.5,0,0.8-0.2,1.2-0.2l2.2,5.7l4-8.5l5.9,2.8
					c2.6,1.2,4.8,4.4,4.8,6.8v4.1h-36.4v-4.1C448.5,426.7,450.6,423.6,453.2,422.2z"/>
			</g>
		</g>
	</g>
</g>
<g id="Layer_2_1_">
	<path fill="#FDF0F6" d="M200,524.3c0,2.6,1.7,4.3,4.3,4.3h227.5c0.7-1.3,1.2-2.7,1.2-4.3v-85.2c-4.2-6.3-6.7-14-6.7-22.2
		c0-8.2,2.5-15.8,6.7-22.2v-30.2H200V432c-1.3-2.2-2.7-4.3-4.3-6.4v68c1.6-2,3-4.1,4.3-6.4V524.3z"/>
	<path fill="#FBCDE4" d="M446,325.7c0-4.7-3.9-8.6-8.6-8.6h-12.9c4.7,0,8.6,3.9,8.6,8.6v30.2H446V325.7z"/>
	<path fill="#FBCDE4" d="M441.7,524.3v-75.9c-3.3-2.6-6.3-5.7-8.6-9.3v85.2c0,1.6-0.5,3-1.2,4.3h5.5
		C439.9,528.6,441.7,526.8,441.7,524.3z"/>
	<path fill="#FBCDE4" d="M441.7,385.5v-21H433v30.2C435.4,391.2,438.3,388.1,441.7,385.5z"/>
	<path fill="#EE0979" d="M446,382.6c1.4-0.8,2.8-1.6,4.3-2.2v-20.1c0-2.6-1.7-4.3-4.3-4.3v4.3V382.6z"/>
	<path fill="#EE0979" d="M446,524.3c0,4.7-3.9,8.6-8.6,8.6h-12.9H204.3c-4.7,0-8.6-3.9-8.6-8.6v-30.6c-1.3,1.7-2.8,3.4-4.3,4.9v25.7
		c0,7.3,5.6,12.9,12.9,12.9h233.1c7.3,0,12.9-5.6,12.9-12.9v-70.8c-1.5-0.7-2.9-1.4-4.3-2.2V524.3z"/>
	<path fill="#EE0979" d="M433,360.2v-4.3H195.6c-2.6,0-4.3,1.7-4.3,4.3v60.5c1.5,1.5,3,3.2,4.3,4.9v-65.4H433z"/>
	<path fill="#EE0979" d="M204.3,532.9h220.1c3.2,0,5.9-1.8,7.4-4.3H204.3c-2.6,0-4.3-1.7-4.3-4.3v-36.9c-1.3,2.2-2.7,4.3-4.3,6.4
		v30.6C195.6,529,199.5,532.9,204.3,532.9z"/>
	<path fill="#EE0979" d="M200,364.6H433v-4.3H195.6v65.4c1.6,2,3,4.1,4.3,6.4V364.6z"/>
	<rect x="433" y="355.9" fill="#EE0979" width="12.9" height="4.3"/>
	<path fill="#EE0979" d="M433,360.2v4.3h8.6v21c1.4-1.1,2.8-2,4.3-2.9v-22.3H433z"/>
	<path fill="#EE0979" d="M441.7,524.3c0,2.6-1.7,4.3-4.3,4.3h-5.5c-1.5,2.6-4.3,4.3-7.4,4.3h12.9c4.7,0,8.6-3.9,8.6-8.6v-73
		c-1.5-0.9-2.9-1.9-4.3-2.9V524.3z"/>
	<path fill="#FBCDE4" d="M195.6,360.2v-34.5c0-4.7,3.9-8.6,8.6-8.6h233.1c4.7,0,8.6,3.9,8.6,8.6v34.5H195.6z"/>
	<path fill="#FFFFFF" d="M204.3,317.1h12.9c-4.7,0-8.6,3.9-8.6,8.6v34.5v164c0,4.7,3.9,8.6,8.6,8.6h-12.9c-4.7,0-8.6-3.9-8.6-8.6
		v-164v-34.5C195.6,321,199.5,317.1,204.3,317.1"/>
	<g>
		<polygon fill="#FDF0F6" points="230.2,412 256.1,412 256.1,386.1 230.2,386.1 		"/>
		<polygon fill="#FDF0F6" points="282,412 307.9,412 307.9,386.1 282,386.1 		"/>
		<polygon fill="#FDF0F6" points="333.8,412 359.7,412 359.7,386.1 333.8,386.1 		"/>
		<polygon fill="#FDF0F6" points="385.6,412 411.4,412 411.4,386.1 385.6,386.1 		"/>
		<polygon fill="#FDF0F6" points="230.2,459.5 256.1,459.5 256.1,433.6 230.2,433.6 		"/>
		<polygon fill="#FDF0F6" points="282,459.5 307.9,459.5 307.9,433.6 282,433.6 		"/>
		<polygon fill="#FDF0F6" points="230.2,507 256.1,507 256.1,481.1 230.2,481.1 		"/>
		<polygon fill="#FDF0F6" points="282,507 307.9,507 307.9,481.1 282,481.1 		"/>
	</g>
	<path fill="#FDF0F6" d="M415.8,472.5c0-23.7-19.4-43.2-43.2-43.2c-23.7,0-43.2,19.4-43.2,43.2c0,23.7,19.4,43.2,43.2,43.2
		C396.3,515.6,415.8,496.2,415.8,472.5"/>
	<path fill="#FBCDE4" d="M372.6,429.3c-2.2,0-4.3,0.4-6.5,0.4c20.7,3.5,36.7,21.1,36.7,42.7c0,21.6-16,39.7-36.7,42.7
		c2.2,0.4,4.3,0.4,6.5,0.4c23.7,0,43.2-19.4,43.2-43.2C415.8,448.7,396.3,429.3,372.6,429.3"/>
	<path fill="#EE0979" d="M446,364.6H195.6c-2.6,0-4.3-1.7-4.3-4.3v-34.5c0-7.3,5.6-12.9,12.9-12.9h233.1c7.3,0,12.9,5.6,12.9,12.9
		v34.5C450.3,362.8,448.6,364.6,446,364.6z M200,355.9h241.7v-30.2c0-2.6-1.7-4.3-4.3-4.3H204.3c-2.6,0-4.3,1.7-4.3,4.3V355.9z"/>
	<path fill="#EE0979" d="M415.8,338.7c-2.6,0-4.3-1.7-4.3-4.3c0-2.6,1.7-4.3,4.3-4.3c7.3,0,12.9-5.6,12.9-12.9s-5.6-12.9-12.9-12.9
		c-7.3,0-12.9,5.6-12.9,12.9c0,2.6-1.7,4.3-4.3,4.3c-2.6,0-4.3-1.7-4.3-4.3c0-12.1,9.5-21.6,21.6-21.6c12.1,0,21.6,9.5,21.6,21.6
		S427.8,338.7,415.8,338.7z"/>
	<path fill="#EE0979" d="M368.3,338.7c-2.6,0-4.3-1.7-4.3-4.3c0-2.6,1.7-4.3,4.3-4.3c7.3,0,12.9-5.6,12.9-12.9s-5.6-12.9-12.9-12.9
		s-12.9,5.6-12.9,12.9c0,2.6-1.7,4.3-4.3,4.3c-2.6,0-4.3-1.7-4.3-4.3c0-12.1,9.5-21.6,21.6-21.6s21.6,9.5,21.6,21.6
		S380.4,338.7,368.3,338.7z"/>
	<path fill="#EE0979" d="M320.8,338.7c-2.6,0-4.3-1.7-4.3-4.3c0-2.6,1.7-4.3,4.3-4.3c7.3,0,12.9-5.6,12.9-12.9s-5.6-12.9-12.9-12.9
		s-12.9,5.6-12.9,12.9c0,2.6-1.7,4.3-4.3,4.3c-2.6,0-4.3-1.7-4.3-4.3c0-12.1,9.5-21.6,21.6-21.6s21.6,9.5,21.6,21.6
		S332.9,338.7,320.8,338.7z"/>
	<path fill="#EE0979" d="M273.3,338.7c-2.6,0-4.3-1.7-4.3-4.3c0-2.6,1.7-4.3,4.3-4.3c7.3,0,12.9-5.6,12.9-12.9s-5.6-12.9-12.9-12.9
		c-7.3,0-12.9,5.6-12.9,12.9c0,2.6-1.7,4.3-4.3,4.3c-2.6,0-4.3-1.7-4.3-4.3c0-12.1,9.5-21.6,21.6-21.6c12.1,0,21.6,9.5,21.6,21.6
		S285.4,338.7,273.3,338.7z"/>
	<path fill="#EE0979" d="M225.9,338.7c-2.6,0-4.3-1.7-4.3-4.3c0-2.6,1.7-4.3,4.3-4.3c7.3,0,12.9-5.6,12.9-12.9s-5.6-12.9-12.9-12.9
		c-7.3,0-12.9,5.6-12.9,12.9c0,2.6-1.7,4.3-4.3,4.3s-4.3-1.7-4.3-4.3c0-12.1,9.5-21.6,21.6-21.6s21.6,9.5,21.6,21.6
		S237.9,338.7,225.9,338.7z"/>
	<path fill="#EE0979" d="M256.1,416.4h-25.9c-2.6,0-4.3-1.7-4.3-4.3v-25.9c0-2.6,1.7-4.3,4.3-4.3h25.9c2.6,0,4.3,1.7,4.3,4.3V412
		C260.4,414.6,258.7,416.4,256.1,416.4z M234.5,407.7h17.3v-17.3h-17.3V407.7z"/>
	<path fill="#EE0979" d="M307.9,416.4H282c-2.6,0-4.3-1.7-4.3-4.3v-25.9c0-2.6,1.7-4.3,4.3-4.3h25.9c2.6,0,4.3,1.7,4.3,4.3V412
		C312.2,414.6,310.5,416.4,307.9,416.4z M286.3,407.7h17.3v-17.3h-17.3V407.7z"/>
	<path fill="#EE0979" d="M359.7,416.4h-25.9c-2.6,0-4.3-1.7-4.3-4.3v-25.9c0-2.6,1.7-4.3,4.3-4.3h25.9c2.6,0,4.3,1.7,4.3,4.3V412
		C364,414.6,362.2,416.4,359.7,416.4z M338.1,407.7h17.3v-17.3h-17.3V407.7z"/>
	<path fill="#EE0979" d="M411.4,416.4h-25.9c-2.6,0-4.3-1.7-4.3-4.3v-25.9c0-2.6,1.7-4.3,4.3-4.3h25.9c2.6,0,4.3,1.7,4.3,4.3V412
		C415.8,414.6,414,416.4,411.4,416.4z M389.9,407.7h17.3v-17.3h-17.3V407.7z"/>
	<path fill="#EE0979" d="M256.1,463.8h-25.9c-2.6,0-4.3-1.7-4.3-4.3v-25.9c0-2.6,1.7-4.3,4.3-4.3h25.9c2.6,0,4.3,1.7,4.3,4.3v25.9
		C260.4,462.1,258.7,463.8,256.1,463.8z M234.5,455.2h17.3v-17.3h-17.3V455.2z"/>
	<path fill="#EE0979" d="M307.9,463.8H282c-2.6,0-4.3-1.7-4.3-4.3v-25.9c0-2.6,1.7-4.3,4.3-4.3h25.9c2.6,0,4.3,1.7,4.3,4.3v25.9
		C312.2,462.1,310.5,463.8,307.9,463.8z M286.3,455.2h17.3v-17.3h-17.3V455.2z"/>
	<path fill="#EE0979" d="M256.1,511.3h-25.9c-2.6,0-4.3-1.7-4.3-4.3v-25.9c0-2.6,1.7-4.3,4.3-4.3h25.9c2.6,0,4.3,1.7,4.3,4.3V507
		C260.4,509.6,258.7,511.3,256.1,511.3z M234.5,502.7h17.3v-17.3h-17.3V502.7z"/>
	<path fill="#EE0979" d="M307.9,511.3H282c-2.6,0-4.3-1.7-4.3-4.3v-25.9c0-2.6,1.7-4.3,4.3-4.3h25.9c2.6,0,4.3,1.7,4.3,4.3V507
		C312.2,509.6,310.5,511.3,307.9,511.3z M286.3,502.7h17.3v-17.3h-17.3V502.7z"/>
	<path fill="#EE0979" d="M372.6,519.9c-26.3,0-47.5-21.1-47.5-47.5c0-26.3,21.1-47.5,47.5-47.5c26.3,0,47.5,21.1,47.5,47.5
		C420.1,498.8,398.9,519.9,372.6,519.9z M372.6,433.6c-21.6,0-38.8,17.3-38.8,38.8c0,21.6,17.3,38.8,38.8,38.8
		c21.6,0,38.8-17.3,38.8-38.8C411.4,450.9,394.2,433.6,372.6,433.6z"/>
	<path fill="#00AFF0" d="M362.2,496.3c-1.2,0-2-0.4-2.7-1.2l-15.7-15.7c-1.6-1.6-1.6-3.9,0-5.5s3.9-1.6,5.5,0l12.1,12.1l20.8-31.3
		c1.2-2,3.5-2.3,5.5-1.2c2,1.2,2.3,3.5,1.2,5.5l-23.5,35.2C365,495.6,363.8,496.3,362.2,496.3C362.6,496.3,362.2,496.3,362.2,496.3z
		"/>
	<circle fill="#EE0979" cx="155.3" cy="458.1" r="46"/>
	<circle fill="#FDF0F6" cx="155.3" cy="458.1" r="37.2"/>
	<g>
		<path fill="#00AFF0" d="M155.2,463.4c7.1,0,12.7-8.7,12.7-16.6c0-8.1-5.6-12.3-12.7-12.3c-7.1,0-12.7,4.4-12.7,12.3
			C142.5,454.7,148.1,463.4,155.2,463.4z"/>
		<path fill="#00AFF0" d="M173.1,467.2l-8.1-3.9l-5.4,11.2l-2.7-7.3c-0.6,0.2-1,0.2-1.7,0.2c-0.6,0-1-0.2-1.7-0.2l-2.9,7.7
			l-5.4-11.4l-7.9,3.7c-3.5,1.7-6.4,5.8-6.4,9.1v5.4h48.8v-5.4C179.5,473.2,176.6,469.1,173.1,467.2z"/>
	</g>
	<circle fill="#EE0979" cx="467.2" cy="415.8" r="34.3"/>
	<circle fill="#FDF0F6" cx="467.2" cy="415.8" r="27.8"/>
	<g>
		<path fill="#00AFF0" d="M467.3,419.7c-5.3,0-9.5-6.5-9.5-12.4c0-6.1,4.2-9.2,9.5-9.2c5.3,0,9.5,3.3,9.5,9.2
			C476.8,413.2,472.6,419.7,467.3,419.7z"/>
		<path fill="#00AFF0" d="M454,422.5l6.1-2.9l4,8.4l2-5.4c0.5,0.2,0.8,0.2,1.2,0.2c0.5,0,0.8-0.2,1.2-0.2l2.2,5.7l4-8.5l5.9,2.8
			c2.6,1.2,4.8,4.3,4.8,6.8v4H449v-4C449.2,427,451.3,423.9,454,422.5z"/>
	</g>
</g>
</svg>
