<?xml version="1.0" encoding="utf-8"?>
<!-- Generator: Adobe Illustrator 18.0.0, SVG Export Plug-In . SVG Version: 6.00 Build 0)  -->
<!DOCTYPE svg PUBLIC "-//W3C//DTD SVG 1.1//EN" "http://www.w3.org/Graphics/SVG/1.1/DTD/svg11.dtd">
<svg version="1.1" id="Layer_1" xmlns="http://www.w3.org/2000/svg" xmlns:xlink="http://www.w3.org/1999/xlink" x="0px" y="0px"
	 viewBox="0 0 792 792" enable-background="new 0 0 792 792" xml:space="preserve">
<circle fill="#F6F9FC" cx="396" cy="396" r="396"/>
<path fill="#F6F9FC" d="M563,536.5v6.4H257v-6.4l132.6-97l20.4-14.9l20.4,14.9L563,536.5L563,536.5z M563,536.5"/>
<path fill="#F6F9FC" d="M563,536.5L563,536.5L563,536.5l-132.6-97l81.6-59.7l51-37.3V536.5z M563,536.5"/>
<path fill="#F6F9FC" d="M563,342.5l-51,37.3v-37.3H563z M563,342.5"/>
<path fill="#F6F9FC" d="M563,342.5h-51v-37.3L563,342.5z M563,342.5"/>
<polygon fill="#F6F9FC" points="512,342.5 512,379.8 430.4,439.5 410,424.6 389.6,439.5 308,379.8 308,232.4 512,232.4 "/>
<path fill="#F6F9FC" d="M448.9,284"/>
<path fill="#F6F9FC" d="M389.6,439.5l-132.6,97v-194l51,37.3L389.6,439.5z M389.6,439.5"/>
<path fill="#F6F9FC" d="M308,342.5v37.3l-51-37.3H308z M308,342.5"/>
<path fill="#F6F9FC" d="M308,305.2v37.3h-51L308,305.2z M308,305.2"/>
<g>
	<path fill="#F6F9FC" stroke="#06D79C" stroke-width="16" stroke-linejoin="round" stroke-miterlimit="10" d="M308,342.5h-51v200.4
		h306V342.5h-51 M257,536.5l132.6-97l20.4-14.9l20.4,14.9l132.6,97 M563,342.5l-51-37.3 M308,305.2l-51,37.3 M389.6,439.5L308,379.8
		l-51-37.3 M563,342.5l-51,37.3l-81.6,59.7 M512,379.8V232.4H308v147.4"/>
</g>
<path fill="#F6F9FC" stroke="#06D79C" stroke-width="16" stroke-linecap="round" stroke-linejoin="round" stroke-miterlimit="10" d="
	M343.4,353.3h133.2 M356.5,385.7h107"/>
<g>
	<g>
		<path fill="#F6F9FC" d="M424.5,301.7c-1.9-1.9-4.4-1.9-6.3,0c-1.5,1.5-2.9,2.9-4.4,4.4c-0.4,0.4-0.7,0.5-1.2,0.2
			c-1-0.5-2-0.9-2.9-1.5c-4.3-2.7-7.8-6.1-11-10c-1.6-1.9-3-4-3.9-6.3c-0.2-0.5-0.2-0.8,0.2-1.2c1.5-1.4,2.9-2.9,4.4-4.3
			c2-2,2-4.4,0-6.4c-1.2-1.2-2.3-2.3-3.5-3.5c-1.2-1.2-2.4-2.4-3.6-3.6c-1.9-1.9-4.4-1.9-6.3,0c-1.5,1.5-2.9,3-4.4,4.4
			c-1.4,1.3-2.1,2.9-2.3,4.8c-0.2,3.1,0.5,6,1.6,8.8c2.2,5.9,5.5,11.1,9.5,15.8c5.4,6.5,11.9,11.6,19.5,15.2
			c3.4,1.7,6.9,2.9,10.8,3.1c2.6,0.1,4.9-0.5,6.8-2.6c1.3-1.4,2.7-2.7,4-4c2-2,2-4.4,0-6.4C429.2,306.4,426.9,304.1,424.5,301.7
			L424.5,301.7z M424.5,301.7"/>
	</g>
	<path fill="#F6F9FC" d="M422.1,291.9l4.6-0.8c-0.7-4.2-2.7-8-5.7-11c-3.2-3.2-7.2-5.2-11.6-5.8l-0.6,4.6c3.4,0.5,6.5,2,9,4.5
		C420.1,285.7,421.6,288.6,422.1,291.9L422.1,291.9z M422.1,291.9"/>
	<path fill="#F6F9FC" d="M429.3,272c-5.3-5.3-11.9-8.6-19.3-9.6l-0.6,4.6c6.4,0.9,12.1,3.8,16.7,8.3c4.3,4.3,7.1,9.8,8.2,15.8
		l4.6-0.8C437.5,283.4,434.3,277.1,429.3,272L429.3,272z M429.3,272"/>
</g>
</svg>
