<?xml version="1.0" encoding="utf-8"?>
<!-- Generator: Adobe Illustrator 16.0.0, SVG Export Plug-In . SVG Version: 6.00 Build 0)  -->
<!DOCTYPE svg PUBLIC "-//W3C//DTD SVG 1.1//EN" "http://www.w3.org/Graphics/SVG/1.1/DTD/svg11.dtd">
<svg version="1.1" id="Ebene_1" xmlns="http://www.w3.org/2000/svg" xmlns:xlink="http://www.w3.org/1999/xlink" x="0px" y="0px"
	 width="205.932px" height="83px" viewBox="0 0 205.932 83" enable-background="new 0 0 205.932 83" xml:space="preserve">
<g>
	<rect x="121.932" width="84" height="83"/>
</g>
<g>
	<path d="M13.872,56.4c2.848,0,5.464,1.266,7.848,3.793c2.383,2.527,3.576,5.464,3.576,8.808c0,3.345-1.184,6.272-3.552,8.784
		c-2.369,2.512-4.913,3.768-7.632,3.768c-2.721,0-4.656-0.768-5.808-2.304c-0.257,1.568-1.632,2.353-4.128,2.353
		c-2.016,0-3.249-0.433-3.696-1.297c-0.224-0.48-0.36-0.903-0.408-1.271C0.024,78.666,0,78.113,0,77.377V48.721
		c0-0.735,0.024-1.287,0.072-1.656c0.048-0.367,0.184-0.775,0.408-1.224c0.448-0.864,1.696-1.296,3.744-1.296
		c2.016,0,3.232,0.432,3.648,1.296c0.256,0.479,0.408,0.905,0.456,1.272S8.4,48.033,8.4,48.77v9.983
		C9.68,57.186,11.503,56.4,13.872,56.4z M9.672,71.904c0.784,0.865,1.768,1.297,2.952,1.297c1.184,0,2.191-0.432,3.024-1.297
		c0.832-0.863,1.248-1.823,1.248-2.879c0-1.057-0.384-2.023-1.152-2.904c-0.768-0.88-1.792-1.32-3.072-1.32
		c-1.28,0-2.296,0.449-3.048,1.344c-0.752,0.896-1.128,1.865-1.128,2.904C8.496,70.09,8.888,71.041,9.672,71.904z"/>
	<path d="M28.416,48.673c0-0.735,0.024-1.288,0.072-1.655c0.048-0.368,0.184-0.793,0.408-1.272c0.448-0.864,1.696-1.296,3.744-1.296
		c1.952,0,3.168,0.432,3.648,1.296c0.256,0.479,0.408,0.911,0.456,1.296c0.048,0.384,0.072,0.944,0.072,1.68v22.225
		c0,1.152,0.096,1.88,0.288,2.184c0.192,0.305,0.616,0.456,1.272,0.456c0.656,0,1.096,0.024,1.32,0.071
		c0.223,0.049,0.496,0.186,0.816,0.408c0.64,0.416,0.96,1.553,0.96,3.408c0,2.016-0.32,3.248-0.96,3.696
		c-0.833,0.576-2.816,0.672-5.952,0.288c-2.464-0.32-4.064-1.136-4.8-2.448c-0.896-1.567-1.344-4.063-1.344-7.487V48.673z"/>
	<path d="M60.528,59.041c0.192-1.792,1.456-2.688,3.792-2.688c1.248,0,2.176,0.096,2.784,0.287c0.607,0.192,1.032,0.528,1.272,1.008
		c0.24,0.48,0.384,0.904,0.432,1.272c0.048,0.368,0.072,0.921,0.072,1.656v16.8c0,0.736-0.024,1.289-0.072,1.656
		c-0.048,0.368-0.185,0.791-0.408,1.271c-0.449,0.832-1.544,1.248-3.288,1.248c-1.745,0-2.912-0.216-3.504-0.648
		c-0.592-0.432-0.936-1.063-1.032-1.896c-1.184,1.696-3.16,2.544-5.928,2.544c-2.768,0-5.336-1.264-7.704-3.792
		c-2.369-2.527-3.552-5.464-3.552-8.808s1.191-6.271,3.576-8.784c2.384-2.512,5-3.769,7.848-3.769c1.087,0,2.08,0.192,2.976,0.576
		c0.896,0.385,1.52,0.744,1.872,1.08C60.016,58.393,60.304,58.721,60.528,59.041z M51.792,69.025c0,1.056,0.416,2.008,1.248,2.855
		c0.832,0.848,1.84,1.271,3.024,1.271c1.184,0,2.167-0.432,2.952-1.295c0.784-0.864,1.176-1.816,1.176-2.856
		s-0.376-2.008-1.128-2.903c-0.752-0.896-1.76-1.345-3.024-1.345c-1.265,0-2.289,0.448-3.072,1.345
		C52.184,66.993,51.792,67.969,51.792,69.025z"/>
	<path d="M80.64,69.001c0,1.36,0.448,2.417,1.344,3.168c0.896,0.753,1.848,1.128,2.856,1.128s1.952-0.295,2.832-0.889
		c0.88-0.591,1.591-0.887,2.136-0.887c0.96,0,2.128,0.848,3.504,2.543c0.735,0.93,1.104,1.761,1.104,2.496
		c0,1.217-0.881,2.353-2.64,3.408c-1.824,1.28-4.064,1.92-6.72,1.92c-2.976,0-5.84-1.071-8.592-3.216
		c-1.313-1.023-2.384-2.392-3.216-4.104C72.416,72.857,72,70.969,72,68.904c0-2.063,0.416-3.936,1.248-5.615
		c0.832-1.68,1.903-3.031,3.216-4.057c2.656-2.111,5.488-3.168,8.496-3.168c1.216,0,2.4,0.168,3.552,0.504s2,0.665,2.544,0.984
		l0.768,0.48c0.576,0.384,1.024,0.688,1.344,0.912c0.832,0.641,1.248,1.367,1.248,2.184s-0.336,1.736-1.008,2.76
		c-1.152,1.761-2.256,2.641-3.312,2.641c-0.608,0-1.472-0.352-2.592-1.057c-0.576-0.543-1.4-0.816-2.472-0.816
		c-1.072,0-2.072,0.385-3,1.152C81.104,66.577,80.64,67.641,80.64,69.001z"/>
	<path d="M112.416,68.977l6.384,5.28c0.8,0.672,1.304,1.185,1.512,1.536c0.208,0.353,0.312,0.688,0.312,1.008
		c0,0.768-0.496,1.809-1.487,3.12c-1.089,1.345-2.048,2.017-2.88,2.017c-0.705,0-1.68-0.464-2.928-1.393l-0.48-0.336
		c-0.736-0.607-1.872-1.672-3.408-3.191c-1.535-1.52-2.704-2.6-3.504-3.24v3.695c0,0.736-0.023,1.289-0.072,1.656
		c-0.047,0.368-0.199,0.792-0.455,1.271c-0.416,0.833-1.649,1.248-3.696,1.248c-2.016,0-3.249-0.432-3.696-1.295
		c-0.224-0.48-0.36-0.904-0.408-1.272c-0.048-0.368-0.072-0.919-0.072-1.656V48.673c0-0.735,0.024-1.288,0.072-1.655
		c0.048-0.368,0.184-0.793,0.408-1.272c0.448-0.864,1.696-1.296,3.744-1.296c1.536,0,2.623,0.271,3.264,0.816
		c0.544,0.447,0.832,1.151,0.864,2.111c0.032,0.288,0.048,0.736,0.048,1.344v15.217c0.576-0.48,1.447-1.297,2.616-2.449
		c1.167-1.151,2.04-1.967,2.616-2.447l0.576-0.385c1.119-0.863,2.079-1.295,2.879-1.295c0.801,0,1.721,0.647,2.761,1.943
		c1.04,1.297,1.56,2.313,1.56,3.049s-0.592,1.6-1.775,2.592L112.416,68.977z"/>
	<path fill="#FFFFFF" d="M137.136,56.4c2.848,0,5.464,1.266,7.849,3.793c2.383,2.527,3.575,5.464,3.575,8.808
		c0,3.345-1.185,6.272-3.552,8.784c-2.369,2.512-4.912,3.768-7.632,3.768c-2.721,0-4.656-0.768-5.808-2.304
		c-0.258,1.568-1.633,2.353-4.129,2.353c-2.016,0-3.248-0.433-3.695-1.297c-0.225-0.48-0.36-0.903-0.408-1.271
		c-0.049-0.367-0.072-0.92-0.072-1.656V48.721c0-0.735,0.023-1.287,0.072-1.656c0.048-0.367,0.184-0.775,0.408-1.224
		c0.447-0.864,1.695-1.296,3.744-1.296c2.016,0,3.231,0.432,3.647,1.296c0.256,0.479,0.408,0.905,0.456,1.272
		s0.072,0.92,0.072,1.656v9.983C132.943,57.186,134.768,56.4,137.136,56.4z M132.936,71.904c0.784,0.865,1.768,1.297,2.952,1.297
		c1.184,0,2.191-0.432,3.024-1.297c0.832-0.863,1.248-1.823,1.248-2.879c0-1.057-0.385-2.023-1.152-2.904
		c-0.768-0.88-1.793-1.32-3.072-1.32c-1.28,0-2.297,0.449-3.048,1.344c-0.752,0.896-1.128,1.865-1.128,2.904
		C131.76,70.09,132.151,71.041,132.936,71.904z"/>
	<path fill="#FFFFFF" d="M154.992,59.521c2.688-2.496,5.76-3.744,9.216-3.744s6.511,1.24,9.168,3.72
		c2.655,2.479,3.983,5.64,3.983,9.479c0,2.656-0.688,5.017-2.063,7.08c-1.376,2.064-3.048,3.584-5.017,4.561
		c-1.968,0.977-4.008,1.464-6.119,1.464c-2.112,0-4.16-0.521-6.145-1.56c-1.984-1.04-3.656-2.576-5.016-4.608
		c-1.361-2.032-2.04-4.327-2.04-6.888C150.96,65.186,152.304,62.018,154.992,59.521z M160.992,72.457
		c1.023,0.784,2.063,1.176,3.119,1.176c1.057,0,2.112-0.399,3.168-1.199c1.057-0.801,1.584-1.984,1.584-3.553
		c0-1.567-0.496-2.736-1.487-3.504c-0.993-0.768-2.064-1.152-3.216-1.152c-1.152,0-2.225,0.4-3.217,1.2s-1.488,1.977-1.488,3.528
		C159.455,70.506,159.967,71.674,160.992,72.457z"/>
	<path fill="#FFFFFF" d="M197.04,68.977l5.328,5.377c1.151,1.151,1.728,2.135,1.728,2.951s-0.576,1.793-1.728,2.928
		c-1.151,1.137-2.128,1.705-2.929,1.705c-0.8,0-1.775-0.576-2.928-1.729l-5.279-5.328l-5.328,5.328
		c-1.152,1.152-2.121,1.729-2.904,1.729c-0.784,0-1.76-0.568-2.928-1.705c-1.168-1.135-1.752-2.111-1.752-2.928
		s0.576-1.8,1.729-2.951l5.327-5.377l-5.327-5.375c-1.152-1.152-1.729-2.137-1.729-2.953c0-0.815,0.584-1.799,1.752-2.951
		s2.144-1.729,2.928-1.729c0.783,0,1.752,0.576,2.904,1.729l5.328,5.375l5.279-5.375c1.152-1.152,2.128-1.729,2.928-1.729
		c0.801,0,1.777,0.576,2.929,1.729s1.728,2.136,1.728,2.951c0,0.816-0.576,1.801-1.728,2.953L197.04,68.977z"/>
</g>
</svg>
